<?xml version="1.0" encoding="UTF-8"?><svg xmlns="http://www.w3.org/2000/svg" xmlns:xlink="http://www.w3.org/1999/xlink" fill-opacity="1" color-rendering="auto" color-interpolation="auto" text-rendering="auto" stroke="black" stroke-linecap="square" width="795" stroke-miterlimit="10" shape-rendering="auto" stroke-opacity="1" fill="black" stroke-dasharray="none" font-weight="normal" stroke-width="1" height="590" font-family="'Dialog'" font-style="normal" stroke-linejoin="miter" font-size="12px" stroke-dashoffset="0" image-rendering="auto">
  <!--Generated by ySVG 2.6-->
  <defs id="genericDefs"/>
  <g>
    <defs id="defs1">
      <clipPath clipPathUnits="userSpaceOnUse" id="clipPath1">
        <path d="M0 0 L795 0 L795 590 L0 590 L0 0 Z"/>
      </clipPath>
      <clipPath clipPathUnits="userSpaceOnUse" id="clipPath2">
        <path d="M-25 -20 L770 -20 L770 570 L-25 570 L-25 -20 Z"/>
      </clipPath>
    </defs>
    <g fill="white" text-rendering="geometricPrecision" shape-rendering="geometricPrecision" transform="translate(25,20)" stroke="white">
      <rect x="-25" width="795" height="590" y="-20" clip-path="url(#clipPath2)" stroke="none"/>
    </g>
    <g fill="rgb(255,230,204)" text-rendering="geometricPrecision" shape-rendering="geometricPrecision" transform="matrix(1,0,0,1,25,20)" stroke="rgb(255,230,204)">
      <ellipse rx="80" ry="30" clip-path="url(#clipPath2)" cx="300" cy="525" stroke="none"/>
    </g>
    <g text-rendering="geometricPrecision" stroke-miterlimit="1.45" shape-rendering="geometricPrecision" transform="matrix(1,0,0,1,25,20)" stroke-linecap="butt">
      <text x="279.1619" xml:space="preserve" y="521.4839" clip-path="url(#clipPath2)" stroke="none">Human</text>
      <text x="274.1218" xml:space="preserve" y="537.8281" clip-path="url(#clipPath2)" stroke="none">Operator</text>
      <ellipse clip-path="url(#clipPath2)" fill="none" rx="80" cx="300" ry="30" cy="525" stroke="rgb(255,136,0)" stroke-width="2"/>
    </g>
    <g fill="rgb(255,238,221)" text-rendering="geometricPrecision" shape-rendering="geometricPrecision" transform="matrix(1,0,0,1,25,20)" stroke="rgb(255,238,221)">
      <rect x="220" y="245" clip-path="url(#clipPath2)" width="160" rx="4" ry="4" height="60" stroke="none"/>
    </g>
    <g text-rendering="geometricPrecision" stroke-miterlimit="1.45" shape-rendering="geometricPrecision" transform="matrix(1,0,0,1,25,20)" stroke-linecap="butt">
      <text x="272.2498" xml:space="preserve" y="271.484" clip-path="url(#clipPath2)" stroke="none">Azure TTS</text>
      <text x="244.1276" xml:space="preserve" y="287.8281" clip-path="url(#clipPath2)" stroke="none">real-time responses</text>
      <rect x="220" y="245" clip-path="url(#clipPath2)" fill="none" width="160" rx="4" ry="4" height="60" stroke="rgb(204,102,51)" stroke-width="2"/>
    </g>
    <g fill="rgb(255,238,221)" text-rendering="geometricPrecision" shape-rendering="geometricPrecision" transform="matrix(1,0,0,1,25,20)" stroke="rgb(255,238,221)">
      <rect x="595" y="370" clip-path="url(#clipPath2)" width="160" rx="4" ry="4" height="60" stroke="none"/>
    </g>
    <g text-rendering="geometricPrecision" stroke-miterlimit="1.45" shape-rendering="geometricPrecision" transform="matrix(1,0,0,1,25,20)" stroke-linecap="butt">
      <text x="643.5178" xml:space="preserve" y="396.484" clip-path="url(#clipPath2)" stroke="none">ElevenLabs</text>
      <text x="613.9675" xml:space="preserve" y="412.8281" clip-path="url(#clipPath2)" stroke="none">pre-recorded phrases</text>
      <rect x="595" y="370" clip-path="url(#clipPath2)" fill="none" width="160" rx="4" ry="4" height="60" stroke="rgb(204,102,51)" stroke-width="2"/>
    </g>
    <g fill="rgb(221,255,221)" text-rendering="geometricPrecision" shape-rendering="geometricPrecision" transform="matrix(1,0,0,1,25,20)" stroke="rgb(221,255,221)">
      <rect x="445" y="245" clip-path="url(#clipPath2)" width="160" rx="4" ry="4" height="60" stroke="none"/>
    </g>
    <g text-rendering="geometricPrecision" stroke-miterlimit="1.45" shape-rendering="geometricPrecision" transform="matrix(1,0,0,1,25,20)" stroke-linecap="butt">
      <text x="500.9758" xml:space="preserve" y="271.484" clip-path="url(#clipPath2)" stroke="none">CRM API</text>
      <text x="500.8678" xml:space="preserve" y="287.8281" clip-path="url(#clipPath2)" stroke="none">Backend</text>
      <rect x="445" y="245" clip-path="url(#clipPath2)" fill="none" width="160" rx="4" ry="4" height="60" stroke="rgb(51,102,51)" stroke-width="2"/>
    </g>
    <g fill="rgb(221,238,255)" text-rendering="geometricPrecision" shape-rendering="geometricPrecision" transform="matrix(1,0,0,1,25,20)" stroke="rgb(221,238,255)">
      <rect x="-10" y="-5" clip-path="url(#clipPath2)" width="170" rx="4" ry="4" height="60" stroke="none"/>
    </g>
    <g text-rendering="geometricPrecision" stroke-miterlimit="1.45" font-size="11px" shape-rendering="geometricPrecision" transform="matrix(1,0,0,1,25,20)" stroke-linecap="butt">
      <text x="61.0411" xml:space="preserve" y="21.777" clip-path="url(#clipPath2)" stroke="none">Redis</text>
      <text x="15.4299" xml:space="preserve" y="36.7589" clip-path="url(#clipPath2)" stroke="none">session state · TTL 30m</text>
    </g>
    <g stroke-linecap="butt" transform="matrix(1,0,0,1,25,20)" fill="rgb(51,102,204)" text-rendering="geometricPrecision" shape-rendering="geometricPrecision" stroke="rgb(51,102,204)" stroke-width="2" stroke-miterlimit="1.45">
      <rect x="-10" y="-5" clip-path="url(#clipPath2)" fill="none" width="170" rx="4" ry="4" height="60"/>
    </g>
    <g fill="rgb(232,221,255)" text-rendering="geometricPrecision" shape-rendering="geometricPrecision" transform="matrix(1,0,0,1,25,20)" stroke="rgb(232,221,255)">
      <rect x="215" y="370" clip-path="url(#clipPath2)" width="170" rx="4" ry="4" height="60" stroke="none"/>
    </g>
    <g text-rendering="geometricPrecision" stroke-miterlimit="1.45" shape-rendering="geometricPrecision" transform="matrix(1,0,0,1,25,20)" stroke-linecap="butt">
      <text x="265.3257" xml:space="preserve" y="396.484" clip-path="url(#clipPath2)" stroke="none">GPT-4o-mini</text>
      <text x="255.1137" xml:space="preserve" y="412.8281" clip-path="url(#clipPath2)" stroke="none">Decision Engine</text>
      <rect x="215" y="370" clip-path="url(#clipPath2)" fill="none" width="170" rx="4" ry="4" height="60" stroke="rgb(102,51,204)" stroke-width="2"/>
    </g>
    <g fill="rgb(232,221,255)" text-rendering="geometricPrecision" shape-rendering="geometricPrecision" transform="matrix(1,0,0,1,25,20)" stroke="rgb(232,221,255)">
      <rect x="-10" y="370" clip-path="url(#clipPath2)" width="170" rx="4" ry="4" height="60" stroke="none"/>
    </g>
    <g text-rendering="geometricPrecision" stroke-miterlimit="1.45" shape-rendering="geometricPrecision" transform="matrix(1,0,0,1,25,20)" stroke-linecap="butt">
      <text x="28.8417" xml:space="preserve" y="396.484" clip-path="url(#clipPath2)" stroke="none">OpenAI Whisper</text>
      <text x="41.7358" xml:space="preserve" y="412.8281" clip-path="url(#clipPath2)" stroke="none">STT · UA/RU</text>
      <rect x="-10" y="370" clip-path="url(#clipPath2)" fill="none" width="170" rx="4" ry="4" height="60" stroke="rgb(102,51,204)" stroke-width="2"/>
    </g>
    <g fill="rgb(221,238,255)" text-rendering="geometricPrecision" shape-rendering="geometricPrecision" transform="matrix(1,0,0,1,25,20)" stroke="rgb(221,238,255)">
      <rect x="-5" y="120" clip-path="url(#clipPath2)" width="160" rx="4" ry="4" height="60" stroke="none"/>
    </g>
    <g text-rendering="geometricPrecision" stroke-miterlimit="1.45" shape-rendering="geometricPrecision" transform="matrix(1,0,0,1,25,20)" stroke-linecap="butt">
      <text x="31.1637" xml:space="preserve" y="146.484" clip-path="url(#clipPath2)" stroke="none">AI Agent Server</text>
      <text x="63.4019" xml:space="preserve" y="162.8281" clip-path="url(#clipPath2)" stroke="none">(Go)</text>
      <rect x="-5" y="120" clip-path="url(#clipPath2)" fill="none" width="160" rx="4" ry="4" height="60" stroke="rgb(51,102,204)" stroke-width="2"/>
    </g>
    <g fill="rgb(255,230,204)" text-rendering="geometricPrecision" shape-rendering="geometricPrecision" transform="matrix(1,0,0,1,25,20)" stroke="rgb(255,230,204)">
      <rect x="220" y="120" clip-path="url(#clipPath2)" width="160" rx="4" ry="4" height="60" stroke="none"/>
    </g>
    <g text-rendering="geometricPrecision" stroke-miterlimit="1.45" shape-rendering="geometricPrecision" transform="matrix(1,0,0,1,25,20)" stroke-linecap="butt">
      <text x="280.1158" xml:space="preserve" y="146.484" clip-path="url(#clipPath2)" stroke="none">Binotel</text>
      <text x="270.5518" xml:space="preserve" y="162.8281" clip-path="url(#clipPath2)" stroke="none">Telephony</text>
      <rect x="220" y="120" clip-path="url(#clipPath2)" fill="none" width="160" rx="4" ry="4" height="60" stroke="rgb(255,136,0)" stroke-width="2"/>
    </g>
    <g fill="rgb(255,230,204)" text-rendering="geometricPrecision" shape-rendering="geometricPrecision" transform="matrix(1,0,0,1,25,20)" stroke="rgb(255,230,204)">
      <ellipse rx="80" ry="30" clip-path="url(#clipPath2)" cx="525" cy="150" stroke="none"/>
    </g>
    <g text-rendering="geometricPrecision" stroke-miterlimit="1.45" shape-rendering="geometricPrecision" transform="matrix(1,0,0,1,25,20)" stroke-linecap="butt">
      <text x="497.3578" xml:space="preserve" y="146.484" clip-path="url(#clipPath2)" stroke="none">Customer</text>
      <text x="495.1258" xml:space="preserve" y="162.8281" clip-path="url(#clipPath2)" stroke="none">Phone Call</text>
      <ellipse clip-path="url(#clipPath2)" fill="none" rx="80" cx="525" ry="30" cy="150" stroke="rgb(255,136,0)" stroke-width="2"/>
      <path fill="none" stroke-dasharray="6,2" d="M525 305 L525 375 L393 375" clip-path="url(#clipPath2)" stroke="rgb(85,85,85)"/>
      <path fill="rgb(85,85,85)" stroke-dasharray="6,2" d="M385 375 L397 380 L394 375 L397 370 Z" clip-path="url(#clipPath2)" stroke="none"/>
      <text x="439.5375" xml:space="preserve" font-size="10px" y="389.69" clip-path="url(#clipPath2)" stroke="none">trip data</text>
      <text x="427.7175" xml:space="preserve" font-size="10px" y="403.31" clip-path="url(#clipPath2)" stroke="none">vehicle status</text>
      <path fill="none" stroke-dasharray="6,2" d="M300 430 L300 487" clip-path="url(#clipPath2)" stroke="rgb(204,0,0)"/>
      <path fill="rgb(204,0,0)" stroke-dasharray="6,2" d="M300 495 L305 483 L300 486 L295 483 Z" clip-path="url(#clipPath2)" stroke="none"/>
      <text x="304" xml:space="preserve" font-size="10px" y="466.38" clip-path="url(#clipPath2)" stroke="none">unresolved</text>
      <path fill="none" d="M300 369.9683 L300 313" clip-path="url(#clipPath2)" stroke="rgb(85,85,85)"/>
      <path fill="rgb(85,85,85)" d="M300 305 L295 317 L300 314 L305 317 Z" clip-path="url(#clipPath2)" stroke="none"/>
      <text x="304" xml:space="preserve" font-size="10px" y="341.38" clip-path="url(#clipPath2)" stroke="none">dynamic text</text>
      <path fill="none" d="M385 400 L586.9744 400" clip-path="url(#clipPath2)" stroke="rgb(85,85,85)"/>
      <path fill="rgb(85,85,85)" d="M594.9744 400 L582.9744 395 L585.9744 400 L582.9744 405 Z" clip-path="url(#clipPath2)" stroke="none"/>
      <text x="441.9951" xml:space="preserve" font-size="10px" y="414.69" clip-path="url(#clipPath2)" stroke="none">standard phrase key</text>
      <path fill="none" d="M385 387.5 L550 387.5 L550 313" clip-path="url(#clipPath2)" stroke="rgb(85,85,85)"/>
      <path fill="rgb(85,85,85)" d="M550 305 L545 317 L550 314 L555 317 Z" clip-path="url(#clipPath2)" stroke="none"/>
      <text x="443.4675" xml:space="preserve" font-size="10px" y="402.19" clip-path="url(#clipPath2)" stroke="none">function call</text>
      <path fill="none" d="M160 400 L206.9731 400" clip-path="url(#clipPath2)" stroke="rgb(85,85,85)"/>
      <path fill="rgb(85,85,85)" d="M214.9731 400 L202.9731 395 L205.9731 400 L202.9731 405 Z" clip-path="url(#clipPath2)" stroke="none"/>
      <text x="164.705" xml:space="preserve" font-size="10px" y="414.69" clip-path="url(#clipPath2)" stroke="none">transcript</text>
      <path fill="none" stroke-dasharray="6,2" d="M75 55 L75 111.9683" clip-path="url(#clipPath2)" stroke="rgb(51,102,204)"/>
      <path fill="rgb(51,102,204)" stroke-dasharray="6,2" d="M75 119.9683 L80 107.9683 L75 110.9683 L70 107.9683 Z" clip-path="url(#clipPath2)" stroke="none"/>
      <text x="79" xml:space="preserve" font-size="10px" y="91.38" clip-path="url(#clipPath2)" stroke="none">read session</text>
      <path fill="none" d="M100 119.9683 L100 63" clip-path="url(#clipPath2)" stroke="rgb(51,102,204)"/>
      <path fill="rgb(51,102,204)" d="M100 55 L95 67 L100 64 L105 67 Z" clip-path="url(#clipPath2)" stroke="none"/>
      <text x="104" xml:space="preserve" font-size="10px" y="91.38" clip-path="url(#clipPath2)" stroke="none">write session</text>
      <path fill="none" d="M75 180 L75 361.9536" clip-path="url(#clipPath2)" stroke="rgb(85,85,85)"/>
      <path fill="rgb(85,85,85)" d="M75 369.9536 L80 357.9536 L75 360.9536 L70 357.9536 Z" clip-path="url(#clipPath2)" stroke="none"/>
      <text x="79" xml:space="preserve" font-size="10px" y="278.88" clip-path="url(#clipPath2)" stroke="none">audio chunk</text>
      <path fill="none" d="M300 244.9683 L300 188" clip-path="url(#clipPath2)" stroke="rgb(204,102,51)"/>
      <path fill="rgb(204,102,51)" d="M300 180 L295 192 L300 189 L305 192 Z" clip-path="url(#clipPath2)" stroke="none"/>
      <text x="304" xml:space="preserve" font-size="10px" y="216.38" clip-path="url(#clipPath2)" stroke="none">audio stream</text>
      <path fill="none" d="M675 369.964 L675 75 L300 75 L300 111.9561" clip-path="url(#clipPath2)" stroke="rgb(204,102,51)"/>
      <path fill="rgb(204,102,51)" d="M300 119.9561 L305 107.9561 L300 110.9561 L295 107.9561 Z" clip-path="url(#clipPath2)" stroke="none"/>
      <text x="465.795" xml:space="preserve" font-size="10px" y="89.69" clip-path="url(#clipPath2)" stroke="none">audio file</text>
      <path fill="none" d="M219.9683 150 L163 150" clip-path="url(#clipPath2)" stroke="rgb(85,85,85)"/>
      <path fill="rgb(85,85,85)" d="M155 150 L167 155 L164 150 L167 145 Z" clip-path="url(#clipPath2)" stroke="none"/>
      <text x="152.11" xml:space="preserve" font-size="10px" y="164.69" clip-path="url(#clipPath2)" stroke="none">webhook POST</text>
      <text x="154.385" xml:space="preserve" font-size="10px" y="178.31" clip-path="url(#clipPath2)" stroke="none">call_id + audio</text>
      <path fill="none" d="M380 150 L437 150" clip-path="url(#clipPath2)" stroke="rgb(255,136,0)"/>
      <path fill="rgb(255,136,0)" d="M445 150 L433 145 L436 150 L433 155 Z" clip-path="url(#clipPath2)" stroke="none"/>
      <text x="385.8" xml:space="preserve" font-size="10px" y="164.69" clip-path="url(#clipPath2)" stroke="none">plays audio</text>
      <path fill="none" d="M480.7321 125 L388 125" clip-path="url(#clipPath2)" stroke="rgb(85,85,85)"/>
      <path fill="rgb(85,85,85)" d="M380 125 L392 130 L389 125 L392 120 Z" clip-path="url(#clipPath2)" stroke="none"/>
      <text x="383.68" xml:space="preserve" font-size="10px" y="139.69" clip-path="url(#clipPath2)" stroke="none">inbound call</text>
    </g>
  </g>
</svg>
