<?xml version="1.0" encoding="UTF-8"?><svg xmlns="http://www.w3.org/2000/svg" xmlns:xlink="http://www.w3.org/1999/xlink" fill-opacity="1" color-rendering="auto" color-interpolation="auto" text-rendering="auto" stroke="black" stroke-linecap="square" width="681" stroke-miterlimit="10" shape-rendering="auto" stroke-opacity="1" fill="black" stroke-dasharray="none" font-weight="normal" stroke-width="1" height="955" font-family="'Dialog'" font-style="normal" stroke-linejoin="miter" font-size="12px" stroke-dashoffset="0" image-rendering="auto">
  <!--Generated by ySVG 2.6-->
  <defs id="genericDefs"/>
  <g>
    <defs id="defs1">
      <clipPath clipPathUnits="userSpaceOnUse" id="clipPath1">
        <path d="M0 0 L681 0 L681 955 L0 955 L0 0 Z"/>
      </clipPath>
      <clipPath clipPathUnits="userSpaceOnUse" id="clipPath2">
        <path d="M5 -15 L686 -15 L686 940 L5 940 L5 -15 Z"/>
      </clipPath>
    </defs>
    <g fill="white" text-rendering="geometricPrecision" shape-rendering="geometricPrecision" transform="translate(-5,15)" stroke="white">
      <rect x="5" width="681" height="955" y="-15" clip-path="url(#clipPath2)" stroke="none"/>
    </g>
    <g fill="rgb(204,255,204)" text-rendering="geometricPrecision" shape-rendering="geometricPrecision" transform="matrix(1,0,0,1,-5,15)" stroke="rgb(204,255,204)">
      <ellipse rx="100" ry="25" clip-path="url(#clipPath2)" cx="372.75" cy="25" stroke="none"/>
    </g>
    <g text-rendering="geometricPrecision" stroke-miterlimit="1.45" shape-rendering="geometricPrecision" transform="matrix(1,0,0,1,-5,15)" stroke-linecap="butt">
      <text x="335.0397" xml:space="preserve" y="29.656" clip-path="url(#clipPath2)" stroke="none">Incoming call</text>
      <ellipse clip-path="url(#clipPath2)" fill="none" rx="100" cx="372.75" ry="25" cy="25" stroke="rgb(51,153,51)" stroke-width="2"/>
    </g>
    <g fill="rgb(221,238,255)" text-rendering="geometricPrecision" shape-rendering="geometricPrecision" transform="matrix(1,0,0,1,-5,15)" stroke="rgb(221,238,255)">
      <rect x="272.75" y="70" clip-path="url(#clipPath2)" width="200" rx="4" ry="4" height="50" stroke="none"/>
    </g>
    <g text-rendering="geometricPrecision" stroke-miterlimit="1.45" shape-rendering="geometricPrecision" transform="matrix(1,0,0,1,-5,15)" stroke-linecap="butt">
      <text x="337.4457" xml:space="preserve" y="99.656" clip-path="url(#clipPath2)" stroke="none">Bot greeting</text>
      <rect x="272.75" y="70" clip-path="url(#clipPath2)" fill="none" width="200" rx="4" ry="4" height="50" stroke="rgb(51,102,204)"/>
    </g>
    <g fill="rgb(221,238,255)" text-rendering="geometricPrecision" shape-rendering="geometricPrecision" transform="matrix(1,0,0,1,-5,15)" stroke="rgb(221,238,255)">
      <rect x="272.75" y="140" clip-path="url(#clipPath2)" width="200" rx="4" ry="4" height="60" stroke="none"/>
    </g>
    <g text-rendering="geometricPrecision" stroke-miterlimit="1.45" shape-rendering="geometricPrecision" transform="matrix(1,0,0,1,-5,15)" stroke-linecap="butt">
      <text x="316.0316" xml:space="preserve" y="166.484" clip-path="url(#clipPath2)" stroke="none">Ask: vehicle number</text>
      <text x="326.6997" xml:space="preserve" y="182.8281" clip-path="url(#clipPath2)" stroke="none">/ phone number</text>
      <rect x="272.75" y="140" clip-path="url(#clipPath2)" fill="none" width="200" rx="4" ry="4" height="60" stroke="rgb(51,102,204)"/>
    </g>
    <g fill="rgb(221,255,221)" text-rendering="geometricPrecision" shape-rendering="geometricPrecision" transform="matrix(1,0,0,1,-5,15)" stroke="rgb(221,255,221)">
      <rect x="272.75" y="220" clip-path="url(#clipPath2)" width="200" rx="4" ry="4" height="60" stroke="none"/>
    </g>
    <g text-rendering="geometricPrecision" stroke-miterlimit="1.45" shape-rendering="geometricPrecision" transform="matrix(1,0,0,1,-5,15)" stroke-linecap="butt">
      <text x="326.3157" xml:space="preserve" y="246.484" clip-path="url(#clipPath2)" stroke="none">CRM: get vehicle</text>
      <text x="327.1497" xml:space="preserve" y="262.8281" clip-path="url(#clipPath2)" stroke="none">location on map</text>
      <rect x="272.75" y="220" clip-path="url(#clipPath2)" fill="none" width="200" rx="4" ry="4" height="60" stroke="rgb(51,102,51)"/>
    </g>
    <g fill="rgb(255,245,204)" text-rendering="geometricPrecision" shape-rendering="geometricPrecision" transform="matrix(1,0,0,1,-5,15)" stroke="rgb(255,245,204)">
      <path d="M272.75 335 L372.75 300 L472.75 335 L372.75 370 Z" fill-rule="evenodd" clip-path="url(#clipPath2)" stroke="none"/>
    </g>
    <g text-rendering="geometricPrecision" stroke-miterlimit="1.45" shape-rendering="geometricPrecision" transform="matrix(1,0,0,1,-5,15)" stroke-linecap="butt">
      <text x="350.6398" xml:space="preserve" y="331.484" clip-path="url(#clipPath2)" stroke="none">Actually</text>
      <text x="338.6758" xml:space="preserve" y="347.8281" clip-path="url(#clipPath2)" stroke="none">in red zone?</text>
      <path fill="none" d="M272.75 335 L372.75 300 L472.75 335 L372.75 370 Z" clip-path="url(#clipPath2)" fill-rule="evenodd" stroke="rgb(204,153,0)"/>
    </g>
    <g fill="rgb(255,238,204)" text-rendering="geometricPrecision" shape-rendering="geometricPrecision" transform="matrix(1,0,0,1,-5,15)" stroke="rgb(255,238,204)">
      <rect x="137.75" y="401" clip-path="url(#clipPath2)" width="220" rx="4" ry="4" height="70" stroke="none"/>
    </g>
    <g text-rendering="geometricPrecision" stroke-miterlimit="1.45" shape-rendering="geometricPrecision" transform="matrix(1,0,0,1,-5,15)" stroke-linecap="butt">
      <text x="195.0036" xml:space="preserve" y="424.3119" clip-path="url(#clipPath2)" stroke="none">Inform about zone</text>
      <text x="189.9396" xml:space="preserve" y="440.656" clip-path="url(#clipPath2)" stroke="none">Ask to return vehicle</text>
      <text x="172.3475" xml:space="preserve" y="457.0002" clip-path="url(#clipPath2)" stroke="none">to nearest allowed parking</text>
      <rect x="137.75" y="401" clip-path="url(#clipPath2)" fill="none" width="220" rx="4" ry="4" height="70" stroke="rgb(204,102,0)"/>
    </g>
    <g fill="rgb(255,245,204)" text-rendering="geometricPrecision" shape-rendering="geometricPrecision" transform="matrix(1,0,0,1,-5,15)" stroke="rgb(255,245,204)">
      <path d="M192.75 537 L302.7499 502 L412.75 537 L302.7499 572 Z" fill-rule="evenodd" clip-path="url(#clipPath2)" stroke="none"/>
    </g>
    <g text-rendering="geometricPrecision" stroke-miterlimit="1.45" shape-rendering="geometricPrecision" transform="matrix(1,0,0,1,-5,15)" stroke-linecap="butt">
      <text x="245.9476" xml:space="preserve" y="541.656" clip-path="url(#clipPath2)" stroke="none">Customer returned?</text>
      <path fill="none" d="M192.75 537 L302.7499 502 L412.75 537 L302.7499 572 Z" clip-path="url(#clipPath2)" fill-rule="evenodd" stroke="rgb(204,153,0)"/>
    </g>
    <g fill="rgb(221,255,221)" text-rendering="geometricPrecision" shape-rendering="geometricPrecision" transform="matrix(1,0,0,1,-5,15)" stroke="rgb(221,255,221)">
      <rect x="75" y="603" clip-path="url(#clipPath2)" width="220" rx="4" ry="4" height="60" stroke="none"/>
    </g>
    <g text-rendering="geometricPrecision" stroke-miterlimit="1.45" shape-rendering="geometricPrecision" transform="matrix(1,0,0,1,-5,15)" stroke-linecap="butt">
      <text x="120.9795" xml:space="preserve" y="629.4839" clip-path="url(#clipPath2)" stroke="none">CRM: re-check location</text>
      <text x="160.2438" xml:space="preserve" y="645.8281" clip-path="url(#clipPath2)" stroke="none">after 10s</text>
      <rect x="75" y="603" clip-path="url(#clipPath2)" fill="none" width="220" rx="4" ry="4" height="60" stroke="rgb(51,102,51)"/>
    </g>
    <g fill="rgb(255,245,204)" text-rendering="geometricPrecision" shape-rendering="geometricPrecision" transform="matrix(1,0,0,1,-5,15)" stroke="rgb(255,245,204)">
      <path d="M20 728.9999 L130 693.9999 L240 728.9999 L130 763.9999 Z" fill-rule="evenodd" clip-path="url(#clipPath2)" stroke="none"/>
    </g>
    <g text-rendering="geometricPrecision" stroke-miterlimit="1.45" shape-rendering="geometricPrecision" transform="matrix(1,0,0,1,-5,15)" stroke-linecap="butt">
      <text x="100.0958" xml:space="preserve" y="725.4839" clip-path="url(#clipPath2)" stroke="none">Confirmed</text>
      <text x="90.4117" xml:space="preserve" y="741.8281" clip-path="url(#clipPath2)" stroke="none">allowed zone?</text>
      <path fill="none" d="M20 728.9999 L130 693.9999 L240 728.9999 L130 763.9999 Z" clip-path="url(#clipPath2)" fill-rule="evenodd" stroke="rgb(204,153,0)"/>
    </g>
    <g fill="rgb(221,255,221)" text-rendering="geometricPrecision" shape-rendering="geometricPrecision" transform="matrix(1,0,0,1,-5,15)" stroke="rgb(221,255,221)">
      <rect x="30" y="784" clip-path="url(#clipPath2)" width="200" rx="4" ry="4" height="60" stroke="none"/>
    </g>
    <g text-rendering="geometricPrecision" stroke-miterlimit="1.45" shape-rendering="geometricPrecision" transform="matrix(1,0,0,1,-5,15)" stroke-linecap="butt">
      <text x="107.8238" xml:space="preserve" y="810.4839" clip-path="url(#clipPath2)" stroke="none">End trip</text>
      <text x="72.3876" xml:space="preserve" y="826.8281" clip-path="url(#clipPath2)" stroke="none">Waive extra minutes</text>
      <rect x="30" y="784" clip-path="url(#clipPath2)" fill="none" width="200" rx="4" ry="4" height="60" stroke="rgb(51,102,51)"/>
    </g>
    <g fill="rgb(153,255,153)" text-rendering="geometricPrecision" shape-rendering="geometricPrecision" transform="matrix(1,0,0,1,-5,15)" stroke="rgb(153,255,153)">
      <ellipse rx="100" ry="25" clip-path="url(#clipPath2)" cx="510.5" cy="900" stroke="none"/>
    </g>
    <g text-rendering="geometricPrecision" stroke-miterlimit="1.45" shape-rendering="geometricPrecision" transform="matrix(1,0,0,1,-5,15)" stroke-linecap="butt">
      <text x="480.8298" xml:space="preserve" y="904.656" clip-path="url(#clipPath2)" stroke="none">Call ended</text>
      <ellipse clip-path="url(#clipPath2)" fill="none" rx="100" cx="510.5" ry="25" cy="900" stroke="rgb(0,102,0)" stroke-width="2"/>
    </g>
    <g fill="rgb(221,238,255)" text-rendering="geometricPrecision" shape-rendering="geometricPrecision" transform="matrix(1,0,0,1,-5,15)" stroke="rgb(221,238,255)">
      <rect x="450.5" y="401" clip-path="url(#clipPath2)" width="220" rx="4" ry="4" height="70" stroke="none"/>
    </g>
    <g text-rendering="geometricPrecision" stroke-miterlimit="1.45" shape-rendering="geometricPrecision" transform="matrix(1,0,0,1,-5,15)" stroke-linecap="butt">
      <text x="532.7258" xml:space="preserve" y="424.3119" clip-path="url(#clipPath2)" stroke="none">Apologize</text>
      <text x="494.6675" xml:space="preserve" y="440.656" clip-path="url(#clipPath2)" stroke="none">CRM: end trip manually</text>
      <text x="502.8876" xml:space="preserve" y="457.0002" clip-path="url(#clipPath2)" stroke="none">Waive extra minutes</text>
      <rect x="450.5" y="401" clip-path="url(#clipPath2)" fill="none" width="220" rx="4" ry="4" height="70" stroke="rgb(51,102,204)"/>
    </g>
    <g fill="rgb(255,238,204)" text-rendering="geometricPrecision" shape-rendering="geometricPrecision" transform="matrix(1,0,0,1,-5,15)" stroke="rgb(255,238,204)">
      <rect x="325" y="603" clip-path="url(#clipPath2)" width="220" rx="4" ry="4" height="60" stroke="none"/>
    </g>
    <g text-rendering="geometricPrecision" stroke-miterlimit="1.45" shape-rendering="geometricPrecision" transform="matrix(1,0,0,1,-5,15)" stroke-linecap="butt">
      <text x="377.5736" xml:space="preserve" y="629.4839" clip-path="url(#clipPath2)" stroke="none">Transfer to operator</text>
      <text x="385.9677" xml:space="preserve" y="645.8281" clip-path="url(#clipPath2)" stroke="none">with map context</text>
      <rect x="325" y="603" clip-path="url(#clipPath2)" fill="none" width="220" rx="4" ry="4" height="60" stroke="rgb(204,102,0)"/>
    </g>
    <g fill="rgb(255,208,170)" text-rendering="geometricPrecision" shape-rendering="geometricPrecision" transform="matrix(1,0,0,1,-5,15)" stroke="rgb(255,208,170)">
      <ellipse rx="110" ry="25" clip-path="url(#clipPath2)" cx="435" cy="729" stroke="none"/>
    </g>
    <g text-rendering="geometricPrecision" stroke-miterlimit="1.45" shape-rendering="geometricPrecision" transform="matrix(1,0,0,1,-5,15)" stroke-linecap="butt">
      <text x="378.1316" xml:space="preserve" y="733.656" clip-path="url(#clipPath2)" stroke="none">Operator connected</text>
      <ellipse clip-path="url(#clipPath2)" fill="none" rx="110" cx="435" ry="25" cy="729" stroke="rgb(204,102,0)" stroke-width="2"/>
      <path fill="none" d="M372.75 50 L372.75 61.9609" clip-path="url(#clipPath2)" stroke="rgb(85,85,85)"/>
      <path fill="rgb(85,85,85)" d="M372.75 69.9609 L377.75 57.9609 L372.75 60.9609 L367.75 57.9609 Z" clip-path="url(#clipPath2)" stroke="none"/>
      <path fill="none" d="M372.75 120 L372.75 131.9609" clip-path="url(#clipPath2)" stroke="rgb(85,85,85)"/>
      <path fill="rgb(85,85,85)" d="M372.75 139.9609 L377.75 127.9609 L372.75 130.9609 L367.75 127.9609 Z" clip-path="url(#clipPath2)" stroke="none"/>
      <path fill="none" d="M372.75 200 L372.75 211.9609" clip-path="url(#clipPath2)" stroke="rgb(85,85,85)"/>
      <path fill="rgb(85,85,85)" d="M372.75 219.9609 L377.75 207.9609 L372.75 210.9609 L367.75 207.9609 Z" clip-path="url(#clipPath2)" stroke="none"/>
      <path fill="none" d="M372.75 280 L372.75 292" clip-path="url(#clipPath2)" stroke="rgb(85,85,85)"/>
      <path fill="rgb(85,85,85)" d="M372.75 300 L377.75 288 L372.75 291 L367.75 288 Z" clip-path="url(#clipPath2)" stroke="none"/>
      <path fill="none" d="M322.75 352.5312 L322.75 385.5 L247.75 385.5 L247.75 392.9697" clip-path="url(#clipPath2)" stroke="rgb(204,0,0)"/>
      <path fill="rgb(204,0,0)" d="M247.75 400.9697 L252.75 388.9697 L247.75 391.9697 L242.75 388.9697 Z" clip-path="url(#clipPath2)" stroke="none"/>
      <text x="277.485" xml:space="preserve" font-size="10px" y="400.19" clip-path="url(#clipPath2)" stroke="none">yes</text>
      <path fill="none" d="M302.75 471 L302.75 494" clip-path="url(#clipPath2)" stroke="rgb(85,85,85)"/>
      <path fill="rgb(85,85,85)" d="M302.75 502 L307.75 490 L302.75 493 L297.75 490 Z" clip-path="url(#clipPath2)" stroke="none"/>
      <path fill="none" d="M247.75 554.5312 L247.75 587.5 L185 587.5 L185 594.9697" clip-path="url(#clipPath2)" stroke="rgb(85,85,85)"/>
      <path fill="rgb(85,85,85)" d="M185 602.9697 L190 590.9697 L185 593.9697 L180 590.9697 Z" clip-path="url(#clipPath2)" stroke="none"/>
      <text x="208.61" xml:space="preserve" font-size="10px" y="602.19" clip-path="url(#clipPath2)" stroke="none">yes</text>
      <path fill="none" d="M185 663 L185 703.4839" clip-path="url(#clipPath2)" stroke="rgb(85,85,85)"/>
      <path fill="rgb(85,85,85)" d="M185 711.4839 L190 699.4839 L185 702.4839 L180 699.4839 Z" clip-path="url(#clipPath2)" stroke="none"/>
      <path fill="none" stroke-dasharray="6,2" d="M75 711.4688 L75 678.5 L59.5 678.5 L59.5 486.5 L192.75 486.5 L192.75 479" clip-path="url(#clipPath2)" stroke="rgb(204,0,0)"/>
      <path fill="rgb(204,0,0)" stroke-dasharray="6,2" d="M192.75 471 L187.75 483 L192.75 480 L197.75 483 Z" clip-path="url(#clipPath2)" stroke="none"/>
      <text x="63.5" xml:space="preserve" font-size="10px" y="586.38" clip-path="url(#clipPath2)" stroke="none">still red</text>
      <path fill="none" d="M130 764 L130 775.9609" clip-path="url(#clipPath2)" stroke="rgb(51,153,51)"/>
      <path fill="rgb(51,153,51)" d="M130 783.9609 L135 771.9609 L130 774.9609 L125 771.9609 Z" clip-path="url(#clipPath2)" stroke="none"/>
      <text x="134" xml:space="preserve" font-size="10px" y="777.88" clip-path="url(#clipPath2)" stroke="none">yes</text>
      <path fill="none" d="M130 844 L130 859.5 L460.5 859.5 L460.5 870.3438" clip-path="url(#clipPath2)" stroke="rgb(51,153,51)"/>
      <path fill="rgb(51,153,51)" d="M460.5 878.3438 L465.5 866.3438 L460.5 869.3438 L455.5 866.3438 Z" clip-path="url(#clipPath2)" stroke="none"/>
      <path fill="none" d="M422.75 352.501 L422.75 385.5 L560.5 385.5 L560.5 392.9697" clip-path="url(#clipPath2)" stroke="rgb(51,153,51)"/>
      <path fill="rgb(51,153,51)" d="M560.5 400.9697 L565.5 388.9697 L560.5 391.9697 L555.5 388.9697 Z" clip-path="url(#clipPath2)" stroke="none"/>
      <text x="447.9301" xml:space="preserve" font-size="10px" y="400.19" clip-path="url(#clipPath2)" stroke="none">no — system error</text>
      <path fill="none" d="M560.5 471 L560.5 870.3438" clip-path="url(#clipPath2)" stroke="rgb(51,153,51)"/>
      <path fill="rgb(51,153,51)" d="M560.5 878.3438 L565.5 866.3438 L560.5 869.3438 L555.5 866.3438 Z" clip-path="url(#clipPath2)" stroke="none"/>
      <path fill="none" d="M357.75 554.501 L357.75 587.5 L435 587.5 L435 594.9697" clip-path="url(#clipPath2)" stroke="rgb(204,102,0)"/>
      <path fill="rgb(204,102,0)" d="M435 602.9697 L440 590.9697 L435 593.9697 L430 590.9697 Z" clip-path="url(#clipPath2)" stroke="none"/>
      <text x="347.1501" xml:space="preserve" font-size="10px" y="602.19" clip-path="url(#clipPath2)" stroke="none">refuses / can't return</text>
      <path fill="none" d="M435 663 L435 696" clip-path="url(#clipPath2)" stroke="rgb(204,102,0)"/>
      <path fill="rgb(204,102,0)" d="M435 704 L440 692 L435 695 L430 692 Z" clip-path="url(#clipPath2)" stroke="none"/>
    </g>
  </g>
</svg>
