<?xml version="1.0" encoding="UTF-8"?><svg xmlns="http://www.w3.org/2000/svg" xmlns:xlink="http://www.w3.org/1999/xlink" fill-opacity="1" color-rendering="auto" color-interpolation="auto" text-rendering="auto" stroke="black" stroke-linecap="square" width="639" stroke-miterlimit="10" shape-rendering="auto" stroke-opacity="1" fill="black" stroke-dasharray="none" font-weight="normal" stroke-width="1" height="1197" font-family="'Dialog'" font-style="normal" stroke-linejoin="miter" font-size="12px" stroke-dashoffset="0" image-rendering="auto">
  <!--Generated by ySVG 2.6-->
  <defs id="genericDefs"/>
  <g>
    <defs id="defs1">
      <clipPath clipPathUnits="userSpaceOnUse" id="clipPath1">
        <path d="M0 0 L639 0 L639 1197 L0 1197 L0 0 Z"/>
      </clipPath>
      <clipPath clipPathUnits="userSpaceOnUse" id="clipPath2">
        <path d="M5 -15 L644 -15 L644 1182 L5 1182 L5 -15 Z"/>
      </clipPath>
    </defs>
    <g fill="white" text-rendering="geometricPrecision" shape-rendering="geometricPrecision" transform="translate(-5,15)" stroke="white">
      <rect x="5" width="639" height="1197" y="-15" clip-path="url(#clipPath2)" stroke="none"/>
    </g>
    <g fill="rgb(204,255,204)" text-rendering="geometricPrecision" shape-rendering="geometricPrecision" transform="matrix(1,0,0,1,-5,15)" stroke="rgb(204,255,204)">
      <ellipse rx="100" ry="25" clip-path="url(#clipPath2)" cx="330.5" cy="25" stroke="none"/>
    </g>
    <g text-rendering="geometricPrecision" stroke-miterlimit="1.45" shape-rendering="geometricPrecision" transform="matrix(1,0,0,1,-5,15)" stroke-linecap="butt">
      <text x="292.7897" xml:space="preserve" y="29.656" clip-path="url(#clipPath2)" stroke="none">Incoming call</text>
      <ellipse clip-path="url(#clipPath2)" fill="none" rx="100" cx="330.5" ry="25" cy="25" stroke="rgb(51,153,51)" stroke-width="2"/>
    </g>
    <g fill="rgb(221,238,255)" text-rendering="geometricPrecision" shape-rendering="geometricPrecision" transform="matrix(1,0,0,1,-5,15)" stroke="rgb(221,238,255)">
      <rect x="230.5" y="70" clip-path="url(#clipPath2)" width="200" rx="4" ry="4" height="50" stroke="none"/>
    </g>
    <g text-rendering="geometricPrecision" stroke-miterlimit="1.45" shape-rendering="geometricPrecision" transform="matrix(1,0,0,1,-5,15)" stroke-linecap="butt">
      <text x="295.1957" xml:space="preserve" y="99.656" clip-path="url(#clipPath2)" stroke="none">Bot greeting</text>
      <rect x="230.5" y="70" clip-path="url(#clipPath2)" fill="none" width="200" rx="4" ry="4" height="50" stroke="rgb(51,102,204)"/>
    </g>
    <g fill="rgb(221,238,255)" text-rendering="geometricPrecision" shape-rendering="geometricPrecision" transform="matrix(1,0,0,1,-5,15)" stroke="rgb(221,238,255)">
      <rect x="230.5" y="140" clip-path="url(#clipPath2)" width="200" rx="4" ry="4" height="50" stroke="none"/>
    </g>
    <g text-rendering="geometricPrecision" stroke-miterlimit="1.45" shape-rendering="geometricPrecision" transform="matrix(1,0,0,1,-5,15)" stroke-linecap="butt">
      <text x="273.7816" xml:space="preserve" y="169.656" clip-path="url(#clipPath2)" stroke="none">Ask: vehicle number</text>
      <rect x="230.5" y="140" clip-path="url(#clipPath2)" fill="none" width="200" rx="4" ry="4" height="50" stroke="rgb(51,102,204)"/>
    </g>
    <g fill="rgb(255,245,204)" text-rendering="geometricPrecision" shape-rendering="geometricPrecision" transform="matrix(1,0,0,1,-5,15)" stroke="rgb(255,245,204)">
      <path d="M230.5 245 L330.5 210 L430.5 245 L330.5 279.9999 Z" fill-rule="evenodd" clip-path="url(#clipPath2)" stroke="none"/>
    </g>
    <g text-rendering="geometricPrecision" stroke-miterlimit="1.45" shape-rendering="geometricPrecision" transform="matrix(1,0,0,1,-5,15)" stroke-linecap="butt">
      <text x="283.9397" xml:space="preserve" y="249.656" clip-path="url(#clipPath2)" stroke="none">Number known?</text>
      <path fill="none" d="M230.5 245 L330.5 210 L430.5 245 L330.5 279.9999 Z" clip-path="url(#clipPath2)" fill-rule="evenodd" stroke="rgb(204,153,0)"/>
    </g>
    <g fill="rgb(221,238,255)" text-rendering="geometricPrecision" shape-rendering="geometricPrecision" transform="matrix(1,0,0,1,-5,15)" stroke="rgb(221,238,255)">
      <rect x="270.5" y="311" clip-path="url(#clipPath2)" width="220" rx="4" ry="4" height="60" stroke="none"/>
    </g>
    <g text-rendering="geometricPrecision" stroke-miterlimit="1.45" shape-rendering="geometricPrecision" transform="matrix(1,0,0,1,-5,15)" stroke-linecap="butt">
      <text x="325.1616" xml:space="preserve" y="337.484" clip-path="url(#clipPath2)" stroke="none">Ask: phone number</text>
      <text x="325.3656" xml:space="preserve" y="353.8281" clip-path="url(#clipPath2)" stroke="none">CRM: find by phone</text>
      <rect x="270.5" y="311" clip-path="url(#clipPath2)" fill="none" width="220" rx="4" ry="4" height="60" stroke="rgb(51,102,204)"/>
    </g>
    <g fill="rgb(221,255,221)" text-rendering="geometricPrecision" shape-rendering="geometricPrecision" transform="matrix(1,0,0,1,-5,15)" stroke="rgb(221,255,221)">
      <rect x="205" y="402" clip-path="url(#clipPath2)" width="200" rx="4" ry="4" height="60" stroke="none"/>
    </g>
    <g text-rendering="geometricPrecision" stroke-miterlimit="1.45" shape-rendering="geometricPrecision" transform="matrix(1,0,0,1,-5,15)" stroke-linecap="butt">
      <text x="258.5657" xml:space="preserve" y="428.484" clip-path="url(#clipPath2)" stroke="none">CRM: get vehicle</text>
      <text x="262.4297" xml:space="preserve" y="444.8281" clip-path="url(#clipPath2)" stroke="none">location + zone</text>
      <rect x="205" y="402" clip-path="url(#clipPath2)" fill="none" width="200" rx="4" ry="4" height="60" stroke="rgb(51,102,51)"/>
    </g>
    <g fill="rgb(255,245,204)" text-rendering="geometricPrecision" shape-rendering="geometricPrecision" transform="matrix(1,0,0,1,-5,15)" stroke="rgb(255,245,204)">
      <path d="M205 517.0001 L305 482 L405 517.0001 L305 552.0004 Z" fill-rule="evenodd" clip-path="url(#clipPath2)" stroke="none"/>
    </g>
    <g text-rendering="geometricPrecision" stroke-miterlimit="1.45" shape-rendering="geometricPrecision" transform="matrix(1,0,0,1,-5,15)" stroke-linecap="butt">
      <text x="269.5277" xml:space="preserve" y="521.656" clip-path="url(#clipPath2)" stroke="none">Zone status?</text>
      <path fill="none" d="M205 517.0001 L305 482 L405 517.0001 L305 552.0004 Z" clip-path="url(#clipPath2)" fill-rule="evenodd" stroke="rgb(204,153,0)"/>
    </g>
    <g fill="rgb(221,255,221)" text-rendering="geometricPrecision" shape-rendering="geometricPrecision" transform="matrix(1,0,0,1,-5,15)" stroke="rgb(221,255,221)">
      <rect x="410.5" y="977" clip-path="url(#clipPath2)" width="200" rx="4" ry="4" height="50" stroke="none"/>
    </g>
    <g text-rendering="geometricPrecision" stroke-miterlimit="1.45" shape-rendering="geometricPrecision" transform="matrix(1,0,0,1,-5,15)" stroke-linecap="butt">
      <text x="472.1417" xml:space="preserve" y="1006.656" clip-path="url(#clipPath2)" stroke="none">CRM: end trip</text>
      <rect x="410.5" y="977" clip-path="url(#clipPath2)" fill="none" width="200" rx="4" ry="4" height="50" stroke="rgb(51,102,51)"/>
    </g>
    <g fill="rgb(221,238,255)" text-rendering="geometricPrecision" shape-rendering="geometricPrecision" transform="matrix(1,0,0,1,-5,15)" stroke="rgb(221,238,255)">
      <rect x="410.5" y="1047" clip-path="url(#clipPath2)" width="200" rx="4" ry="4" height="50" stroke="none"/>
    </g>
    <g text-rendering="geometricPrecision" stroke-miterlimit="1.45" shape-rendering="geometricPrecision" transform="matrix(1,0,0,1,-5,15)" stroke-linecap="butt">
      <text x="452.0236" xml:space="preserve" y="1076.656" clip-path="url(#clipPath2)" stroke="none">Confirm to customer</text>
      <rect x="410.5" y="1047" clip-path="url(#clipPath2)" fill="none" width="200" rx="4" ry="4" height="50" stroke="rgb(51,102,204)"/>
    </g>
    <g fill="rgb(153,255,153)" text-rendering="geometricPrecision" shape-rendering="geometricPrecision" transform="matrix(1,0,0,1,-5,15)" stroke="rgb(153,255,153)">
      <ellipse rx="100" ry="25" clip-path="url(#clipPath2)" cx="510.5" cy="1142" stroke="none"/>
    </g>
    <g text-rendering="geometricPrecision" stroke-miterlimit="1.45" shape-rendering="geometricPrecision" transform="matrix(1,0,0,1,-5,15)" stroke-linecap="butt">
      <text x="480.8298" xml:space="preserve" y="1146.656" clip-path="url(#clipPath2)" stroke="none">Call ended</text>
      <ellipse clip-path="url(#clipPath2)" fill="none" rx="100" cx="510.5" ry="25" cy="1142" stroke="rgb(0,102,0)" stroke-width="2"/>
    </g>
    <g fill="rgb(255,238,204)" text-rendering="geometricPrecision" shape-rendering="geometricPrecision" transform="matrix(1,0,0,1,-5,15)" stroke="rgb(255,238,204)">
      <rect x="145" y="583" clip-path="url(#clipPath2)" width="220" rx="4" ry="4" height="70" stroke="none"/>
    </g>
    <g text-rendering="geometricPrecision" stroke-miterlimit="1.45" shape-rendering="geometricPrecision" transform="matrix(1,0,0,1,-5,15)" stroke-linecap="butt">
      <text x="202.2536" xml:space="preserve" y="606.3119" clip-path="url(#clipPath2)" stroke="none">Inform about zone</text>
      <text x="197.1896" xml:space="preserve" y="622.656" clip-path="url(#clipPath2)" stroke="none">Ask to return vehicle</text>
      <text x="203.0396" xml:space="preserve" y="639.0001" clip-path="url(#clipPath2)" stroke="none">to nearest parking</text>
      <rect x="145" y="583" clip-path="url(#clipPath2)" fill="none" width="220" rx="4" ry="4" height="70" stroke="rgb(204,102,0)"/>
    </g>
    <g fill="rgb(255,245,204)" text-rendering="geometricPrecision" shape-rendering="geometricPrecision" transform="matrix(1,0,0,1,-5,15)" stroke="rgb(255,245,204)">
      <path d="M200 719 L310.0001 684 L420.0001 719 L310.0001 754 Z" fill-rule="evenodd" clip-path="url(#clipPath2)" stroke="none"/>
    </g>
    <g text-rendering="geometricPrecision" stroke-miterlimit="1.45" shape-rendering="geometricPrecision" transform="matrix(1,0,0,1,-5,15)" stroke-linecap="butt">
      <text x="253.1976" xml:space="preserve" y="723.656" clip-path="url(#clipPath2)" stroke="none">Customer returned?</text>
      <path fill="none" d="M200 719 L310.0001 684 L420.0001 719 L310.0001 754 Z" clip-path="url(#clipPath2)" fill-rule="evenodd" stroke="rgb(204,153,0)"/>
    </g>
    <g fill="rgb(221,255,221)" text-rendering="geometricPrecision" shape-rendering="geometricPrecision" transform="matrix(1,0,0,1,-5,15)" stroke="rgb(221,255,221)">
      <rect x="75" y="785" clip-path="url(#clipPath2)" width="220" rx="4" ry="4" height="60" stroke="none"/>
    </g>
    <g text-rendering="geometricPrecision" stroke-miterlimit="1.45" shape-rendering="geometricPrecision" transform="matrix(1,0,0,1,-5,15)" stroke-linecap="butt">
      <text x="145.0157" xml:space="preserve" y="811.4839" clip-path="url(#clipPath2)" stroke="none">CRM: re-check</text>
      <text x="136.2076" xml:space="preserve" y="827.8281" clip-path="url(#clipPath2)" stroke="none">location after 10s</text>
      <rect x="75" y="785" clip-path="url(#clipPath2)" fill="none" width="220" rx="4" ry="4" height="60" stroke="rgb(51,102,51)"/>
    </g>
    <g fill="rgb(255,245,204)" text-rendering="geometricPrecision" shape-rendering="geometricPrecision" transform="matrix(1,0,0,1,-5,15)" stroke="rgb(255,245,204)">
      <path d="M20 910.9999 L130 875.9999 L240 910.9999 L130 945.9999 Z" fill-rule="evenodd" clip-path="url(#clipPath2)" stroke="none"/>
    </g>
    <g text-rendering="geometricPrecision" stroke-miterlimit="1.45" shape-rendering="geometricPrecision" transform="matrix(1,0,0,1,-5,15)" stroke-linecap="butt">
      <text x="74.0496" xml:space="preserve" y="915.656" clip-path="url(#clipPath2)" stroke="none">Confirmed allowed?</text>
      <path fill="none" d="M20 910.9999 L130 875.9999 L240 910.9999 L130 945.9999 Z" clip-path="url(#clipPath2)" fill-rule="evenodd" stroke="rgb(204,153,0)"/>
    </g>
    <g fill="rgb(255,238,204)" text-rendering="geometricPrecision" shape-rendering="geometricPrecision" transform="matrix(1,0,0,1,-5,15)" stroke="rgb(255,238,204)">
      <rect x="325" y="785" clip-path="url(#clipPath2)" width="220" rx="4" ry="4" height="60" stroke="none"/>
    </g>
    <g text-rendering="geometricPrecision" stroke-miterlimit="1.45" shape-rendering="geometricPrecision" transform="matrix(1,0,0,1,-5,15)" stroke-linecap="butt">
      <text x="377.5736" xml:space="preserve" y="811.4839" clip-path="url(#clipPath2)" stroke="none">Transfer to operator</text>
      <text x="389.7657" xml:space="preserve" y="827.8281" clip-path="url(#clipPath2)" stroke="none">with full context</text>
      <rect x="325" y="785" clip-path="url(#clipPath2)" fill="none" width="220" rx="4" ry="4" height="60" stroke="rgb(204,102,0)"/>
    </g>
    <g fill="rgb(255,208,170)" text-rendering="geometricPrecision" shape-rendering="geometricPrecision" transform="matrix(1,0,0,1,-5,15)" stroke="rgb(255,208,170)">
      <ellipse rx="110" ry="25" clip-path="url(#clipPath2)" cx="435" cy="911" stroke="none"/>
    </g>
    <g text-rendering="geometricPrecision" stroke-miterlimit="1.45" shape-rendering="geometricPrecision" transform="matrix(1,0,0,1,-5,15)" stroke-linecap="butt">
      <text x="378.1316" xml:space="preserve" y="915.656" clip-path="url(#clipPath2)" stroke="none">Operator connected</text>
      <ellipse clip-path="url(#clipPath2)" fill="none" rx="110" cx="435" ry="25" cy="911" stroke="rgb(204,102,0)" stroke-width="2"/>
      <path fill="none" d="M330.5 50 L330.5 61.9609" clip-path="url(#clipPath2)" stroke="rgb(85,85,85)"/>
      <path fill="rgb(85,85,85)" d="M330.5 69.9609 L335.5 57.9609 L330.5 60.9609 L325.5 57.9609 Z" clip-path="url(#clipPath2)" stroke="none"/>
      <path fill="none" d="M330.5 120 L330.5 131.9609" clip-path="url(#clipPath2)" stroke="rgb(85,85,85)"/>
      <path fill="rgb(85,85,85)" d="M330.5 139.9609 L335.5 127.9609 L330.5 130.9609 L325.5 127.9609 Z" clip-path="url(#clipPath2)" stroke="none"/>
      <path fill="none" d="M330.5 190 L330.5 202" clip-path="url(#clipPath2)" stroke="rgb(85,85,85)"/>
      <path fill="rgb(85,85,85)" d="M330.5 210 L335.5 198 L330.5 201 L325.5 198 Z" clip-path="url(#clipPath2)" stroke="none"/>
      <path fill="none" d="M380.5 262.5161 L380.5 302.9527" clip-path="url(#clipPath2)" stroke="rgb(85,85,85)"/>
      <path fill="rgb(85,85,85)" d="M380.5 310.9527 L385.5 298.9527 L380.5 301.9527 L375.5 298.9527 Z" clip-path="url(#clipPath2)" stroke="none"/>
      <text x="384.5" xml:space="preserve" font-size="10px" y="299.38" clip-path="url(#clipPath2)" stroke="none">no</text>
      <path fill="none" d="M280.5 262.5312 L280.5 295.5 L255 295.5 L255 393.974" clip-path="url(#clipPath2)" stroke="rgb(85,85,85)"/>
      <path fill="rgb(85,85,85)" d="M255 401.974 L260 389.974 L255 392.974 L250 389.974 Z" clip-path="url(#clipPath2)" stroke="none"/>
      <text x="259" xml:space="preserve" font-size="10px" y="348.0675" clip-path="url(#clipPath2)" stroke="none">yes</text>
      <path fill="none" d="M380.5 371 L380.5 386.5 L355 386.5 L355 393.9697" clip-path="url(#clipPath2)" stroke="rgb(85,85,85)"/>
      <path fill="rgb(85,85,85)" d="M355 401.9697 L360 389.9697 L355 392.9697 L350 389.9697 Z" clip-path="url(#clipPath2)" stroke="none"/>
      <path fill="none" d="M305 462 L305 473.9609" clip-path="url(#clipPath2)" stroke="rgb(85,85,85)"/>
      <path fill="rgb(85,85,85)" d="M305 481.9609 L310 469.9609 L305 472.9609 L300 469.9609 Z" clip-path="url(#clipPath2)" stroke="none"/>
      <path fill="none" d="M355 534.501 L355 567.5 L560.5 567.5 L560.5 968.95" clip-path="url(#clipPath2)" stroke="rgb(51,153,51)"/>
      <path fill="rgb(51,153,51)" d="M560.5 976.95 L565.5 964.95 L560.5 967.95 L555.5 964.95 Z" clip-path="url(#clipPath2)" stroke="none"/>
      <text x="564.5" xml:space="preserve" font-size="10px" y="771.5675" clip-path="url(#clipPath2)" stroke="none">Allowed zone</text>
      <path fill="none" d="M510.5 1027 L510.5 1038.9609" clip-path="url(#clipPath2)" stroke="rgb(85,85,85)"/>
      <path fill="rgb(85,85,85)" d="M510.5 1046.9609 L515.5 1034.9609 L510.5 1037.9609 L505.5 1034.9609 Z" clip-path="url(#clipPath2)" stroke="none"/>
      <path fill="none" d="M510.5 1097 L510.5 1109" clip-path="url(#clipPath2)" stroke="rgb(51,153,51)"/>
      <path fill="rgb(51,153,51)" d="M510.5 1117 L515.5 1105 L510.5 1108 L505.5 1105 Z" clip-path="url(#clipPath2)" stroke="none"/>
      <path fill="none" d="M255 534.5312 L255 574.9526" clip-path="url(#clipPath2)" stroke="rgb(204,0,0)"/>
      <path fill="rgb(204,0,0)" d="M255 582.9526 L260 570.9526 L255 573.9526 L250 570.9526 Z" clip-path="url(#clipPath2)" stroke="none"/>
      <text x="259" xml:space="preserve" font-size="10px" y="571.38" clip-path="url(#clipPath2)" stroke="none">Red zone</text>
      <path fill="none" d="M310 653 L310 676" clip-path="url(#clipPath2)" stroke="rgb(85,85,85)"/>
      <path fill="rgb(85,85,85)" d="M310 684 L315 672 L310 675 L305 672 Z" clip-path="url(#clipPath2)" stroke="none"/>
      <path fill="none" d="M255 736.5312 L255 769.5 L185 769.5 L185 776.9697" clip-path="url(#clipPath2)" stroke="rgb(85,85,85)"/>
      <path fill="rgb(85,85,85)" d="M185 784.9697 L190 772.9697 L185 775.9697 L180 772.9697 Z" clip-path="url(#clipPath2)" stroke="none"/>
      <text x="212.235" xml:space="preserve" font-size="10px" y="784.19" clip-path="url(#clipPath2)" stroke="none">yes</text>
      <path fill="none" d="M185 845 L185 885.4839" clip-path="url(#clipPath2)" stroke="rgb(85,85,85)"/>
      <path fill="rgb(85,85,85)" d="M185 893.4839 L190 881.4839 L185 884.4839 L180 881.4839 Z" clip-path="url(#clipPath2)" stroke="none"/>
      <path fill="none" d="M130 946 L130 961.5 L460.5 961.5 L460.5 968.9697" clip-path="url(#clipPath2)" stroke="rgb(51,153,51)"/>
      <path fill="rgb(51,153,51)" d="M460.5 976.9697 L465.5 964.9697 L460.5 967.9697 L455.5 964.9697 Z" clip-path="url(#clipPath2)" stroke="none"/>
      <text x="287.485" xml:space="preserve" font-size="10px" y="976.19" clip-path="url(#clipPath2)" stroke="none">yes</text>
      <path fill="none" stroke-dasharray="6,2" d="M75 893.4688 L75 860.5 L59.5 860.5 L59.5 668.5 L200 668.5 L200 661" clip-path="url(#clipPath2)" stroke="rgb(204,0,0)"/>
      <path fill="rgb(204,0,0)" stroke-dasharray="6,2" d="M200 653 L195 665 L200 662 L205 665 Z" clip-path="url(#clipPath2)" stroke="none"/>
      <text x="63.5" xml:space="preserve" font-size="10px" y="768.38" clip-path="url(#clipPath2)" stroke="none">still red</text>
      <path fill="none" d="M365 736.501 L365 769.5 L435 769.5 L435 776.9697" clip-path="url(#clipPath2)" stroke="rgb(204,102,0)"/>
      <path fill="rgb(204,102,0)" d="M435 784.9697 L440 772.9697 L435 775.9697 L430 772.9697 Z" clip-path="url(#clipPath2)" stroke="none"/>
      <text x="360.675" xml:space="preserve" font-size="10px" y="784.19" clip-path="url(#clipPath2)" stroke="none">refuses / unclear</text>
      <path fill="none" d="M435 845 L435 878" clip-path="url(#clipPath2)" stroke="rgb(204,102,0)"/>
      <path fill="rgb(204,102,0)" d="M435 886 L440 874 L435 877 L430 874 Z" clip-path="url(#clipPath2)" stroke="none"/>
    </g>
  </g>
</svg>
