<?xml version="1.0" encoding="UTF-8"?><svg xmlns="http://www.w3.org/2000/svg" xmlns:xlink="http://www.w3.org/1999/xlink" fill-opacity="1" color-rendering="auto" color-interpolation="auto" text-rendering="auto" stroke="black" stroke-linecap="square" width="566" stroke-miterlimit="10" shape-rendering="auto" stroke-opacity="1" fill="black" stroke-dasharray="none" font-weight="normal" stroke-width="1" height="1045" font-family="'Dialog'" font-style="normal" stroke-linejoin="miter" font-size="12px" stroke-dashoffset="0" image-rendering="auto">
  <!--Generated by ySVG 2.6-->
  <defs id="genericDefs"/>
  <g>
    <defs id="defs1">
      <clipPath clipPathUnits="userSpaceOnUse" id="clipPath1">
        <path d="M0 0 L566 0 L566 1045 L0 1045 L0 0 Z"/>
      </clipPath>
      <clipPath clipPathUnits="userSpaceOnUse" id="clipPath2">
        <path d="M5 -15 L571 -15 L571 1030 L5 1030 L5 -15 Z"/>
      </clipPath>
    </defs>
    <g fill="white" text-rendering="geometricPrecision" shape-rendering="geometricPrecision" transform="translate(-5,15)" stroke="white">
      <rect x="5" width="566" height="1045" y="-15" clip-path="url(#clipPath2)" stroke="none"/>
    </g>
    <g fill="rgb(204,255,204)" text-rendering="geometricPrecision" shape-rendering="geometricPrecision" transform="matrix(1,0,0,1,-5,15)" stroke="rgb(204,255,204)">
      <ellipse rx="100" ry="25" clip-path="url(#clipPath2)" cx="270.5" cy="25" stroke="none"/>
    </g>
    <g text-rendering="geometricPrecision" stroke-miterlimit="1.45" shape-rendering="geometricPrecision" transform="matrix(1,0,0,1,-5,15)" stroke-linecap="butt">
      <text x="232.7897" xml:space="preserve" y="29.656" clip-path="url(#clipPath2)" stroke="none">Incoming call</text>
      <ellipse clip-path="url(#clipPath2)" fill="none" rx="100" cx="270.5" ry="25" cy="25" stroke="rgb(51,153,51)" stroke-width="2"/>
    </g>
    <g fill="rgb(221,238,255)" text-rendering="geometricPrecision" shape-rendering="geometricPrecision" transform="matrix(1,0,0,1,-5,15)" stroke="rgb(221,238,255)">
      <rect x="170.5" y="70" clip-path="url(#clipPath2)" width="200" rx="4" ry="4" height="50" stroke="none"/>
    </g>
    <g text-rendering="geometricPrecision" stroke-miterlimit="1.45" shape-rendering="geometricPrecision" transform="matrix(1,0,0,1,-5,15)" stroke-linecap="butt">
      <text x="235.1957" xml:space="preserve" y="99.656" clip-path="url(#clipPath2)" stroke="none">Bot greeting</text>
      <rect x="170.5" y="70" clip-path="url(#clipPath2)" fill="none" width="200" rx="4" ry="4" height="50" stroke="rgb(51,102,204)"/>
    </g>
    <g fill="rgb(221,255,221)" text-rendering="geometricPrecision" shape-rendering="geometricPrecision" transform="matrix(1,0,0,1,-5,15)" stroke="rgb(221,255,221)">
      <rect x="170.5" y="140" clip-path="url(#clipPath2)" width="200" rx="4" ry="4" height="60" stroke="none"/>
    </g>
    <g text-rendering="geometricPrecision" stroke-miterlimit="1.45" shape-rendering="geometricPrecision" transform="matrix(1,0,0,1,-5,15)" stroke-linecap="butt">
      <text x="213.7816" xml:space="preserve" y="166.484" clip-path="url(#clipPath2)" stroke="none">Ask: vehicle number</text>
      <text x="213.0616" xml:space="preserve" y="182.8281" clip-path="url(#clipPath2)" stroke="none">CRM: find trip + type</text>
      <rect x="170.5" y="140" clip-path="url(#clipPath2)" fill="none" width="200" rx="4" ry="4" height="60" stroke="rgb(51,102,51)"/>
    </g>
    <g fill="rgb(255,245,204)" text-rendering="geometricPrecision" shape-rendering="geometricPrecision" transform="matrix(1,0,0,1,-5,15)" stroke="rgb(255,245,204)">
      <path d="M170.5 254.9999 L270.5 220 L370.5 254.9999 L270.5 289.9999 Z" fill-rule="evenodd" clip-path="url(#clipPath2)" stroke="none"/>
    </g>
    <g text-rendering="geometricPrecision" stroke-miterlimit="1.45" shape-rendering="geometricPrecision" transform="matrix(1,0,0,1,-5,15)" stroke-linecap="butt">
      <text x="233.9837" xml:space="preserve" y="259.656" clip-path="url(#clipPath2)" stroke="none">Vehicle type?</text>
      <path fill="none" d="M170.5 254.9999 L270.5 220 L370.5 254.9999 L270.5 289.9999 Z" clip-path="url(#clipPath2)" fill-rule="evenodd" stroke="rgb(204,153,0)"/>
    </g>
    <g fill="rgb(221,238,255)" text-rendering="geometricPrecision" shape-rendering="geometricPrecision" transform="matrix(1,0,0,1,-5,15)" stroke="rgb(221,238,255)">
      <rect x="35.5" y="321" clip-path="url(#clipPath2)" width="220" rx="4" ry="4" height="70" stroke="none"/>
    </g>
    <g text-rendering="geometricPrecision" stroke-miterlimit="1.45" font-size="11px" shape-rendering="geometricPrecision" transform="matrix(1,0,0,1,-5,15)" stroke-linecap="butt">
      <text x="118.5777" xml:space="preserve" y="345.2861" clip-path="url(#clipPath2)" stroke="none">App steps:</text>
      <text x="109.6842" xml:space="preserve" y="360.268" clip-path="url(#clipPath2)" stroke="none">1. Restart app</text>
      <text x="85.4459" xml:space="preserve" y="375.2498" clip-path="url(#clipPath2)" stroke="none">2. Check GPS + internet</text>
      <rect x="35.5" y="321" clip-path="url(#clipPath2)" fill="none" width="220" rx="4" ry="4" height="70" stroke="rgb(51,102,204)"/>
    </g>
    <g fill="rgb(221,238,255)" text-rendering="geometricPrecision" shape-rendering="geometricPrecision" transform="matrix(1,0,0,1,-5,15)" stroke="rgb(221,238,255)">
      <rect x="285.5" y="321" clip-path="url(#clipPath2)" width="220" rx="4" ry="4" height="70" stroke="none"/>
    </g>
    <g text-rendering="geometricPrecision" stroke-miterlimit="1.45" font-size="11px" shape-rendering="geometricPrecision" transform="matrix(1,0,0,1,-5,15)" stroke-linecap="butt">
      <text x="368.5777" xml:space="preserve" y="345.2861" clip-path="url(#clipPath2)" stroke="none">App steps:</text>
      <text x="359.6842" xml:space="preserve" y="360.268" clip-path="url(#clipPath2)" stroke="none">1. Restart app</text>
      <text x="335.4459" xml:space="preserve" y="375.2498" clip-path="url(#clipPath2)" stroke="none">2. Check GPS + internet</text>
      <rect x="285.5" y="321" clip-path="url(#clipPath2)" fill="none" width="220" rx="4" ry="4" height="70" stroke="rgb(51,102,204)"/>
    </g>
    <g fill="rgb(221,255,221)" text-rendering="geometricPrecision" shape-rendering="geometricPrecision" transform="matrix(1,0,0,1,-5,15)" stroke="rgb(221,255,221)">
      <rect x="95.5" y="422" clip-path="url(#clipPath2)" width="200" rx="4" ry="4" height="60" stroke="none"/>
    </g>
    <g text-rendering="geometricPrecision" stroke-miterlimit="1.45" shape-rendering="geometricPrecision" transform="matrix(1,0,0,1,-5,15)" stroke-linecap="butt">
      <text x="138.2416" xml:space="preserve" y="448.484" clip-path="url(#clipPath2)" stroke="none">CRM: remote restart</text>
      <text x="175.9999" xml:space="preserve" y="464.8281" clip-path="url(#clipPath2)" stroke="none">vehicle</text>
      <rect x="95.5" y="422" clip-path="url(#clipPath2)" fill="none" width="200" rx="4" ry="4" height="60" stroke="rgb(51,102,51)"/>
    </g>
    <g fill="rgb(255,245,204)" text-rendering="geometricPrecision" shape-rendering="geometricPrecision" transform="matrix(1,0,0,1,-5,15)" stroke="rgb(255,245,204)">
      <path d="M95.5 536.9999 L195.5 501.9999 L295.4999 536.9999 L195.5 571.9999 Z" fill-rule="evenodd" clip-path="url(#clipPath2)" stroke="none"/>
    </g>
    <g text-rendering="geometricPrecision" stroke-miterlimit="1.45" shape-rendering="geometricPrecision" transform="matrix(1,0,0,1,-5,15)" stroke-linecap="butt">
      <text x="156.9917" xml:space="preserve" y="541.656" clip-path="url(#clipPath2)" stroke="none">Lock opened?</text>
      <path fill="none" d="M95.5 536.9999 L195.5 501.9999 L295.4999 536.9999 L195.5 571.9999 Z" clip-path="url(#clipPath2)" fill-rule="evenodd" stroke="rgb(204,153,0)"/>
    </g>
    <g fill="rgb(221,238,255)" text-rendering="geometricPrecision" shape-rendering="geometricPrecision" transform="matrix(1,0,0,1,-5,15)" stroke="rgb(221,238,255)">
      <rect x="20" y="820" clip-path="url(#clipPath2)" width="200" rx="4" ry="4" height="50" stroke="none"/>
    </g>
    <g text-rendering="geometricPrecision" stroke-miterlimit="1.45" shape-rendering="geometricPrecision" transform="matrix(1,0,0,1,-5,15)" stroke-linecap="butt">
      <text x="61.5236" xml:space="preserve" y="849.656" clip-path="url(#clipPath2)" stroke="none">Confirm to customer</text>
      <rect x="20" y="820" clip-path="url(#clipPath2)" fill="none" width="200" rx="4" ry="4" height="50" stroke="rgb(51,102,204)"/>
    </g>
    <g fill="rgb(153,255,153)" text-rendering="geometricPrecision" shape-rendering="geometricPrecision" transform="matrix(1,0,0,1,-5,15)" stroke="rgb(153,255,153)">
      <ellipse rx="100" ry="25" clip-path="url(#clipPath2)" cx="120" cy="920" stroke="none"/>
    </g>
    <g text-rendering="geometricPrecision" stroke-miterlimit="1.45" shape-rendering="geometricPrecision" transform="matrix(1,0,0,1,-5,15)" stroke-linecap="butt">
      <text x="90.3298" xml:space="preserve" y="924.656" clip-path="url(#clipPath2)" stroke="none">Call ended</text>
      <ellipse clip-path="url(#clipPath2)" fill="none" rx="100" cx="120" ry="25" cy="920" stroke="rgb(0,102,0)" stroke-width="2"/>
    </g>
    <g fill="rgb(255,238,204)" text-rendering="geometricPrecision" shape-rendering="geometricPrecision" transform="matrix(1,0,0,1,-5,15)" stroke="rgb(255,238,204)">
      <rect x="85.5" y="603" clip-path="url(#clipPath2)" width="220" rx="4" ry="4" height="80" stroke="none"/>
    </g>
    <g text-rendering="geometricPrecision" stroke-miterlimit="1.45" font-size="11px" shape-rendering="geometricPrecision" transform="matrix(1,0,0,1,-5,15)" stroke-linecap="butt">
      <text x="132.9049" xml:space="preserve" y="632.2861" clip-path="url(#clipPath2)" stroke="none">Mechanical instructions:</text>
      <text x="123.4175" xml:space="preserve" y="647.2679" clip-path="url(#clipPath2)" stroke="none">Check wheel/spoke position</text>
      <text x="122.191" xml:space="preserve" y="662.2499" clip-path="url(#clipPath2)" stroke="none">Adjust lock lever up or down</text>
      <rect x="85.5" y="603" clip-path="url(#clipPath2)" fill="none" width="220" rx="4" ry="4" height="80" stroke="rgb(204,102,0)"/>
    </g>
    <g fill="rgb(221,255,221)" text-rendering="geometricPrecision" shape-rendering="geometricPrecision" transform="matrix(1,0,0,1,-5,15)" stroke="rgb(221,255,221)">
      <rect x="335.5" y="608" clip-path="url(#clipPath2)" width="220" rx="4" ry="4" height="70" stroke="none"/>
    </g>
    <g text-rendering="geometricPrecision" stroke-miterlimit="1.45" font-size="11px" shape-rendering="geometricPrecision" transform="matrix(1,0,0,1,-5,15)" stroke-linecap="butt">
      <text x="392.6289" xml:space="preserve" y="632.2861" clip-path="url(#clipPath2)" stroke="none">CRM: manual unlock</text>
      <text x="404.7783" xml:space="preserve" y="647.2679" clip-path="url(#clipPath2)" stroke="none">Verify customer</text>
      <text x="416.5647" xml:space="preserve" y="662.2499" clip-path="url(#clipPath2)" stroke="none">started trip</text>
      <rect x="335.5" y="608" clip-path="url(#clipPath2)" fill="none" width="220" rx="4" ry="4" height="70" stroke="rgb(51,102,51)"/>
    </g>
    <g fill="rgb(255,245,204)" text-rendering="geometricPrecision" shape-rendering="geometricPrecision" transform="matrix(1,0,0,1,-5,15)" stroke="rgb(255,245,204)">
      <path d="M210 749.0001 L310 714.0001 L410 749.0001 L310 784.0001 Z" fill-rule="evenodd" clip-path="url(#clipPath2)" stroke="none"/>
    </g>
    <g text-rendering="geometricPrecision" stroke-miterlimit="1.45" shape-rendering="geometricPrecision" transform="matrix(1,0,0,1,-5,15)" stroke-linecap="butt">
      <text x="282.1058" xml:space="preserve" y="753.656" clip-path="url(#clipPath2)" stroke="none">Resolved?</text>
      <path fill="none" d="M210 749.0001 L310 714.0001 L410 749.0001 L310 784.0001 Z" clip-path="url(#clipPath2)" fill-rule="evenodd" stroke="rgb(204,153,0)"/>
    </g>
    <g fill="rgb(221,255,221)" text-rendering="geometricPrecision" shape-rendering="geometricPrecision" transform="matrix(1,0,0,1,-5,15)" stroke="rgb(221,255,221)">
      <rect x="250" y="815" clip-path="url(#clipPath2)" width="220" rx="4" ry="4" height="60" stroke="none"/>
    </g>
    <g text-rendering="geometricPrecision" stroke-miterlimit="1.45" shape-rendering="geometricPrecision" transform="matrix(1,0,0,1,-5,15)" stroke-linecap="butt">
      <text x="309.2996" xml:space="preserve" y="841.4839" clip-path="url(#clipPath2)" stroke="none">CRM: create ticket</text>
      <text x="272.7174" xml:space="preserve" y="857.8281" clip-path="url(#clipPath2)" stroke="none">Change vehicle status to repair</text>
      <rect x="250" y="815" clip-path="url(#clipPath2)" fill="none" width="220" rx="4" ry="4" height="60" stroke="rgb(51,102,51)"/>
    </g>
    <g fill="rgb(255,238,204)" text-rendering="geometricPrecision" shape-rendering="geometricPrecision" transform="matrix(1,0,0,1,-5,15)" stroke="rgb(255,238,204)">
      <rect x="250" y="895" clip-path="url(#clipPath2)" width="220" rx="4" ry="4" height="50" stroke="none"/>
    </g>
    <g text-rendering="geometricPrecision" stroke-miterlimit="1.45" shape-rendering="geometricPrecision" transform="matrix(1,0,0,1,-5,15)" stroke-linecap="butt">
      <text x="302.5736" xml:space="preserve" y="924.656" clip-path="url(#clipPath2)" stroke="none">Transfer to operator</text>
      <rect x="250" y="895" clip-path="url(#clipPath2)" fill="none" width="220" rx="4" ry="4" height="50" stroke="rgb(204,102,0)"/>
    </g>
    <g fill="rgb(255,208,170)" text-rendering="geometricPrecision" shape-rendering="geometricPrecision" transform="matrix(1,0,0,1,-5,15)" stroke="rgb(255,208,170)">
      <ellipse rx="110" ry="25" clip-path="url(#clipPath2)" cx="360" cy="990" stroke="none"/>
    </g>
    <g text-rendering="geometricPrecision" stroke-miterlimit="1.45" shape-rendering="geometricPrecision" transform="matrix(1,0,0,1,-5,15)" stroke-linecap="butt">
      <text x="303.1316" xml:space="preserve" y="994.656" clip-path="url(#clipPath2)" stroke="none">Operator connected</text>
      <ellipse clip-path="url(#clipPath2)" fill="none" rx="110" cx="360" ry="25" cy="990" stroke="rgb(204,102,0)" stroke-width="2"/>
      <path fill="none" d="M270.5 50 L270.5 61.9609" clip-path="url(#clipPath2)" stroke="rgb(85,85,85)"/>
      <path fill="rgb(85,85,85)" d="M270.5 69.9609 L275.5 57.9609 L270.5 60.9609 L265.5 57.9609 Z" clip-path="url(#clipPath2)" stroke="none"/>
      <path fill="none" d="M270.5 120 L270.5 131.9609" clip-path="url(#clipPath2)" stroke="rgb(85,85,85)"/>
      <path fill="rgb(85,85,85)" d="M270.5 139.9609 L275.5 127.9609 L270.5 130.9609 L265.5 127.9609 Z" clip-path="url(#clipPath2)" stroke="none"/>
      <path fill="none" d="M270.5 200 L270.5 212" clip-path="url(#clipPath2)" stroke="rgb(85,85,85)"/>
      <path fill="rgb(85,85,85)" d="M270.5 220 L275.5 208 L270.5 211 L265.5 208 Z" clip-path="url(#clipPath2)" stroke="none"/>
      <path fill="none" d="M220.5 272.5312 L220.5 305.5 L145.5 305.5 L145.5 312.9697" clip-path="url(#clipPath2)" stroke="rgb(85,85,85)"/>
      <path fill="rgb(85,85,85)" d="M145.5 320.9697 L150.5 308.9697 L145.5 311.9697 L140.5 308.9697 Z" clip-path="url(#clipPath2)" stroke="none"/>
      <text x="167" xml:space="preserve" font-size="10px" y="320.19" clip-path="url(#clipPath2)" stroke="none">Bicycle</text>
      <path fill="none" d="M320.5 272.501 L320.5 305.5 L395.5 305.5 L395.5 312.9697" clip-path="url(#clipPath2)" stroke="rgb(85,85,85)"/>
      <path fill="rgb(85,85,85)" d="M395.5 320.9697 L400.5 308.9697 L395.5 311.9697 L390.5 308.9697 Z" clip-path="url(#clipPath2)" stroke="none"/>
      <text x="340.115" xml:space="preserve" font-size="10px" y="320.19" clip-path="url(#clipPath2)" stroke="none">Scooter</text>
      <path fill="none" d="M145.5 391 L145.5 413.9697" clip-path="url(#clipPath2)" stroke="rgb(85,85,85)"/>
      <path fill="rgb(85,85,85)" d="M145.5 421.9697 L150.5 409.9697 L145.5 412.9697 L140.5 409.9697 Z" clip-path="url(#clipPath2)" stroke="none"/>
      <path fill="none" d="M395.5 391 L395.5 406.5 L245.5 406.5 L245.5 413.9697" clip-path="url(#clipPath2)" stroke="rgb(85,85,85)"/>
      <path fill="rgb(85,85,85)" d="M245.5 421.9697 L250.5 409.9697 L245.5 412.9697 L240.5 409.9697 Z" clip-path="url(#clipPath2)" stroke="none"/>
      <path fill="none" d="M195.5 482 L195.5 493.9609" clip-path="url(#clipPath2)" stroke="rgb(85,85,85)"/>
      <path fill="rgb(85,85,85)" d="M195.5 501.9609 L200.5 489.9609 L195.5 492.9609 L190.5 489.9609 Z" clip-path="url(#clipPath2)" stroke="none"/>
      <path fill="none" d="M128.8333 548.6942 L128.8333 587.5 L70 587.5 L70 811.9716" clip-path="url(#clipPath2)" stroke="rgb(51,153,51)"/>
      <path fill="rgb(51,153,51)" d="M70 819.9716 L75 807.9716 L70 810.9716 L65 807.9716 Z" clip-path="url(#clipPath2)" stroke="none"/>
      <text x="74" xml:space="preserve" font-size="10px" y="703.0675" clip-path="url(#clipPath2)" stroke="none">yes</text>
      <path fill="none" d="M120 870 L120 887" clip-path="url(#clipPath2)" stroke="rgb(51,153,51)"/>
      <path fill="rgb(51,153,51)" d="M120 895 L125 883 L120 886 L115 883 Z" clip-path="url(#clipPath2)" stroke="none"/>
      <path fill="none" d="M195.5 572 L195.5 594.9697" clip-path="url(#clipPath2)" stroke="rgb(204,102,0)"/>
      <path fill="rgb(204,102,0)" d="M195.5 602.9697 L200.5 590.9697 L195.5 593.9697 L190.5 590.9697 Z" clip-path="url(#clipPath2)" stroke="none"/>
      <text x="199.5" xml:space="preserve" font-size="10px" y="591.38" clip-path="url(#clipPath2)" stroke="none">no — Bicycle</text>
      <path fill="none" d="M262.1667 548.6942 L262.1667 587.5 L445.5 587.5 L445.5 599.96" clip-path="url(#clipPath2)" stroke="rgb(204,102,0)"/>
      <path fill="rgb(204,102,0)" d="M445.5 607.96 L450.5 595.96 L445.5 598.96 L440.5 595.96 Z" clip-path="url(#clipPath2)" stroke="none"/>
      <text x="322.2334" xml:space="preserve" font-size="10px" y="602.19" clip-path="url(#clipPath2)" stroke="none">no — Scooter</text>
      <path fill="none" d="M195.5 683 L195.5 698.5 L260 698.5 L260 723.4688" clip-path="url(#clipPath2)" stroke="rgb(85,85,85)"/>
      <path fill="rgb(85,85,85)" d="M260 731.4688 L265 719.4688 L260 722.4688 L255 719.4688 Z" clip-path="url(#clipPath2)" stroke="none"/>
      <path fill="none" d="M445.5 678 L445.5 693.5 L360 693.5 L360 723.4941" clip-path="url(#clipPath2)" stroke="rgb(85,85,85)"/>
      <path fill="rgb(85,85,85)" d="M360 731.4941 L365 719.4941 L360 722.4941 L355 719.4941 Z" clip-path="url(#clipPath2)" stroke="none"/>
      <path fill="none" d="M260 766.5312 L260 799.5 L170 799.5 L170 811.96" clip-path="url(#clipPath2)" stroke="rgb(51,153,51)"/>
      <path fill="rgb(51,153,51)" d="M170 819.96 L175 807.96 L170 810.96 L165 807.96 Z" clip-path="url(#clipPath2)" stroke="none"/>
      <text x="207.235" xml:space="preserve" font-size="10px" y="814.19" clip-path="url(#clipPath2)" stroke="none">yes</text>
      <path fill="none" d="M360 766.5161 L360 806.9526" clip-path="url(#clipPath2)" stroke="rgb(204,0,0)"/>
      <path fill="rgb(204,0,0)" d="M360 814.9526 L365 802.9526 L360 805.9526 L355 802.9526 Z" clip-path="url(#clipPath2)" stroke="none"/>
      <text x="364" xml:space="preserve" font-size="10px" y="803.38" clip-path="url(#clipPath2)" stroke="none">no</text>
      <path fill="none" d="M360 875 L360 886.9609" clip-path="url(#clipPath2)" stroke="rgb(85,85,85)"/>
      <path fill="rgb(85,85,85)" d="M360 894.9609 L365 882.9609 L360 885.9609 L355 882.9609 Z" clip-path="url(#clipPath2)" stroke="none"/>
      <path fill="none" d="M360 945 L360 957" clip-path="url(#clipPath2)" stroke="rgb(204,102,0)"/>
      <path fill="rgb(204,102,0)" d="M360 965 L365 953 L360 956 L355 953 Z" clip-path="url(#clipPath2)" stroke="none"/>
    </g>
  </g>
</svg>
