<?xml version="1.0" encoding="UTF-8"?><svg xmlns="http://www.w3.org/2000/svg" xmlns:xlink="http://www.w3.org/1999/xlink" fill-opacity="1" color-rendering="auto" color-interpolation="auto" text-rendering="auto" stroke="black" stroke-linecap="square" width="460" stroke-miterlimit="10" shape-rendering="auto" stroke-opacity="1" fill="black" stroke-dasharray="none" font-weight="normal" stroke-width="1" height="661" font-family="'Dialog'" font-style="normal" stroke-linejoin="miter" font-size="12px" stroke-dashoffset="0" image-rendering="auto">
  <!--Generated by ySVG 2.6-->
  <defs id="genericDefs"/>
  <g>
    <defs id="defs1">
      <clipPath clipPathUnits="userSpaceOnUse" id="clipPath1">
        <path d="M0 0 L460 0 L460 661 L0 661 L0 0 Z"/>
      </clipPath>
      <clipPath clipPathUnits="userSpaceOnUse" id="clipPath2">
        <path d="M5 -15 L465 -15 L465 646 L5 646 L5 -15 Z"/>
      </clipPath>
    </defs>
    <g fill="white" text-rendering="geometricPrecision" shape-rendering="geometricPrecision" transform="translate(-5,15)" stroke="white">
      <rect x="5" width="460" height="661" y="-15" clip-path="url(#clipPath2)" stroke="none"/>
    </g>
    <g fill="rgb(204,255,204)" text-rendering="geometricPrecision" shape-rendering="geometricPrecision" transform="matrix(1,0,0,1,-5,15)" stroke="rgb(204,255,204)">
      <ellipse rx="100" ry="25" clip-path="url(#clipPath2)" cx="235" cy="25" stroke="none"/>
    </g>
    <g text-rendering="geometricPrecision" stroke-miterlimit="1.45" shape-rendering="geometricPrecision" transform="matrix(1,0,0,1,-5,15)" stroke-linecap="butt">
      <text x="197.2897" xml:space="preserve" y="29.656" clip-path="url(#clipPath2)" stroke="none">Incoming call</text>
      <ellipse clip-path="url(#clipPath2)" fill="none" rx="100" cx="235" ry="25" cy="25" stroke="rgb(51,153,51)" stroke-width="2"/>
    </g>
    <g fill="rgb(221,238,255)" text-rendering="geometricPrecision" shape-rendering="geometricPrecision" transform="matrix(1,0,0,1,-5,15)" stroke="rgb(221,238,255)">
      <rect x="135" y="70" clip-path="url(#clipPath2)" width="200" rx="4" ry="4" height="50" stroke="none"/>
    </g>
    <g text-rendering="geometricPrecision" stroke-miterlimit="1.45" shape-rendering="geometricPrecision" transform="matrix(1,0,0,1,-5,15)" stroke-linecap="butt">
      <text x="199.6957" xml:space="preserve" y="99.656" clip-path="url(#clipPath2)" stroke="none">Bot greeting</text>
      <rect x="135" y="70" clip-path="url(#clipPath2)" fill="none" width="200" rx="4" ry="4" height="50" stroke="rgb(51,102,204)"/>
    </g>
    <g fill="rgb(221,238,255)" text-rendering="geometricPrecision" shape-rendering="geometricPrecision" transform="matrix(1,0,0,1,-5,15)" stroke="rgb(221,238,255)">
      <rect x="135" y="140" clip-path="url(#clipPath2)" width="200" rx="4" ry="4" height="70" stroke="none"/>
    </g>
    <g text-rendering="geometricPrecision" stroke-miterlimit="1.45" shape-rendering="geometricPrecision" transform="matrix(1,0,0,1,-5,15)" stroke-linecap="butt">
      <text x="199.6178" xml:space="preserve" y="163.3119" clip-path="url(#clipPath2)" stroke="none">Instructions:</text>
      <text x="195.9277" xml:space="preserve" y="179.656" clip-path="url(#clipPath2)" stroke="none">1. Restart app</text>
      <text x="154.5274" xml:space="preserve" y="196.0002" clip-path="url(#clipPath2)" stroke="none">2. Check internet connection</text>
      <rect x="135" y="140" clip-path="url(#clipPath2)" fill="none" width="200" rx="4" ry="4" height="70" stroke="rgb(51,102,204)"/>
    </g>
    <g fill="rgb(255,245,204)" text-rendering="geometricPrecision" shape-rendering="geometricPrecision" transform="matrix(1,0,0,1,-5,15)" stroke="rgb(255,245,204)">
      <path d="M135 265.0001 L235 230.0001 L334.9999 265.0001 L235 300.0001 Z" fill-rule="evenodd" clip-path="url(#clipPath2)" stroke="none"/>
    </g>
    <g text-rendering="geometricPrecision" stroke-miterlimit="1.45" shape-rendering="geometricPrecision" transform="matrix(1,0,0,1,-5,15)" stroke-linecap="butt">
      <text x="212.2538" xml:space="preserve" y="269.656" clip-path="url(#clipPath2)" stroke="none">Helped?</text>
      <path fill="none" d="M135 265.0001 L235 230.0001 L334.9999 265.0001 L235 300.0001 Z" clip-path="url(#clipPath2)" fill-rule="evenodd" stroke="rgb(204,153,0)"/>
    </g>
    <g fill="rgb(153,255,153)" text-rendering="geometricPrecision" shape-rendering="geometricPrecision" transform="matrix(1,0,0,1,-5,15)" stroke="rgb(153,255,153)">
      <ellipse rx="100" ry="25" clip-path="url(#clipPath2)" cx="120" cy="366" stroke="none"/>
    </g>
    <g text-rendering="geometricPrecision" stroke-miterlimit="1.45" shape-rendering="geometricPrecision" transform="matrix(1,0,0,1,-5,15)" stroke-linecap="butt">
      <text x="90.3298" xml:space="preserve" y="370.656" clip-path="url(#clipPath2)" stroke="none">Call ended</text>
      <ellipse clip-path="url(#clipPath2)" fill="none" rx="100" cx="120" ry="25" cy="366" stroke="rgb(0,102,0)" stroke-width="2"/>
    </g>
    <g fill="rgb(221,238,255)" text-rendering="geometricPrecision" shape-rendering="geometricPrecision" transform="matrix(1,0,0,1,-5,15)" stroke="rgb(221,238,255)">
      <rect x="250" y="331" clip-path="url(#clipPath2)" width="200" rx="4" ry="4" height="70" stroke="none"/>
    </g>
    <g text-rendering="geometricPrecision" stroke-miterlimit="1.45" shape-rendering="geometricPrecision" transform="matrix(1,0,0,1,-5,15)" stroke-linecap="butt">
      <text x="297.4396" xml:space="preserve" y="354.3119" clip-path="url(#clipPath2)" stroke="none">Collect device info:</text>
      <text x="312.5177" xml:space="preserve" y="370.656" clip-path="url(#clipPath2)" stroke="none">Phone model</text>
      <text x="281.6175" xml:space="preserve" y="387.0002" clip-path="url(#clipPath2)" stroke="none">OS version · App version</text>
      <rect x="250" y="331" clip-path="url(#clipPath2)" fill="none" width="200" rx="4" ry="4" height="70" stroke="rgb(51,102,204)"/>
    </g>
    <g fill="rgb(221,255,221)" text-rendering="geometricPrecision" shape-rendering="geometricPrecision" transform="matrix(1,0,0,1,-5,15)" stroke="rgb(221,255,221)">
      <rect x="250" y="421" clip-path="url(#clipPath2)" width="200" rx="4" ry="4" height="60" stroke="none"/>
    </g>
    <g text-rendering="geometricPrecision" stroke-miterlimit="1.45" shape-rendering="geometricPrecision" transform="matrix(1,0,0,1,-5,15)" stroke-linecap="butt">
      <text x="299.2996" xml:space="preserve" y="447.484" clip-path="url(#clipPath2)" stroke="none">CRM: create ticket</text>
      <text x="298.2316" xml:space="preserve" y="463.8281" clip-path="url(#clipPath2)" stroke="none">with device details</text>
      <rect x="250" y="421" clip-path="url(#clipPath2)" fill="none" width="200" rx="4" ry="4" height="60" stroke="rgb(51,102,51)"/>
    </g>
    <g fill="rgb(255,238,204)" text-rendering="geometricPrecision" shape-rendering="geometricPrecision" transform="matrix(1,0,0,1,-5,15)" stroke="rgb(255,238,204)">
      <rect x="250" y="501" clip-path="url(#clipPath2)" width="200" rx="4" ry="4" height="60" stroke="none"/>
    </g>
    <g text-rendering="geometricPrecision" stroke-miterlimit="1.45" shape-rendering="geometricPrecision" transform="matrix(1,0,0,1,-5,15)" stroke-linecap="butt">
      <text x="292.5736" xml:space="preserve" y="527.4839" clip-path="url(#clipPath2)" stroke="none">Transfer to operator</text>
      <text x="284.0295" xml:space="preserve" y="543.8281" clip-path="url(#clipPath2)" stroke="none">for dev team escalation</text>
      <rect x="250" y="501" clip-path="url(#clipPath2)" fill="none" width="200" rx="4" ry="4" height="60" stroke="rgb(204,102,0)"/>
    </g>
    <g fill="rgb(255,208,170)" text-rendering="geometricPrecision" shape-rendering="geometricPrecision" transform="matrix(1,0,0,1,-5,15)" stroke="rgb(255,208,170)">
      <ellipse rx="100" ry="25" clip-path="url(#clipPath2)" cx="350" cy="606" stroke="none"/>
    </g>
    <g text-rendering="geometricPrecision" stroke-miterlimit="1.45" shape-rendering="geometricPrecision" transform="matrix(1,0,0,1,-5,15)" stroke-linecap="butt">
      <text x="293.1316" xml:space="preserve" y="610.656" clip-path="url(#clipPath2)" stroke="none">Operator connected</text>
      <ellipse clip-path="url(#clipPath2)" fill="none" rx="100" cx="350" ry="25" cy="606" stroke="rgb(204,102,0)" stroke-width="2"/>
      <path fill="none" d="M235 50 L235 61.9609" clip-path="url(#clipPath2)" stroke="rgb(85,85,85)"/>
      <path fill="rgb(85,85,85)" d="M235 69.9609 L240 57.9609 L235 60.9609 L230 57.9609 Z" clip-path="url(#clipPath2)" stroke="none"/>
      <path fill="none" d="M235 120 L235 131.9609" clip-path="url(#clipPath2)" stroke="rgb(85,85,85)"/>
      <path fill="rgb(85,85,85)" d="M235 139.9609 L240 127.9609 L235 130.9609 L230 127.9609 Z" clip-path="url(#clipPath2)" stroke="none"/>
      <path fill="none" d="M235 210 L235 222" clip-path="url(#clipPath2)" stroke="rgb(85,85,85)"/>
      <path fill="rgb(85,85,85)" d="M235 230 L240 218 L235 221 L230 218 Z" clip-path="url(#clipPath2)" stroke="none"/>
      <path fill="none" d="M185 282.5312 L185 315.5 L120 315.5 L120 333" clip-path="url(#clipPath2)" stroke="rgb(51,153,51)"/>
      <path fill="rgb(51,153,51)" d="M120 341 L125 329 L120 332 L115 329 Z" clip-path="url(#clipPath2)" stroke="none"/>
      <text x="144.735" xml:space="preserve" font-size="10px" y="330.19" clip-path="url(#clipPath2)" stroke="none">yes</text>
      <path fill="none" d="M285 282.501 L285 315.5 L350 315.5 L350 322.9697" clip-path="url(#clipPath2)" stroke="rgb(204,0,0)"/>
      <path fill="rgb(204,0,0)" d="M350 330.9697 L355 318.9697 L350 321.9697 L345 318.9697 Z" clip-path="url(#clipPath2)" stroke="none"/>
      <text x="311.385" xml:space="preserve" font-size="10px" y="330.19" clip-path="url(#clipPath2)" stroke="none">no</text>
      <path fill="none" d="M350 401 L350 412.9609" clip-path="url(#clipPath2)" stroke="rgb(85,85,85)"/>
      <path fill="rgb(85,85,85)" d="M350 420.9609 L355 408.9609 L350 411.9609 L345 408.9609 Z" clip-path="url(#clipPath2)" stroke="none"/>
      <path fill="none" d="M350 481 L350 492.9609" clip-path="url(#clipPath2)" stroke="rgb(85,85,85)"/>
      <path fill="rgb(85,85,85)" d="M350 500.9609 L355 488.9609 L350 491.9609 L345 488.9609 Z" clip-path="url(#clipPath2)" stroke="none"/>
      <path fill="none" d="M350 561 L350 573" clip-path="url(#clipPath2)" stroke="rgb(204,102,0)"/>
      <path fill="rgb(204,102,0)" d="M350 581 L355 569 L350 572 L345 569 Z" clip-path="url(#clipPath2)" stroke="none"/>
    </g>
  </g>
</svg>
