<?xml version="1.0" encoding="UTF-8"?><svg xmlns="http://www.w3.org/2000/svg" xmlns:xlink="http://www.w3.org/1999/xlink" fill-opacity="1" color-rendering="auto" color-interpolation="auto" text-rendering="auto" stroke="black" stroke-linecap="square" width="710" stroke-miterlimit="10" shape-rendering="auto" stroke-opacity="1" fill="black" stroke-dasharray="none" font-weight="normal" stroke-width="1" height="220" font-family="'Dialog'" font-style="normal" stroke-linejoin="miter" font-size="12px" stroke-dashoffset="0" image-rendering="auto">
  <!--Generated by ySVG 2.6-->
  <defs id="genericDefs"/>
  <g>
    <defs id="defs1">
      <clipPath clipPathUnits="userSpaceOnUse" id="clipPath1">
        <path d="M0 0 L710 0 L710 220 L0 220 L0 0 Z"/>
      </clipPath>
      <clipPath clipPathUnits="userSpaceOnUse" id="clipPath2">
        <path d="M35 35 L745 35 L745 255 L35 255 L35 35 Z"/>
      </clipPath>
    </defs>
    <g fill="white" text-rendering="geometricPrecision" shape-rendering="geometricPrecision" transform="translate(-35,-35)" stroke="white">
      <rect x="35" width="710" height="220" y="35" clip-path="url(#clipPath2)" stroke="none"/>
    </g>
    <g fill="rgb(232,245,233)" text-rendering="geometricPrecision" shape-rendering="geometricPrecision" transform="matrix(1,0,0,1,-35,-35)" stroke="rgb(232,245,233)">
      <rect x="50" y="50" clip-path="url(#clipPath2)" width="220" rx="4" ry="4" height="60" stroke="none"/>
    </g>
    <g stroke-linecap="butt" transform="matrix(1,0,0,1,-35,-35)" fill="rgb(27,94,32)" text-rendering="geometricPrecision" font-family="sans-serif" shape-rendering="geometricPrecision" stroke="rgb(27,94,32)" font-weight="bold" stroke-miterlimit="1.45">
      <text x="111.1642" xml:space="preserve" y="76.484" clip-path="url(#clipPath2)" stroke="none">&#129504; SMART INPUT</text>
      <text x="82.7554" xml:space="preserve" y="92.8281" clip-path="url(#clipPath2)" stroke="none">Clear Architecture + Logic</text>
    </g>
    <g stroke-linecap="butt" transform="matrix(1,0,0,1,-35,-35)" fill="rgb(76,175,80)" text-rendering="geometricPrecision" shape-rendering="geometricPrecision" stroke="rgb(76,175,80)" stroke-width="2" stroke-miterlimit="1.45">
      <rect x="50" y="50" clip-path="url(#clipPath2)" fill="none" width="220" rx="4" ry="4" height="60"/>
    </g>
    <g fill="rgb(243,229,245)" text-rendering="geometricPrecision" shape-rendering="geometricPrecision" transform="matrix(1,0,0,1,-35,-35)" stroke="rgb(243,229,245)">
      <ellipse rx="50" ry="25" clip-path="url(#clipPath2)" cx="390" cy="80" stroke="none"/>
    </g>
    <g stroke-linecap="butt" font-size="14px" transform="matrix(1,0,0,1,-35,-35)" fill="rgb(74,20,140)" text-rendering="geometricPrecision" font-family="sans-serif" shape-rendering="geometricPrecision" stroke="rgb(74,20,140)" font-weight="bold" stroke-miterlimit="1.45">
      <text x="364.9338" xml:space="preserve" y="85.432" clip-path="url(#clipPath2)" stroke="none">✖ 10 AI</text>
    </g>
    <g stroke-linecap="butt" transform="matrix(1,0,0,1,-35,-35)" fill="rgb(156,39,176)" text-rendering="geometricPrecision" shape-rendering="geometricPrecision" stroke="rgb(156,39,176)" stroke-width="2" stroke-miterlimit="1.45">
      <ellipse rx="50" fill="none" ry="25" clip-path="url(#clipPath2)" cx="390" cy="80"/>
    </g>
    <g fill="rgb(232,245,233)" text-rendering="geometricPrecision" shape-rendering="geometricPrecision" transform="matrix(1,0,0,1,-35,-35)" stroke="rgb(232,245,233)">
      <rect x="510" y="50" clip-path="url(#clipPath2)" width="220" rx="4" ry="4" height="60" stroke="none"/>
    </g>
    <g stroke-linecap="butt" transform="matrix(1,0,0,1,-35,-35)" fill="rgb(27,94,32)" text-rendering="geometricPrecision" font-family="sans-serif" shape-rendering="geometricPrecision" stroke="rgb(27,94,32)" font-weight="bold" stroke-miterlimit="1.45">
      <text x="590.2263" xml:space="preserve" y="76.484" clip-path="url(#clipPath2)" stroke="none">&#128640; RESULT</text>
      <text x="513.4993" xml:space="preserve" y="92.8281" clip-path="url(#clipPath2)" stroke="none">Scalable, Production-Ready Product</text>
    </g>
    <g stroke-linecap="butt" transform="matrix(1,0,0,1,-35,-35)" fill="rgb(76,175,80)" text-rendering="geometricPrecision" shape-rendering="geometricPrecision" stroke="rgb(76,175,80)" stroke-width="2" stroke-miterlimit="1.45">
      <rect x="510" y="50" clip-path="url(#clipPath2)" fill="none" width="220" rx="4" ry="4" height="60"/>
    </g>
    <g fill="rgb(255,235,238)" text-rendering="geometricPrecision" shape-rendering="geometricPrecision" transform="matrix(1,0,0,1,-35,-35)" stroke="rgb(255,235,238)">
      <rect x="50" y="180" clip-path="url(#clipPath2)" width="220" rx="4" ry="4" height="60" stroke="none"/>
    </g>
    <g stroke-linecap="butt" transform="matrix(1,0,0,1,-35,-35)" fill="rgb(198,40,40)" text-rendering="geometricPrecision" font-family="sans-serif" shape-rendering="geometricPrecision" stroke="rgb(198,40,40)" font-weight="bold" stroke-miterlimit="1.45">
      <text x="114.2482" xml:space="preserve" y="206.484" clip-path="url(#clipPath2)" stroke="none">&#127744; CHAOS INPUT</text>
      <text x="60.7773" xml:space="preserve" y="222.8281" clip-path="url(#clipPath2)" stroke="none">Confusion + Praying for a Miracle</text>
    </g>
    <g stroke-linecap="butt" transform="matrix(1,0,0,1,-35,-35)" fill="rgb(244,67,54)" text-rendering="geometricPrecision" shape-rendering="geometricPrecision" stroke="rgb(244,67,54)" stroke-width="2" stroke-miterlimit="1.45">
      <rect x="50" y="180" clip-path="url(#clipPath2)" fill="none" width="220" rx="4" ry="4" height="60"/>
    </g>
    <g fill="rgb(243,229,245)" text-rendering="geometricPrecision" shape-rendering="geometricPrecision" transform="matrix(1,0,0,1,-35,-35)" stroke="rgb(243,229,245)">
      <ellipse rx="50" ry="25" clip-path="url(#clipPath2)" cx="390" cy="210" stroke="none"/>
    </g>
    <g stroke-linecap="butt" font-size="14px" transform="matrix(1,0,0,1,-35,-35)" fill="rgb(74,20,140)" text-rendering="geometricPrecision" font-family="sans-serif" shape-rendering="geometricPrecision" stroke="rgb(74,20,140)" font-weight="bold" stroke-miterlimit="1.45">
      <text x="364.9338" xml:space="preserve" y="215.432" clip-path="url(#clipPath2)" stroke="none">✖ 10 AI</text>
    </g>
    <g stroke-linecap="butt" transform="matrix(1,0,0,1,-35,-35)" fill="rgb(156,39,176)" text-rendering="geometricPrecision" shape-rendering="geometricPrecision" stroke="rgb(156,39,176)" stroke-width="2" stroke-miterlimit="1.45">
      <ellipse rx="50" fill="none" ry="25" clip-path="url(#clipPath2)" cx="390" cy="210"/>
    </g>
    <g fill="rgb(255,235,238)" text-rendering="geometricPrecision" shape-rendering="geometricPrecision" transform="matrix(1,0,0,1,-35,-35)" stroke="rgb(255,235,238)">
      <rect x="510" y="180" clip-path="url(#clipPath2)" width="220" rx="4" ry="4" height="60" stroke="none"/>
    </g>
    <g stroke-linecap="butt" transform="matrix(1,0,0,1,-35,-35)" fill="rgb(198,40,40)" text-rendering="geometricPrecision" font-family="sans-serif" shape-rendering="geometricPrecision" stroke="rgb(198,40,40)" font-weight="bold" stroke-miterlimit="1.45">
      <text x="587.6883" xml:space="preserve" y="206.484" clip-path="url(#clipPath2)" stroke="none">&#128169; OUTPUT</text>
      <text x="548.6235" xml:space="preserve" y="222.8281" clip-path="url(#clipPath2)" stroke="none">Massive Spaghetti Mess</text>
    </g>
    <g stroke-linecap="butt" transform="matrix(1,0,0,1,-35,-35)" fill="rgb(244,67,54)" text-rendering="geometricPrecision" shape-rendering="geometricPrecision" stroke="rgb(244,67,54)" stroke-width="2" stroke-miterlimit="1.45">
      <rect x="510" y="180" clip-path="url(#clipPath2)" fill="none" width="220" rx="4" ry="4" height="60"/>
      <path fill="none" d="M269.9744 80 L331 80" clip-path="url(#clipPath2)" stroke="rgb(76,175,80)"/>
      <path fill="rgb(76,175,80)" d="M340 80 L326.5 74.375 L329.875 80 L326.5 85.625 Z" clip-path="url(#clipPath2)" stroke="none"/>
      <path fill="none" d="M440 80 L501.0049 80" clip-path="url(#clipPath2)" stroke="rgb(76,175,80)"/>
      <path fill="rgb(76,175,80)" d="M510.0049 80 L496.5049 74.375 L499.8799 80 L496.5049 85.625 Z" clip-path="url(#clipPath2)" stroke="none"/>
      <path fill="none" d="M269.9744 210 L331 210" clip-path="url(#clipPath2)"/>
      <path d="M340 210 L326.5 204.375 L329.875 210 L326.5 215.625 Z" clip-path="url(#clipPath2)" stroke="none"/>
      <path fill="none" d="M440 210 L501.0049 210" clip-path="url(#clipPath2)"/>
      <path d="M510.0049 210 L496.5049 204.375 L499.8799 210 L496.5049 215.625 Z" clip-path="url(#clipPath2)" stroke="none"/>
    </g>
  </g>
</svg>
