<?xml version="1.0" encoding="UTF-8"?><svg xmlns="http://www.w3.org/2000/svg" xmlns:xlink="http://www.w3.org/1999/xlink" fill-opacity="1" color-rendering="auto" color-interpolation="auto" text-rendering="auto" stroke="black" stroke-linecap="square" width="686" stroke-miterlimit="10" shape-rendering="auto" stroke-opacity="1" fill="black" stroke-dasharray="none" font-weight="normal" stroke-width="1" height="330" font-family="'Dialog'" font-style="normal" stroke-linejoin="miter" font-size="12px" stroke-dashoffset="0" image-rendering="auto">
  <!--Generated by ySVG 2.6-->
  <defs id="genericDefs"/>
  <g>
    <defs id="defs1">
      <clipPath clipPathUnits="userSpaceOnUse" id="clipPath1">
        <path d="M0 0 L686 0 L686 330 L0 330 L0 0 Z"/>
      </clipPath>
      <clipPath clipPathUnits="userSpaceOnUse" id="clipPath2">
        <path d="M-11 35 L675 35 L675 365 L-11 365 L-11 35 Z"/>
      </clipPath>
    </defs>
    <g stroke-linecap="butt" font-size="11px" transform="matrix(1,0,0,1,11,-35)" fill="rgb(55,71,79)" text-rendering="geometricPrecision" font-family="sans-serif" shape-rendering="geometricPrecision" stroke="rgb(55,71,79)" font-weight="bold" stroke-miterlimit="1.45">
      <text x="6.1683" xml:space="preserve" y="69.268" clip-path="url(#clipPath2)" stroke="none">▲ Впевненість / Контроль</text>
    </g>
    <g text-rendering="geometricPrecision" stroke-miterlimit="1.45" shape-rendering="geometricPrecision" transform="matrix(1,0,0,1,11,-35)" stroke-linecap="butt">
      <rect fill="none" x="10" width="140" height="30" y="50" clip-path="url(#clipPath2)"/>
    </g>
    <g stroke-linecap="butt" font-size="11px" transform="matrix(1,0,0,1,11,-35)" fill="rgb(55,71,79)" text-rendering="geometricPrecision" font-family="sans-serif" shape-rendering="geometricPrecision" stroke="rgb(55,71,79)" font-weight="bold" stroke-miterlimit="1.45">
      <text x="527.9877" xml:space="preserve" y="339.268" clip-path="url(#clipPath2)" stroke="none">Складність проєкту ▶</text>
    </g>
    <g text-rendering="geometricPrecision" stroke-miterlimit="1.45" shape-rendering="geometricPrecision" transform="matrix(1,0,0,1,11,-35)" stroke-linecap="butt">
      <rect fill="none" x="520" width="140" height="30" y="320" clip-path="url(#clipPath2)"/>
      <circle stroke-linecap="square" clip-path="url(#clipPath2)" r="2.5" cx="102.5" cy="302.5" stroke="none" stroke-miterlimit="10"/>
      <circle fill="none" r="2.5" clip-path="url(#clipPath2)" cx="102.5" cy="302.5"/>
      <rect fill="none" x="500" width="1" height="1" y="300" clip-path="url(#clipPath2)"/>
      <rect fill="none" x="100" width="1" height="1" y="80" clip-path="url(#clipPath2)"/>
      <text x="171.08" font-size="10px" y="318.88" clip-path="url(#clipPath2)" font-family="sans-serif" stroke="none" xml:space="preserve">Simple Page</text>
      <rect fill="none" x="160" width="80" height="20" y="305" clip-path="url(#clipPath2)"/>
      <text x="284.395" font-size="10px" y="318.88" clip-path="url(#clipPath2)" font-family="sans-serif" stroke="none" xml:space="preserve">SPA + Auth</text>
      <rect fill="none" x="270" width="80" height="20" y="305" clip-path="url(#clipPath2)"/>
      <text x="388.035" font-size="10px" y="318.88" clip-path="url(#clipPath2)" font-family="sans-serif" stroke="none" xml:space="preserve">App + Database</text>
      <rect fill="none" x="380" width="90" height="20" y="305" clip-path="url(#clipPath2)"/>
      <rect fill="none" x="120" width="1" height="1" y="90" clip-path="url(#clipPath2)"/>
      <rect fill="none" x="240" width="1" height="1" y="95" clip-path="url(#clipPath2)"/>
      <rect fill="none" x="340" width="1" height="1" y="140" clip-path="url(#clipPath2)"/>
    </g>
    <g stroke-linecap="butt" font-size="11px" transform="matrix(1,0,0,1,11,-35)" fill="rgb(198,40,40)" text-rendering="geometricPrecision" font-family="sans-serif" shape-rendering="geometricPrecision" stroke="rgb(198,40,40)" font-weight="bold" stroke-miterlimit="1.45">
      <text x="395.1956" xml:space="preserve" y="284.768" clip-path="url(#clipPath2)" stroke="none">Пастка Вайбкодера (Лотерея)</text>
    </g>
    <g text-rendering="geometricPrecision" stroke-miterlimit="1.45" shape-rendering="geometricPrecision" transform="matrix(1,0,0,1,11,-35)" stroke-linecap="butt">
      <rect fill="none" x="480" width="1" height="1" y="280" clip-path="url(#clipPath2)"/>
      <rect fill="none" x="120" width="1" height="1" y="130" clip-path="url(#clipPath2)"/>
      <rect fill="none" x="240" width="1" height="1" y="130" clip-path="url(#clipPath2)"/>
    </g>
    <g stroke-linecap="butt" font-size="11px" transform="matrix(1,0,0,1,11,-35)" fill="rgb(46,125,50)" text-rendering="geometricPrecision" font-family="sans-serif" shape-rendering="geometricPrecision" stroke="rgb(46,125,50)" font-weight="bold" stroke-miterlimit="1.45">
      <text x="404.4355" xml:space="preserve" y="144.768" clip-path="url(#clipPath2)" stroke="none">Лінія Інженера (Контроль)</text>
    </g>
    <g text-rendering="geometricPrecision" stroke-miterlimit="1.45" shape-rendering="geometricPrecision" transform="matrix(1,0,0,1,11,-35)" stroke-linecap="butt">
      <rect fill="none" x="480" width="1" height="1" y="140" clip-path="url(#clipPath2)"/>
      <path fill="none" d="M105 302.4874 L491.0001 300.5477" stroke-width="2" clip-path="url(#clipPath2)" stroke="rgb(55,71,79)"/>
      <path fill="rgb(55,71,79)" d="M500 300.5025 L486.4719 294.9454 L489.8751 300.5534 L486.5284 306.1953 Z" stroke-width="2" clip-path="url(#clipPath2)" stroke="none"/>
      <path fill="none" d="M102.4775 300.0001 L100.5856 89.9996" stroke-width="2" clip-path="url(#clipPath2)" stroke="rgb(55,71,79)"/>
      <path fill="rgb(55,71,79)" d="M100.5045 81 L95.0013 94.5501 L100.5957 91.1246 L106.2509 94.4488 Z" stroke-width="2" clip-path="url(#clipPath2)" stroke="none"/>
      <path fill="none" d="M121 90.5188 L230.0071 94.6237 L239.7378 96.024 L248.9443 99.4721 L341.0557 145.5279 L349.2988 150.8553 L356.1394 157.8935 L413.8606 232.1065 L420.5426 239.4173 L428.3099 245.5628 L480 280.1653" stroke-width="3" clip-path="url(#clipPath2)" stroke="rgb(244,67,54)"/>
      <path fill="none" d="M121 130.4979 L230.0001 130.0418 L249.9913 130.4163 L350.0087 134.5837 L369.9896 135.456 L480 140.4772" stroke-width="3" clip-path="url(#clipPath2)" stroke="rgb(76,175,80)"/>
    </g>
  </g>
</svg>
