<?xml version="1.0" encoding="UTF-8"?><svg xmlns="http://www.w3.org/2000/svg" xmlns:xlink="http://www.w3.org/1999/xlink" fill-opacity="1" color-rendering="auto" color-interpolation="auto" text-rendering="auto" stroke="black" stroke-linecap="square" width="632" stroke-miterlimit="10" shape-rendering="auto" stroke-opacity="1" fill="black" stroke-dasharray="none" font-weight="normal" stroke-width="1" height="390" font-family="'Dialog'" font-style="normal" stroke-linejoin="miter" font-size="12px" stroke-dashoffset="0" image-rendering="auto">
  <!--Generated by ySVG 2.6-->
  <defs id="genericDefs"/>
  <g>
    <defs id="defs1">
      <clipPath clipPathUnits="userSpaceOnUse" id="clipPath1">
        <path d="M0 0 L632 0 L632 390 L0 390 L0 0 Z"/>
      </clipPath>
      <clipPath clipPathUnits="userSpaceOnUse" id="clipPath2">
        <path d="M23 35 L655 35 L655 425 L23 425 L23 35 Z"/>
      </clipPath>
    </defs>
    <g fill="white" text-rendering="geometricPrecision" shape-rendering="geometricPrecision" transform="translate(-23,-35)" stroke="white">
      <rect x="23" width="632" height="390" y="35" clip-path="url(#clipPath2)" stroke="none"/>
    </g>
    <g fill="rgb(236,239,241)" text-rendering="geometricPrecision" shape-rendering="geometricPrecision" transform="matrix(1,0,0,1,-23,-35)" stroke="rgb(236,239,241)">
      <rect x="50" y="50" clip-path="url(#clipPath2)" width="200" rx="4" ry="4" height="60" stroke="none"/>
    </g>
    <g stroke-linecap="butt" transform="matrix(1,0,0,1,-23,-35)" fill="rgb(96,125,139)" text-rendering="geometricPrecision" shape-rendering="geometricPrecision" stroke="rgb(96,125,139)" stroke-width="2" stroke-miterlimit="1.45">
      <rect x="50" y="50" clip-path="url(#clipPath2)" fill="none" width="200" rx="4" ry="4" height="60"/>
    </g>
    <g stroke-linecap="butt" font-size="13px" transform="matrix(1,0,0,1,-23,-35)" fill="rgb(38,50,56)" text-rendering="geometricPrecision" font-family="sans-serif" shape-rendering="geometricPrecision" stroke="rgb(38,50,56)" font-weight="bold" stroke-miterlimit="1.45">
      <text x="53.7268" xml:space="preserve" y="85.044" clip-path="url(#clipPath2)" stroke="none">&#129504; РОЗРОБНИК (АРХІТЕКТОР)</text>
    </g>
    <g fill="rgb(243,229,245)" text-rendering="geometricPrecision" shape-rendering="geometricPrecision" transform="matrix(1,0,0,1,-23,-35)" stroke="rgb(243,229,245)">
      <rect x="50" y="200" clip-path="url(#clipPath2)" width="200" rx="4" ry="4" height="60" stroke="none"/>
    </g>
    <g stroke-linecap="butt" transform="matrix(1,0,0,1,-23,-35)" fill="rgb(156,39,176)" text-rendering="geometricPrecision" shape-rendering="geometricPrecision" stroke="rgb(156,39,176)" stroke-width="2" stroke-miterlimit="1.45">
      <rect x="50" y="200" clip-path="url(#clipPath2)" fill="none" width="200" rx="4" ry="4" height="60"/>
    </g>
    <g stroke-linecap="butt" font-size="13px" transform="matrix(1,0,0,1,-23,-35)" fill="rgb(74,20,140)" text-rendering="geometricPrecision" font-family="sans-serif" shape-rendering="geometricPrecision" stroke="rgb(74,20,140)" font-weight="bold" stroke-miterlimit="1.45">
      <text x="40.7463" xml:space="preserve" y="235.044" clip-path="url(#clipPath2)" stroke="none">&#129302; ШІ-АГЕНТ (МУЛЬТИПЛІКАТОР)</text>
    </g>
    <g fill="rgb(227,242,253)" text-rendering="geometricPrecision" shape-rendering="geometricPrecision" transform="matrix(1,0,0,1,-23,-35)" stroke="rgb(227,242,253)">
      <rect x="400" y="50" clip-path="url(#clipPath2)" width="240" rx="4" ry="4" height="60" stroke="none"/>
    </g>
    <g stroke-linecap="butt" transform="matrix(1,0,0,1,-23,-35)" fill="rgb(33,150,243)" text-rendering="geometricPrecision" shape-rendering="geometricPrecision" stroke="rgb(33,150,243)" stroke-width="2" stroke-miterlimit="1.45">
      <rect x="400" y="50" clip-path="url(#clipPath2)" fill="none" width="240" rx="4" ry="4" height="60"/>
    </g>
    <g stroke-linecap="butt" font-size="13px" transform="matrix(1,0,0,1,-23,-35)" fill="rgb(13,71,161)" text-rendering="geometricPrecision" font-family="sans-serif" shape-rendering="geometricPrecision" stroke="rgb(13,71,161)" font-weight="bold" stroke-miterlimit="1.45">
      <text x="428.6993" xml:space="preserve" y="76.191" clip-path="url(#clipPath2)" stroke="none">&#128187; РІВЕНЬ ПРЕЗЕНТАЦІЇ (UI)</text>
      <text x="427.856" xml:space="preserve" y="93.897" clip-path="url(#clipPath2)" stroke="none">React / TypeScript / Tailwind</text>
    </g>
    <g fill="rgb(232,245,233)" text-rendering="geometricPrecision" shape-rendering="geometricPrecision" transform="matrix(1,0,0,1,-23,-35)" stroke="rgb(232,245,233)">
      <rect x="400" y="200" clip-path="url(#clipPath2)" width="240" rx="4" ry="4" height="60" stroke="none"/>
    </g>
    <g stroke-linecap="butt" transform="matrix(1,0,0,1,-23,-35)" fill="rgb(76,175,80)" text-rendering="geometricPrecision" shape-rendering="geometricPrecision" stroke="rgb(76,175,80)" stroke-width="2" stroke-miterlimit="1.45">
      <rect x="400" y="200" clip-path="url(#clipPath2)" fill="none" width="240" rx="4" ry="4" height="60"/>
    </g>
    <g stroke-linecap="butt" font-size="13px" transform="matrix(1,0,0,1,-23,-35)" fill="rgb(27,94,32)" text-rendering="geometricPrecision" font-family="sans-serif" shape-rendering="geometricPrecision" stroke="rgb(27,94,32)" font-weight="bold" stroke-miterlimit="1.45">
      <text x="435.4123" xml:space="preserve" y="226.191" clip-path="url(#clipPath2)" stroke="none">⚙️ РІВЕНЬ БІЗНЕС-ЛОГІКИ</text>
      <text x="426.7379" xml:space="preserve" y="243.897" clip-path="url(#clipPath2)" stroke="none">Go Services / Handlers / Core</text>
    </g>
    <g fill="rgb(255,243,224)" text-rendering="geometricPrecision" shape-rendering="geometricPrecision" transform="matrix(1,0,0,1,-23,-35)" stroke="rgb(255,243,224)">
      <rect x="400" y="350" clip-path="url(#clipPath2)" width="240" rx="4" ry="4" height="60" stroke="none"/>
    </g>
    <g stroke-linecap="butt" transform="matrix(1,0,0,1,-23,-35)" fill="rgb(255,152,0)" text-rendering="geometricPrecision" shape-rendering="geometricPrecision" stroke="rgb(255,152,0)" stroke-width="2" stroke-miterlimit="1.45">
      <rect x="400" y="350" clip-path="url(#clipPath2)" fill="none" width="240" rx="4" ry="4" height="60"/>
    </g>
    <g stroke-linecap="butt" font-size="13px" transform="matrix(1,0,0,1,-23,-35)" fill="rgb(230,81,0)" text-rendering="geometricPrecision" font-family="sans-serif" shape-rendering="geometricPrecision" stroke="rgb(230,81,0)" font-weight="bold" stroke-miterlimit="1.45">
      <text x="423.5838" xml:space="preserve" y="376.191" clip-path="url(#clipPath2)" stroke="none">&#128452;️ РІВЕНЬ ДАНИХ (СХОВИЩЕ)</text>
      <text x="418.4049" xml:space="preserve" y="393.897" clip-path="url(#clipPath2)" stroke="none">Supabase / PostgreSQL Schema</text>
    </g>
    <g stroke-linecap="butt" transform="matrix(1,0,0,1,-23,-35)" fill="rgb(55,71,79)" text-rendering="geometricPrecision" shape-rendering="geometricPrecision" stroke="rgb(55,71,79)" stroke-miterlimit="1.45">
      <path fill="none" d="M150 109.9927 L150 192.0275" clip-path="url(#clipPath2)"/>
      <path d="M150 200.0275 L155 188.0275 L150 191.0275 L145 188.0275 Z" clip-path="url(#clipPath2)" stroke="none"/>
      <text x="154" font-size="11px" y="159.268" clip-path="url(#clipPath2)" font-family="sans-serif" stroke="none" xml:space="preserve">Керує контекстом та інтентом</text>
      <path fill="none" stroke-dasharray="6,2" d="M224.0271 199.989 L438.5567 113.0175" clip-path="url(#clipPath2)" stroke="rgb(123,31,162)"/>
      <path fill="rgb(123,31,162)" stroke-dasharray="6,2" d="M445.9706 110.0119 L432.9713 109.8867 L437.63 113.3932 L436.7283 119.1541 Z" clip-path="url(#clipPath2)" stroke="none"/>
    </g>
    <g stroke-linecap="butt" font-size="10px" transform="matrix(1,0,0,1,-23,-35)" fill="rgb(123,31,162)" text-rendering="geometricPrecision" font-family="sans-serif" shape-rendering="geometricPrecision" stroke="rgb(123,31,162)" stroke-miterlimit="1.45">
      <text x="360.7313" xml:space="preserve" y="158.88" clip-path="url(#clipPath2)" stroke="none">Генерує компоненти</text>
      <path fill="none" stroke-dasharray="6,2" d="M250.0427 230 L392.0153 230" clip-path="url(#clipPath2)"/>
      <path stroke-dasharray="6,2" d="M400.0153 230 L388.0153 225 L391.0153 230 L388.0153 235 Z" clip-path="url(#clipPath2)" stroke="none"/>
      <text x="276.635" xml:space="preserve" y="244.69" clip-path="url(#clipPath2)" stroke="none">Генерує функції/API</text>
    </g>
    <g stroke-linecap="butt" transform="matrix(1,0,0,1,-23,-35)" fill="rgb(30,136,229)" text-rendering="geometricPrecision" shape-rendering="geometricPrecision" stroke="rgb(30,136,229)" stroke-width="2" stroke-miterlimit="1.45">
      <path fill="none" d="M520 109.9927 L520 191.0275" clip-path="url(#clipPath2)"/>
      <path d="M520 200.0275 L525.625 186.5275 L520 189.9025 L514.375 186.5275 Z" clip-path="url(#clipPath2)" stroke="none"/>
      <text x="524" font-size="11px" y="159.268" clip-path="url(#clipPath2)" font-family="sans-serif" stroke="none" stroke-width="1" xml:space="preserve">API запити</text>
    </g>
    <g stroke-linecap="butt" transform="matrix(1,0,0,1,-23,-35)" fill="rgb(123,31,162)" text-rendering="geometricPrecision" shape-rendering="geometricPrecision" stroke-dasharray="6,2" stroke="rgb(123,31,162)" stroke-miterlimit="1.45">
      <path fill="none" d="M224.0271 260.011 L438.5567 346.9825" clip-path="url(#clipPath2)"/>
      <path d="M445.9706 349.9881 L436.7283 340.8459 L437.63 346.6068 L432.9713 350.1133 Z" clip-path="url(#clipPath2)" stroke="none"/>
      <text x="360.7313" font-size="10px" y="308.88" clip-path="url(#clipPath2)" font-family="sans-serif" stroke-dasharray="none" stroke="none" xml:space="preserve">Генерує міграції</text>
    </g>
    <g stroke-linecap="butt" transform="matrix(1,0,0,1,-23,-35)" fill="rgb(67,160,71)" text-rendering="geometricPrecision" shape-rendering="geometricPrecision" stroke="rgb(67,160,71)" stroke-width="2" stroke-miterlimit="1.45">
      <path fill="none" d="M520 259.9927 L520 341.0275" clip-path="url(#clipPath2)"/>
      <path d="M520 350.0275 L525.625 336.5275 L520 339.9025 L514.375 336.5275 Z" clip-path="url(#clipPath2)" stroke="none"/>
      <text x="524" font-size="11px" y="309.268" clip-path="url(#clipPath2)" font-family="sans-serif" stroke="none" stroke-width="1" xml:space="preserve">SQL / ORM запити</text>
    </g>
  </g>
</svg>
