<?xml version="1.0" encoding="UTF-8"?><svg xmlns="http://www.w3.org/2000/svg" xmlns:xlink="http://www.w3.org/1999/xlink" fill-opacity="1" color-rendering="auto" color-interpolation="auto" text-rendering="auto" stroke="black" stroke-linecap="square" width="1259" stroke-miterlimit="10" shape-rendering="auto" stroke-opacity="1" fill="black" stroke-dasharray="none" font-weight="normal" stroke-width="1" height="524" font-family="'Dialog'" font-style="normal" stroke-linejoin="miter" font-size="12px" stroke-dashoffset="0" image-rendering="auto">
  <!--Generated by ySVG 2.6-->
  <defs id="genericDefs"/>
  <g>
    <defs id="defs1">
      <clipPath clipPathUnits="userSpaceOnUse" id="clipPath1">
        <path d="M0 0 L1259 0 L1259 524 L0 524 L0 0 Z"/>
      </clipPath>
      <clipPath clipPathUnits="userSpaceOnUse" id="clipPath2">
        <path d="M-15 25 L1244 25 L1244 549 L-15 549 L-15 25 Z"/>
      </clipPath>
    </defs>
    <g fill="white" text-rendering="geometricPrecision" shape-rendering="geometricPrecision" transform="translate(15,-25)" stroke="white">
      <rect x="-15" width="1259" height="524" y="25" clip-path="url(#clipPath2)" stroke="none"/>
    </g>
    <g fill="rgb(254,215,79)" text-rendering="geometricPrecision" shape-rendering="geometricPrecision" transform="matrix(1,0,0,1,15,-25)" stroke="rgb(254,215,79)">
      <rect x="0" y="40" clip-path="url(#clipPath2)" width="260" rx="4" ry="4" height="120" stroke="none"/>
    </g>
    <g stroke-linecap="butt" transform="matrix(1,0,0,1,15,-25)" fill="rgb(31,31,31)" text-rendering="geometricPrecision" shape-rendering="geometricPrecision" stroke="rgb(31,31,31)" stroke-width="2" stroke-miterlimit="1.45">
      <rect x="0" y="40" clip-path="url(#clipPath2)" fill="none" width="260" rx="4" ry="4" height="120"/>
    </g>
    <g stroke-linecap="butt" font-size="15px" transform="matrix(1,0,0,1,15,-25)" fill="rgb(31,31,31)" text-rendering="geometricPrecision" font-family="sans-serif" shape-rendering="geometricPrecision" stroke="rgb(31,31,31)" font-weight="bold" stroke-miterlimit="1.45">
      <text x="64.7045" xml:space="preserve" y="85.3899" clip-path="url(#clipPath2)" stroke="none">Заражений сайт</text>
      <text x="42.8644" xml:space="preserve" y="105.82" clip-path="url(#clipPath2)" stroke="none">редиректи · веб-шели</text>
      <text x="86.5822" xml:space="preserve" y="126.2502" clip-path="url(#clipPath2)" stroke="none">спам у базі</text>
    </g>
    <g fill="rgb(22,138,83)" text-rendering="geometricPrecision" shape-rendering="geometricPrecision" transform="matrix(1,0,0,1,15,-25)" stroke="rgb(22,138,83)">
      <rect x="323" y="40" clip-path="url(#clipPath2)" width="260" rx="4" ry="4" height="120" stroke="none"/>
      <rect stroke-linecap="butt" x="323" y="40" clip-path="url(#clipPath2)" fill="none" width="260" rx="4" ry="4" height="120" stroke-width="2" stroke-miterlimit="1.45"/>
    </g>
    <g stroke-linecap="butt" font-size="15px" transform="matrix(1,0,0,1,15,-25)" fill="white" text-rendering="geometricPrecision" font-family="sans-serif" shape-rendering="geometricPrecision" stroke="white" font-weight="bold" stroke-miterlimit="1.45">
      <text x="420.0973" xml:space="preserve" y="85.3899" clip-path="url(#clipPath2)" stroke="none">Ізоляція</text>
      <text x="395.5721" xml:space="preserve" y="105.82" clip-path="url(#clipPath2)" stroke="none">повний зліпок</text>
      <text x="381.7945" xml:space="preserve" y="126.2502" clip-path="url(#clipPath2)" stroke="none">staging-пісочниця</text>
    </g>
    <g fill="rgb(22,138,83)" text-rendering="geometricPrecision" shape-rendering="geometricPrecision" transform="matrix(1,0,0,1,15,-25)" stroke="rgb(22,138,83)">
      <rect x="646" y="40" clip-path="url(#clipPath2)" width="260" rx="4" ry="4" height="120" stroke="none"/>
      <rect stroke-linecap="butt" x="646" y="40" clip-path="url(#clipPath2)" fill="none" width="260" rx="4" ry="4" height="120" stroke-width="2" stroke-miterlimit="1.45"/>
    </g>
    <g stroke-linecap="butt" font-size="15px" transform="matrix(1,0,0,1,15,-25)" fill="white" text-rendering="geometricPrecision" font-family="sans-serif" shape-rendering="geometricPrecision" stroke="white" font-weight="bold" stroke-miterlimit="1.45">
      <text x="752.0298" xml:space="preserve" y="85.3899" clip-path="url(#clipPath2)" stroke="none">Аудит</text>
      <text x="688.6094" xml:space="preserve" y="105.82" clip-path="url(#clipPath2)" stroke="none">ClamAV · Maldet · YARA</text>
      <text x="695.6594" xml:space="preserve" y="126.2502" clip-path="url(#clipPath2)" stroke="none">diff із чистим ядром</text>
    </g>
    <g fill="rgb(22,138,83)" text-rendering="geometricPrecision" shape-rendering="geometricPrecision" transform="matrix(1,0,0,1,15,-25)" stroke="rgb(22,138,83)">
      <rect x="969" y="40" clip-path="url(#clipPath2)" width="260" rx="4" ry="4" height="120" stroke="none"/>
      <rect stroke-linecap="butt" x="969" y="40" clip-path="url(#clipPath2)" fill="none" width="260" rx="4" ry="4" height="120" stroke-width="2" stroke-miterlimit="1.45"/>
    </g>
    <g stroke-linecap="butt" font-size="15px" transform="matrix(1,0,0,1,15,-25)" fill="white" text-rendering="geometricPrecision" font-family="sans-serif" shape-rendering="geometricPrecision" stroke="white" font-weight="bold" stroke-miterlimit="1.45">
      <text x="1058.5897" xml:space="preserve" y="85.3899" clip-path="url(#clipPath2)" stroke="none">Лікування</text>
      <text x="1044.9846" xml:space="preserve" y="105.82" clip-path="url(#clipPath2)" stroke="none">деобфускація</text>
      <text x="1002.6094" xml:space="preserve" y="126.2502" clip-path="url(#clipPath2)" stroke="none">санітизація БД · PHP 8.2+</text>
    </g>
    <g fill="rgb(42,42,42)" text-rendering="geometricPrecision" shape-rendering="geometricPrecision" transform="matrix(1,0,0,1,15,-25)" stroke="rgb(42,42,42)">
      <rect x="969" y="290" clip-path="url(#clipPath2)" width="260" rx="4" ry="4" height="120" stroke="none"/>
      <rect stroke-linecap="butt" x="969" y="290" clip-path="url(#clipPath2)" fill="none" width="260" rx="4" ry="4" height="120" stroke-width="2" stroke-miterlimit="1.45"/>
    </g>
    <g stroke-linecap="butt" font-size="15px" transform="matrix(1,0,0,1,15,-25)" fill="white" text-rendering="geometricPrecision" font-family="sans-serif" shape-rendering="geometricPrecision" stroke="white" font-weight="bold" stroke-miterlimit="1.45">
      <text x="1059.2572" xml:space="preserve" y="335.3899" clip-path="url(#clipPath2)" stroke="none">Hardening</text>
      <text x="1030.8545" xml:space="preserve" y="355.82" clip-path="url(#clipPath2)" stroke="none">без PHP у uploads</text>
      <text x="1037.5521" xml:space="preserve" y="376.2502" clip-path="url(#clipPath2)" stroke="none">2FA · нові ключі</text>
    </g>
    <g fill="rgb(42,42,42)" text-rendering="geometricPrecision" shape-rendering="geometricPrecision" transform="matrix(1,0,0,1,15,-25)" stroke="rgb(42,42,42)">
      <rect x="646" y="290" clip-path="url(#clipPath2)" width="260" rx="4" ry="4" height="120" stroke="none"/>
      <rect stroke-linecap="butt" x="646" y="290" clip-path="url(#clipPath2)" fill="none" width="260" rx="4" ry="4" height="120" stroke-width="2" stroke-miterlimit="1.45"/>
    </g>
    <g stroke-linecap="butt" font-size="15px" transform="matrix(1,0,0,1,15,-25)" fill="white" text-rendering="geometricPrecision" font-family="sans-serif" shape-rendering="geometricPrecision" stroke="white" font-weight="bold" stroke-miterlimit="1.45">
      <text x="759.4549" xml:space="preserve" y="335.3899" clip-path="url(#clipPath2)" stroke="none">WAF</text>
      <text x="737.0598" xml:space="preserve" y="355.82" clip-path="url(#clipPath2)" stroke="none">Cloudflare</text>
      <text x="728.9747" xml:space="preserve" y="376.2502" clip-path="url(#clipPath2)" stroke="none">ModSecurity</text>
    </g>
    <g fill="rgb(42,42,42)" text-rendering="geometricPrecision" shape-rendering="geometricPrecision" transform="matrix(1,0,0,1,15,-25)" stroke="rgb(42,42,42)">
      <rect x="323" y="290" clip-path="url(#clipPath2)" width="260" rx="4" ry="4" height="120" stroke="none"/>
      <rect stroke-linecap="butt" x="323" y="290" clip-path="url(#clipPath2)" fill="none" width="260" rx="4" ry="4" height="120" stroke-width="2" stroke-miterlimit="1.45"/>
    </g>
    <g stroke-linecap="butt" font-size="15px" transform="matrix(1,0,0,1,15,-25)" fill="white" text-rendering="geometricPrecision" font-family="sans-serif" shape-rendering="geometricPrecision" stroke="white" font-weight="bold" stroke-miterlimit="1.45">
      <text x="396.3296" xml:space="preserve" y="335.3899" clip-path="url(#clipPath2)" stroke="none">Search Console</text>
      <text x="390.157" xml:space="preserve" y="355.82" clip-path="url(#clipPath2)" stroke="none">запит на зняття</text>
      <text x="394.0271" xml:space="preserve" y="376.2502" clip-path="url(#clipPath2)" stroke="none">санкцій Google</text>
    </g>
    <g fill="rgb(42,42,42)" text-rendering="geometricPrecision" shape-rendering="geometricPrecision" transform="matrix(1,0,0,1,15,-25)" stroke="rgb(42,42,42)">
      <rect x="0" y="290" clip-path="url(#clipPath2)" width="260" rx="4" ry="4" height="120" stroke="none"/>
      <rect stroke-linecap="butt" x="0" y="290" clip-path="url(#clipPath2)" fill="none" width="260" rx="4" ry="4" height="120" stroke-width="2" stroke-miterlimit="1.45"/>
    </g>
    <g stroke-linecap="butt" font-size="15px" transform="matrix(1,0,0,1,15,-25)" fill="white" text-rendering="geometricPrecision" font-family="sans-serif" shape-rendering="geometricPrecision" stroke="white" font-weight="bold" stroke-miterlimit="1.45">
      <text x="83.5447" xml:space="preserve" y="335.3899" clip-path="url(#clipPath2)" stroke="none">Моніторинг</text>
      <text x="61.847" xml:space="preserve" y="355.82" clip-path="url(#clipPath2)" stroke="none">цілісності файлів</text>
      <text x="103.5773" xml:space="preserve" y="376.2502" clip-path="url(#clipPath2)" stroke="none">щодня</text>
    </g>
    <g fill="white" text-rendering="geometricPrecision" shape-rendering="geometricPrecision" transform="matrix(1,0,0,1,15,-25)" stroke="white">
      <rect x="0" y="470" clip-path="url(#clipPath2)" width="1229" rx="4" ry="4" height="64" stroke="none"/>
    </g>
    <g stroke-linecap="butt" transform="matrix(1,0,0,1,15,-25)" fill="rgb(22,138,83)" text-rendering="geometricPrecision" shape-rendering="geometricPrecision" stroke="rgb(22,138,83)" stroke-width="2" stroke-miterlimit="1.45">
      <rect x="0" y="470" clip-path="url(#clipPath2)" fill="none" width="1229" rx="4" ry="4" height="64"/>
    </g>
    <g stroke-linecap="butt" font-size="15px" transform="matrix(1,0,0,1,15,-25)" fill="rgb(22,138,83)" text-rendering="geometricPrecision" font-family="sans-serif" shape-rendering="geometricPrecision" stroke="rgb(22,138,83)" font-weight="bold" stroke-miterlimit="1.45">
      <text x="326.873" xml:space="preserve" y="507.82" clip-path="url(#clipPath2)" stroke="none">100% даних збережено · ешелонований захист, щоб злом не повторився</text>
    </g>
    <g stroke-linecap="butt" transform="matrix(1,0,0,1,15,-25)" fill="rgb(31,31,31)" text-rendering="geometricPrecision" shape-rendering="geometricPrecision" stroke="rgb(31,31,31)" stroke-width="3" stroke-miterlimit="1.45">
      <path fill="none" d="M259.9965 100 L312.9959 100" clip-path="url(#clipPath2)"/>
      <path d="M322.9959 100 L307.9959 93.75 L311.7459 100 L307.9959 106.25 Z" clip-path="url(#clipPath2)" stroke="none"/>
      <path fill="none" d="M582.9965 100 L635.9959 100" clip-path="url(#clipPath2)"/>
      <path d="M645.9959 100 L630.9959 93.75 L634.7459 100 L630.9959 106.25 Z" clip-path="url(#clipPath2)" stroke="none"/>
      <path fill="none" d="M905.9965 100 L958.9959 100" clip-path="url(#clipPath2)"/>
      <path d="M968.9959 100 L953.9959 93.75 L957.7459 100 L953.9959 106.25 Z" clip-path="url(#clipPath2)" stroke="none"/>
      <path fill="none" d="M1099 160.0281 L1099 280.0308" clip-path="url(#clipPath2)"/>
      <path d="M1099 290.0308 L1105.25 275.0308 L1099 278.7808 L1092.75 275.0308 Z" clip-path="url(#clipPath2)" stroke="none"/>
      <path fill="none" d="M969.0035 350 L916.0041 350" clip-path="url(#clipPath2)"/>
      <path d="M906.0041 350 L921.0041 356.25 L917.2541 350 L921.0041 343.75 Z" clip-path="url(#clipPath2)" stroke="none"/>
      <path fill="none" d="M646.0035 350 L593.0041 350" clip-path="url(#clipPath2)"/>
      <path d="M583.0041 350 L598.0041 356.25 L594.2541 350 L598.0041 343.75 Z" clip-path="url(#clipPath2)" stroke="none"/>
      <path fill="none" d="M323.0035 350 L270.0041 350" clip-path="url(#clipPath2)"/>
      <path d="M260.0041 350 L275.0041 356.25 L271.2541 350 L275.0041 343.75 Z" clip-path="url(#clipPath2)" stroke="none"/>
    </g>
  </g>
</svg>
