<?xml version="1.0" encoding="UTF-8"?><svg xmlns="http://www.w3.org/2000/svg" xmlns:xlink="http://www.w3.org/1999/xlink" fill-opacity="1" color-rendering="auto" color-interpolation="auto" text-rendering="auto" stroke="black" stroke-linecap="square" width="1259" stroke-miterlimit="10" shape-rendering="auto" stroke-opacity="1" fill="black" stroke-dasharray="none" font-weight="normal" stroke-width="1" height="524" font-family="'Dialog'" font-style="normal" stroke-linejoin="miter" font-size="12px" stroke-dashoffset="0" image-rendering="auto">
  <!--Generated by ySVG 2.6-->
  <defs id="genericDefs"/>
  <g>
    <defs id="defs1">
      <clipPath clipPathUnits="userSpaceOnUse" id="clipPath1">
        <path d="M0 0 L1259 0 L1259 524 L0 524 L0 0 Z"/>
      </clipPath>
      <clipPath clipPathUnits="userSpaceOnUse" id="clipPath2">
        <path d="M-15 25 L1244 25 L1244 549 L-15 549 L-15 25 Z"/>
      </clipPath>
    </defs>
    <g fill="white" text-rendering="geometricPrecision" shape-rendering="geometricPrecision" transform="translate(15,-25)" stroke="white">
      <rect x="-15" width="1259" height="524" y="25" clip-path="url(#clipPath2)" stroke="none"/>
    </g>
    <g fill="rgb(254,215,79)" text-rendering="geometricPrecision" shape-rendering="geometricPrecision" transform="matrix(1,0,0,1,15,-25)" stroke="rgb(254,215,79)">
      <rect x="0" y="40" clip-path="url(#clipPath2)" width="260" rx="4" ry="4" height="120" stroke="none"/>
    </g>
    <g stroke-linecap="butt" transform="matrix(1,0,0,1,15,-25)" fill="rgb(31,31,31)" text-rendering="geometricPrecision" shape-rendering="geometricPrecision" stroke="rgb(31,31,31)" stroke-width="2" stroke-miterlimit="1.45">
      <rect x="0" y="40" clip-path="url(#clipPath2)" fill="none" width="260" rx="4" ry="4" height="120"/>
    </g>
    <g stroke-linecap="butt" font-size="15px" transform="matrix(1,0,0,1,15,-25)" fill="rgb(31,31,31)" text-rendering="geometricPrecision" font-family="sans-serif" shape-rendering="geometricPrecision" stroke="rgb(31,31,31)" font-weight="bold" stroke-miterlimit="1.45">
      <text x="81.4747" xml:space="preserve" y="85.3899" clip-path="url(#clipPath2)" stroke="none">Production A</text>
      <text x="62.1095" xml:space="preserve" y="105.82" clip-path="url(#clipPath2)" stroke="none">поточний сервер</text>
      <text x="65.687" xml:space="preserve" y="126.2502" clip-path="url(#clipPath2)" stroke="none">холодний бекап</text>
    </g>
    <g fill="rgb(22,138,83)" text-rendering="geometricPrecision" shape-rendering="geometricPrecision" transform="matrix(1,0,0,1,15,-25)" stroke="rgb(22,138,83)">
      <rect x="323" y="40" clip-path="url(#clipPath2)" width="260" rx="4" ry="4" height="120" stroke="none"/>
      <rect stroke-linecap="butt" x="323" y="40" clip-path="url(#clipPath2)" fill="none" width="260" rx="4" ry="4" height="120" stroke-width="2" stroke-miterlimit="1.45"/>
    </g>
    <g stroke-linecap="butt" font-size="15px" transform="matrix(1,0,0,1,15,-25)" fill="white" text-rendering="geometricPrecision" font-family="sans-serif" shape-rendering="geometricPrecision" stroke="white" font-weight="bold" stroke-miterlimit="1.45">
      <text x="380.4445" xml:space="preserve" y="85.3899" clip-path="url(#clipPath2)" stroke="none">rsync + mysqldump</text>
      <text x="399.5396" xml:space="preserve" y="105.82" clip-path="url(#clipPath2)" stroke="none">файли й база</text>
      <text x="387.5471" xml:space="preserve" y="126.2502" clip-path="url(#clipPath2)" stroke="none">на новий сервер</text>
    </g>
    <g fill="rgb(22,138,83)" text-rendering="geometricPrecision" shape-rendering="geometricPrecision" transform="matrix(1,0,0,1,15,-25)" stroke="rgb(22,138,83)">
      <rect x="646" y="40" clip-path="url(#clipPath2)" width="260" rx="4" ry="4" height="120" stroke="none"/>
      <rect stroke-linecap="butt" x="646" y="40" clip-path="url(#clipPath2)" fill="none" width="260" rx="4" ry="4" height="120" stroke-width="2" stroke-miterlimit="1.45"/>
    </g>
    <g stroke-linecap="butt" font-size="15px" transform="matrix(1,0,0,1,15,-25)" fill="white" text-rendering="geometricPrecision" font-family="sans-serif" shape-rendering="geometricPrecision" stroke="white" font-weight="bold" stroke-miterlimit="1.45">
      <text x="740.3823" xml:space="preserve" y="85.3899" clip-path="url(#clipPath2)" stroke="none">Staging B</text>
      <text x="688.0244" xml:space="preserve" y="105.82" clip-path="url(#clipPath2)" stroke="none">Nginx · PHP 8.2 · MySQL</text>
      <text x="763.4974" xml:space="preserve" y="126.2502" clip-path="url(#clipPath2)" stroke="none">SSL</text>
    </g>
    <g fill="rgb(22,138,83)" text-rendering="geometricPrecision" shape-rendering="geometricPrecision" transform="matrix(1,0,0,1,15,-25)" stroke="rgb(22,138,83)">
      <rect x="969" y="40" clip-path="url(#clipPath2)" width="260" rx="4" ry="4" height="120" stroke="none"/>
      <rect stroke-linecap="butt" x="969" y="40" clip-path="url(#clipPath2)" fill="none" width="260" rx="4" ry="4" height="120" stroke-width="2" stroke-miterlimit="1.45"/>
    </g>
    <g stroke-linecap="butt" font-size="15px" transform="matrix(1,0,0,1,15,-25)" fill="white" text-rendering="geometricPrecision" font-family="sans-serif" shape-rendering="geometricPrecision" stroke="white" font-weight="bold" stroke-miterlimit="1.45">
      <text x="1037.1921" xml:space="preserve" y="85.3899" clip-path="url(#clipPath2)" stroke="none">Заміна доменів</text>
      <text x="1029.6545" xml:space="preserve" y="105.82" clip-path="url(#clipPath2)" stroke="none">WP-CLI · безпечна</text>
      <text x="1037.3796" xml:space="preserve" y="126.2502" clip-path="url(#clipPath2)" stroke="none">для серіалізації</text>
    </g>
    <g fill="rgb(42,42,42)" text-rendering="geometricPrecision" shape-rendering="geometricPrecision" transform="matrix(1,0,0,1,15,-25)" stroke="rgb(42,42,42)">
      <rect x="969" y="290" clip-path="url(#clipPath2)" width="260" rx="4" ry="4" height="120" stroke="none"/>
      <rect stroke-linecap="butt" x="969" y="290" clip-path="url(#clipPath2)" fill="none" width="260" rx="4" ry="4" height="120" stroke-width="2" stroke-miterlimit="1.45"/>
    </g>
    <g stroke-linecap="butt" font-size="15px" transform="matrix(1,0,0,1,15,-25)" fill="white" text-rendering="geometricPrecision" font-family="sans-serif" shape-rendering="geometricPrecision" stroke="white" font-weight="bold" stroke-miterlimit="1.45">
      <text x="1035.347" xml:space="preserve" y="335.3899" clip-path="url(#clipPath2)" stroke="none">Тест через hosts</text>
      <text x="1039.1421" xml:space="preserve" y="355.82" clip-path="url(#clipPath2)" stroke="none">кошик · форми</text>
      <text x="1022.267" xml:space="preserve" y="376.2502" clip-path="url(#clipPath2)" stroke="none">адмінка · інтеграції</text>
    </g>
    <g fill="rgb(42,42,42)" text-rendering="geometricPrecision" shape-rendering="geometricPrecision" transform="matrix(1,0,0,1,15,-25)" stroke="rgb(42,42,42)">
      <rect x="646" y="290" clip-path="url(#clipPath2)" width="260" rx="4" ry="4" height="120" stroke="none"/>
      <rect stroke-linecap="butt" x="646" y="290" clip-path="url(#clipPath2)" fill="none" width="260" rx="4" ry="4" height="120" stroke-width="2" stroke-miterlimit="1.45"/>
    </g>
    <g stroke-linecap="butt" font-size="15px" transform="matrix(1,0,0,1,15,-25)" fill="white" text-rendering="geometricPrecision" font-family="sans-serif" shape-rendering="geometricPrecision" stroke="white" font-weight="bold" stroke-miterlimit="1.45">
      <text x="734.3129" xml:space="preserve" y="335.3899" clip-path="url(#clipPath2)" stroke="none">TTL → 300 с</text>
      <text x="725.8547" xml:space="preserve" y="355.82" clip-path="url(#clipPath2)" stroke="none">за 24 години</text>
      <text x="739.6923" xml:space="preserve" y="376.2502" clip-path="url(#clipPath2)" stroke="none">до релізу</text>
    </g>
    <g fill="rgb(42,42,42)" text-rendering="geometricPrecision" shape-rendering="geometricPrecision" transform="matrix(1,0,0,1,15,-25)" stroke="rgb(42,42,42)">
      <rect x="323" y="290" clip-path="url(#clipPath2)" width="260" rx="4" ry="4" height="120" stroke="none"/>
      <rect stroke-linecap="butt" x="323" y="290" clip-path="url(#clipPath2)" fill="none" width="260" rx="4" ry="4" height="120" stroke-width="2" stroke-miterlimit="1.45"/>
    </g>
    <g stroke-linecap="butt" font-size="15px" transform="matrix(1,0,0,1,15,-25)" fill="white" text-rendering="geometricPrecision" font-family="sans-serif" shape-rendering="geometricPrecision" stroke="white" font-weight="bold" stroke-miterlimit="1.45">
      <text x="386.347" xml:space="preserve" y="335.3899" clip-path="url(#clipPath2)" stroke="none">Фінальна дельта</text>
      <text x="386.407" xml:space="preserve" y="355.82" clip-path="url(#clipPath2)" stroke="none">нові замовлення</text>
      <text x="422.4898" xml:space="preserve" y="376.2502" clip-path="url(#clipPath2)" stroke="none">і файли</text>
    </g>
    <g fill="rgb(42,42,42)" text-rendering="geometricPrecision" shape-rendering="geometricPrecision" transform="matrix(1,0,0,1,15,-25)" stroke="rgb(42,42,42)">
      <rect x="0" y="290" clip-path="url(#clipPath2)" width="260" rx="4" ry="4" height="120" stroke="none"/>
      <rect stroke-linecap="butt" x="0" y="290" clip-path="url(#clipPath2)" fill="none" width="260" rx="4" ry="4" height="120" stroke-width="2" stroke-miterlimit="1.45"/>
    </g>
    <g stroke-linecap="butt" font-size="15px" transform="matrix(1,0,0,1,15,-25)" fill="white" text-rendering="geometricPrecision" font-family="sans-serif" shape-rendering="geometricPrecision" stroke="white" font-weight="bold" stroke-miterlimit="1.45">
      <text x="57.7895" xml:space="preserve" y="345.605" clip-path="url(#clipPath2)" stroke="none">Перемикання DNS</text>
      <text x="53.462" xml:space="preserve" y="366.0351" clip-path="url(#clipPath2)" stroke="none">301 · MX · SPF · DKIM</text>
    </g>
    <g fill="white" text-rendering="geometricPrecision" shape-rendering="geometricPrecision" transform="matrix(1,0,0,1,15,-25)" stroke="white">
      <rect x="0" y="470" clip-path="url(#clipPath2)" width="1229" rx="4" ry="4" height="64" stroke="none"/>
    </g>
    <g stroke-linecap="butt" transform="matrix(1,0,0,1,15,-25)" fill="rgb(22,138,83)" text-rendering="geometricPrecision" shape-rendering="geometricPrecision" stroke="rgb(22,138,83)" stroke-width="2" stroke-miterlimit="1.45">
      <rect x="0" y="470" clip-path="url(#clipPath2)" fill="none" width="1229" rx="4" ry="4" height="64"/>
    </g>
    <g stroke-linecap="butt" font-size="15px" transform="matrix(1,0,0,1,15,-25)" fill="rgb(22,138,83)" text-rendering="geometricPrecision" font-family="sans-serif" shape-rendering="geometricPrecision" stroke="rgb(22,138,83)" font-weight="bold" stroke-miterlimit="1.45">
      <text x="264.8176" xml:space="preserve" y="507.82" clip-path="url(#clipPath2)" stroke="none">Мета — нуль простою · пошта працює · без циклічних редиректів · старі посилання живі</text>
    </g>
    <g stroke-linecap="butt" transform="matrix(1,0,0,1,15,-25)" fill="rgb(31,31,31)" text-rendering="geometricPrecision" shape-rendering="geometricPrecision" stroke="rgb(31,31,31)" stroke-width="3" stroke-miterlimit="1.45">
      <path fill="none" d="M259.9965 100 L312.9959 100" clip-path="url(#clipPath2)"/>
      <path d="M322.9959 100 L307.9959 93.75 L311.7459 100 L307.9959 106.25 Z" clip-path="url(#clipPath2)" stroke="none"/>
      <path fill="none" d="M582.9965 100 L635.9959 100" clip-path="url(#clipPath2)"/>
      <path d="M645.9959 100 L630.9959 93.75 L634.7459 100 L630.9959 106.25 Z" clip-path="url(#clipPath2)" stroke="none"/>
      <path fill="none" d="M905.9965 100 L958.9959 100" clip-path="url(#clipPath2)"/>
      <path d="M968.9959 100 L953.9959 93.75 L957.7459 100 L953.9959 106.25 Z" clip-path="url(#clipPath2)" stroke="none"/>
      <path fill="none" d="M1099 160.0281 L1099 280.0308" clip-path="url(#clipPath2)"/>
      <path d="M1099 290.0308 L1105.25 275.0308 L1099 278.7808 L1092.75 275.0308 Z" clip-path="url(#clipPath2)" stroke="none"/>
      <path fill="none" d="M969.0035 350 L916.0041 350" clip-path="url(#clipPath2)"/>
      <path d="M906.0041 350 L921.0041 356.25 L917.2541 350 L921.0041 343.75 Z" clip-path="url(#clipPath2)" stroke="none"/>
      <path fill="none" d="M646.0035 350 L593.0041 350" clip-path="url(#clipPath2)"/>
      <path d="M583.0041 350 L598.0041 356.25 L594.2541 350 L598.0041 343.75 Z" clip-path="url(#clipPath2)" stroke="none"/>
      <path fill="none" d="M323.0035 350 L270.0041 350" clip-path="url(#clipPath2)"/>
      <path d="M260.0041 350 L275.0041 356.25 L271.2541 350 L275.0041 343.75 Z" clip-path="url(#clipPath2)" stroke="none"/>
    </g>
  </g>
</svg>
