<?xml version="1.0" encoding="UTF-8"?><svg xmlns="http://www.w3.org/2000/svg" xmlns:xlink="http://www.w3.org/1999/xlink" fill-opacity="1" color-rendering="auto" color-interpolation="auto" text-rendering="auto" stroke="black" stroke-linecap="square" width="1230" stroke-miterlimit="10" shape-rendering="auto" stroke-opacity="1" fill="black" stroke-dasharray="none" font-weight="normal" stroke-width="1" height="590" font-family="'Dialog'" font-style="normal" stroke-linejoin="miter" font-size="12px" stroke-dashoffset="0" image-rendering="auto">
  <!--Generated by ySVG 2.6-->
  <defs id="genericDefs"/>
  <g>
    <defs id="defs1">
      <clipPath clipPathUnits="userSpaceOnUse" id="clipPath1">
        <path d="M0 0 L1230 0 L1230 590 L0 590 L0 0 Z"/>
      </clipPath>
      <clipPath clipPathUnits="userSpaceOnUse" id="clipPath2">
        <path d="M-15 10 L1215 10 L1215 600 L-15 600 L-15 10 Z"/>
      </clipPath>
    </defs>
    <g fill="white" text-rendering="geometricPrecision" shape-rendering="geometricPrecision" transform="translate(15,-10)" stroke="white">
      <rect x="-15" width="1230" height="590" y="10" clip-path="url(#clipPath2)" stroke="none"/>
    </g>
    <g fill="rgb(254,215,79)" text-rendering="geometricPrecision" shape-rendering="geometricPrecision" transform="matrix(1,0,0,1,15,-10)" stroke="rgb(254,215,79)">
      <rect x="430" y="330" clip-path="url(#clipPath2)" width="340" rx="4" ry="4" height="110" stroke="none"/>
    </g>
    <g stroke-linecap="butt" transform="matrix(1,0,0,1,15,-10)" fill="rgb(31,31,31)" text-rendering="geometricPrecision" shape-rendering="geometricPrecision" stroke="rgb(31,31,31)" stroke-width="3" stroke-miterlimit="1.45">
      <rect x="430" y="330" clip-path="url(#clipPath2)" fill="none" width="340" rx="4" ry="4" height="110"/>
    </g>
    <g stroke-linecap="butt" font-size="18px" transform="matrix(1,0,0,1,15,-10)" fill="rgb(31,31,31)" text-rendering="geometricPrecision" font-family="sans-serif" shape-rendering="geometricPrecision" stroke="rgb(31,31,31)" font-weight="bold" stroke-miterlimit="1.45">
      <text x="518.6225" xml:space="preserve" y="367.4681" clip-path="url(#clipPath2)" stroke="none">Valentyn Solomko</text>
      <text x="482.8207" xml:space="preserve" y="391.9839" clip-path="url(#clipPath2)" stroke="none">Backend · Systemy AI · IoT</text>
      <text x="468.5198" xml:space="preserve" y="416.4998" clip-path="url(#clipPath2)" stroke="none">Ponad 20 lat · Go, PostgreSQL</text>
    </g>
    <g fill="rgb(22,138,83)" text-rendering="geometricPrecision" shape-rendering="geometricPrecision" transform="matrix(1,0,0,1,15,-10)" stroke="rgb(22,138,83)">
      <rect x="410" y="25" clip-path="url(#clipPath2)" width="380" rx="4" ry="4" height="110" stroke="none"/>
      <rect stroke-linecap="butt" x="410" y="25" clip-path="url(#clipPath2)" fill="none" width="380" rx="4" ry="4" height="110" stroke-width="2" stroke-miterlimit="1.45"/>
    </g>
    <g stroke-linecap="butt" font-size="15px" transform="matrix(1,0,0,1,15,-10)" fill="white" text-rendering="geometricPrecision" font-family="sans-serif" shape-rendering="geometricPrecision" stroke="white" font-weight="bold" stroke-miterlimit="1.45">
      <text x="518.5719" xml:space="preserve" y="65.3899" clip-path="url(#clipPath2)" stroke="none">Bezpieczeństwo stron</text>
      <text x="506.8569" xml:space="preserve" y="85.82" clip-path="url(#clipPath2)" stroke="none">wirusy · backdoory · WAF</text>
      <text x="485.8792" xml:space="preserve" y="106.2502" clip-path="url(#clipPath2)" stroke="none">WordPress · Joomla · OpenCart</text>
    </g>
    <g fill="rgb(22,138,83)" text-rendering="geometricPrecision" shape-rendering="geometricPrecision" transform="matrix(1,0,0,1,15,-10)" stroke="rgb(22,138,83)">
      <rect x="0" y="185" clip-path="url(#clipPath2)" width="380" rx="4" ry="4" height="110" stroke="none"/>
      <rect stroke-linecap="butt" x="0" y="185" clip-path="url(#clipPath2)" fill="none" width="380" rx="4" ry="4" height="110" stroke-width="2" stroke-miterlimit="1.45"/>
    </g>
    <g stroke-linecap="butt" font-size="15px" transform="matrix(1,0,0,1,15,-10)" fill="white" text-rendering="geometricPrecision" font-family="sans-serif" shape-rendering="geometricPrecision" stroke="white" font-weight="bold" stroke-miterlimit="1.45">
      <text x="82.8093" xml:space="preserve" y="225.3899" clip-path="url(#clipPath2)" stroke="none">Go / Automatyzacja backend</text>
      <text x="95.2444" xml:space="preserve" y="245.82" clip-path="url(#clipPath2)" stroke="none">CRM · płatności · API · ETL</text>
      <text x="63.0316" xml:space="preserve" y="266.2502" clip-path="url(#clipPath2)" stroke="none">crmbridge · feedsync · KeepinCRM</text>
    </g>
    <g fill="rgb(22,138,83)" text-rendering="geometricPrecision" shape-rendering="geometricPrecision" transform="matrix(1,0,0,1,15,-10)" stroke="rgb(22,138,83)">
      <rect x="820" y="185" clip-path="url(#clipPath2)" width="380" rx="4" ry="4" height="110" stroke="none"/>
      <rect stroke-linecap="butt" x="820" y="185" clip-path="url(#clipPath2)" fill="none" width="380" rx="4" ry="4" height="110" stroke-width="2" stroke-miterlimit="1.45"/>
    </g>
    <g stroke-linecap="butt" font-size="15px" transform="matrix(1,0,0,1,15,-10)" fill="white" text-rendering="geometricPrecision" font-family="sans-serif" shape-rendering="geometricPrecision" stroke="white" font-weight="bold" stroke-miterlimit="1.45">
      <text x="936.162" xml:space="preserve" y="225.3899" clip-path="url(#clipPath2)" stroke="none">Systemy AI i agenty</text>
      <text x="877.5266" xml:space="preserve" y="245.82" clip-path="url(#clipPath2)" stroke="none">Claude / OpenAI · RAG · głos · wideo</text>
      <text x="847.4139" xml:space="preserve" y="266.2502" clip-path="url(#clipPath2)" stroke="none">Kampanie reklamowe AI · ragline · agent AI</text>
    </g>
    <g fill="rgb(22,138,83)" text-rendering="geometricPrecision" shape-rendering="geometricPrecision" transform="matrix(1,0,0,1,15,-10)" stroke="rgb(22,138,83)">
      <rect x="0" y="475" clip-path="url(#clipPath2)" width="380" rx="4" ry="4" height="110" stroke="none"/>
      <rect stroke-linecap="butt" x="0" y="475" clip-path="url(#clipPath2)" fill="none" width="380" rx="4" ry="4" height="110" stroke-width="2" stroke-miterlimit="1.45"/>
    </g>
    <g stroke-linecap="butt" font-size="15px" transform="matrix(1,0,0,1,15,-10)" fill="white" text-rendering="geometricPrecision" font-family="sans-serif" shape-rendering="geometricPrecision" stroke="white" font-weight="bold" stroke-miterlimit="1.45">
      <text x="137.6497" xml:space="preserve" y="515.3899" clip-path="url(#clipPath2)" stroke="none">IoT i płatności</text>
      <text x="66.9241" xml:space="preserve" y="535.8201" clip-path="url(#clipPath2)" stroke="none">ESP32 · Monobank QR · Checkbox</text>
      <text x="66.9842" xml:space="preserve" y="556.2502" clip-path="url(#clipPath2)" stroke="none">płatności w ekspresie · fiscalgate</text>
    </g>
    <g fill="rgb(22,138,83)" text-rendering="geometricPrecision" shape-rendering="geometricPrecision" transform="matrix(1,0,0,1,15,-10)" stroke="rgb(22,138,83)">
      <rect x="820" y="475" clip-path="url(#clipPath2)" width="380" rx="4" ry="4" height="110" stroke="none"/>
      <rect stroke-linecap="butt" x="820" y="475" clip-path="url(#clipPath2)" fill="none" width="380" rx="4" ry="4" height="110" stroke-width="2" stroke-miterlimit="1.45"/>
    </g>
    <g stroke-linecap="butt" font-size="15px" transform="matrix(1,0,0,1,15,-10)" fill="white" text-rendering="geometricPrecision" font-family="sans-serif" shape-rendering="geometricPrecision" stroke="white" font-weight="bold" stroke-miterlimit="1.45">
      <text x="955.3021" xml:space="preserve" y="515.3899" clip-path="url(#clipPath2)" stroke="none">Boty Telegram</text>
      <text x="871.999" xml:space="preserve" y="535.8201" clip-path="url(#clipPath2)" stroke="none">oparte na regułach i AI · e-commerce</text>
      <text x="879.3416" xml:space="preserve" y="556.2502" clip-path="url(#clipPath2)" stroke="none">subgate · bot GovTech · ShoPogoda</text>
    </g>
    <g stroke-linecap="butt" transform="matrix(1,0,0,1,15,-10)" fill="rgb(22,138,83)" text-rendering="geometricPrecision" shape-rendering="geometricPrecision" stroke="rgb(22,138,83)" stroke-width="3" stroke-miterlimit="1.45">
      <path fill="none" d="M600 330.0092 L600 135.0252" clip-path="url(#clipPath2)"/>
      <path fill="none" d="M444.4733 329.9966 L345.5356 295.0065" clip-path="url(#clipPath2)"/>
      <path fill="none" d="M755.5267 329.9966 L854.4644 295.0065" clip-path="url(#clipPath2)"/>
      <path fill="none" d="M444.4733 440.0034 L345.5356 474.9935" clip-path="url(#clipPath2)"/>
      <path fill="none" d="M755.5267 440.0034 L854.4644 474.9935" clip-path="url(#clipPath2)"/>
    </g>
  </g>
</svg>
