<?xml version="1.0" encoding="UTF-8"?><svg xmlns="http://www.w3.org/2000/svg" xmlns:xlink="http://www.w3.org/1999/xlink" fill-opacity="1" color-rendering="auto" color-interpolation="auto" text-rendering="auto" stroke="black" stroke-linecap="square" width="936" stroke-miterlimit="10" shape-rendering="auto" stroke-opacity="1" fill="black" stroke-dasharray="none" font-weight="normal" stroke-width="1" height="634" font-family="'Dialog'" font-style="normal" stroke-linejoin="miter" font-size="12px" stroke-dashoffset="0" image-rendering="auto">
  <!--Generated by ySVG 2.6-->
  <defs id="genericDefs"/>
  <g>
    <defs id="defs1">
      <clipPath clipPathUnits="userSpaceOnUse" id="clipPath1">
        <path d="M0 0 L936 0 L936 634 L0 634 L0 0 Z"/>
      </clipPath>
      <clipPath clipPathUnits="userSpaceOnUse" id="clipPath2">
        <path d="M14 6 L950 6 L950 640 L14 640 L14 6 Z"/>
      </clipPath>
    </defs>
    <g fill="white" text-rendering="geometricPrecision" shape-rendering="geometricPrecision" transform="translate(-14,-6)" stroke="white">
      <rect x="14" width="936" height="634" y="6" clip-path="url(#clipPath2)" stroke="none"/>
    </g>
    <g fill="rgb(238,244,255)" text-rendering="geometricPrecision" shape-rendering="geometricPrecision" transform="matrix(1,0,0,1,-14,-6)" stroke="rgb(238,244,255)">
      <rect x="29.583" y="21.294" clip-path="url(#clipPath2)" width="320.834" rx="4" ry="4" height="106.706" stroke="none"/>
    </g>
    <g stroke-linecap="butt" font-size="13px" transform="matrix(1,0,0,1,-14,-6)" fill="rgb(34,51,136)" text-rendering="geometricPrecision" font-family="sans-serif" shape-rendering="geometricPrecision" stroke="rgb(34,51,136)" font-weight="bold" stroke-miterlimit="1.45">
      <text x="135.3545" xml:space="preserve" y="37.191" clip-path="url(#clipPath2)" stroke="none">Channel Adapter</text>
    </g>
    <g stroke-linecap="butt" transform="matrix(1,0,0,1,-14,-6)" fill="rgb(85,119,204)" text-rendering="geometricPrecision" shape-rendering="geometricPrecision" stroke-dasharray="12,4" stroke="rgb(85,119,204)" stroke-width="2" stroke-miterlimit="1.45">
      <rect x="29.583" y="21.294" clip-path="url(#clipPath2)" fill="none" width="320.834" rx="4" ry="4" height="106.706"/>
    </g>
    <g fill="rgb(200,216,255)" text-rendering="geometricPrecision" shape-rendering="geometricPrecision" transform="matrix(1,0,0,1,-14,-6)" stroke="rgb(200,216,255)">
      <rect x="60" y="58" clip-path="url(#clipPath2)" width="260" rx="4" ry="4" height="55" stroke="none"/>
    </g>
    <g font-size="11px" stroke-linecap="butt" transform="matrix(1,0,0,1,-14,-6)" text-rendering="geometricPrecision" font-family="sans-serif" shape-rendering="geometricPrecision" stroke-miterlimit="1.45">
      <text x="155.1192" xml:space="preserve" y="82.277" clip-path="url(#clipPath2)" stroke="none">Telegram Bot</text>
      <text x="46.583" xml:space="preserve" y="97.2589" clip-path="url(#clipPath2)" stroke="none">webhook handler · subscription gate · rate-limit · dedup</text>
    </g>
    <g stroke-linecap="butt" transform="matrix(1,0,0,1,-14,-6)" fill="rgb(51,85,187)" text-rendering="geometricPrecision" shape-rendering="geometricPrecision" stroke="rgb(51,85,187)" stroke-miterlimit="1.45">
      <rect x="60" y="58" clip-path="url(#clipPath2)" fill="none" width="260" rx="4" ry="4" height="55"/>
    </g>
    <g fill="rgb(255,248,232)" text-rendering="geometricPrecision" shape-rendering="geometricPrecision" transform="matrix(1,0,0,1,-14,-6)" stroke="rgb(255,248,232)">
      <rect x="29.7616" y="178.294" clip-path="url(#clipPath2)" width="580.2384" rx="4" ry="4" height="276.706" stroke="none"/>
    </g>
    <g stroke-linecap="butt" font-size="13px" transform="matrix(1,0,0,1,-14,-6)" fill="rgb(102,68,0)" text-rendering="geometricPrecision" font-family="sans-serif" shape-rendering="geometricPrecision" stroke="rgb(102,68,0)" font-weight="bold" stroke-miterlimit="1.45">
      <text x="296.2208" xml:space="preserve" y="194.191" clip-path="url(#clipPath2)" stroke="none">AI Core</text>
    </g>
    <g stroke-linecap="butt" transform="matrix(1,0,0,1,-14,-6)" fill="rgb(204,136,51)" text-rendering="geometricPrecision" shape-rendering="geometricPrecision" stroke-dasharray="12,4" stroke="rgb(204,136,51)" stroke-width="2" stroke-miterlimit="1.45">
      <rect x="29.7616" y="178.294" clip-path="url(#clipPath2)" fill="none" width="580.2384" rx="4" ry="4" height="276.706"/>
    </g>
    <g fill="rgb(255,228,160)" text-rendering="geometricPrecision" shape-rendering="geometricPrecision" transform="matrix(1,0,0,1,-14,-6)" stroke="rgb(255,228,160)">
      <rect x="55" y="215" clip-path="url(#clipPath2)" width="165" rx="4" ry="4" height="50" stroke="none"/>
    </g>
    <g font-size="11px" stroke-linecap="butt" transform="matrix(1,0,0,1,-14,-6)" text-rendering="geometricPrecision" font-family="sans-serif" shape-rendering="geometricPrecision" stroke-miterlimit="1.45">
      <text x="119.9936" xml:space="preserve" y="236.777" clip-path="url(#clipPath2)" stroke="none">Router</text>
      <text x="85.8554" xml:space="preserve" y="251.7589" clip-path="url(#clipPath2)" stroke="none">RAG + LLM classifier</text>
    </g>
    <g stroke-linecap="butt" transform="matrix(1,0,0,1,-14,-6)" fill="rgb(204,136,51)" text-rendering="geometricPrecision" shape-rendering="geometricPrecision" stroke="rgb(204,136,51)" stroke-miterlimit="1.45">
      <rect x="55" y="215" clip-path="url(#clipPath2)" fill="none" width="165" rx="4" ry="4" height="50"/>
    </g>
    <g fill="rgb(255,228,160)" text-rendering="geometricPrecision" shape-rendering="geometricPrecision" transform="matrix(1,0,0,1,-14,-6)" stroke="rgb(255,228,160)">
      <rect x="240" y="215" clip-path="url(#clipPath2)" width="165" rx="4" ry="4" height="50" stroke="none"/>
    </g>
    <g font-size="11px" stroke-linecap="butt" transform="matrix(1,0,0,1,-14,-6)" text-rendering="geometricPrecision" font-family="sans-serif" shape-rendering="geometricPrecision" stroke-miterlimit="1.45">
      <text x="286.7227" xml:space="preserve" y="236.777" clip-path="url(#clipPath2)" stroke="none">Active Section</text>
      <text x="241.3921" xml:space="preserve" y="251.7589" clip-path="url(#clipPath2)" stroke="none">RAG dialogue · Prompt Registry</text>
    </g>
    <g stroke-linecap="butt" transform="matrix(1,0,0,1,-14,-6)" fill="rgb(204,136,51)" text-rendering="geometricPrecision" shape-rendering="geometricPrecision" stroke="rgb(204,136,51)" stroke-miterlimit="1.45">
      <rect x="240" y="215" clip-path="url(#clipPath2)" fill="none" width="165" rx="4" ry="4" height="50"/>
    </g>
    <g fill="rgb(255,228,160)" text-rendering="geometricPrecision" shape-rendering="geometricPrecision" transform="matrix(1,0,0,1,-14,-6)" stroke="rgb(255,228,160)">
      <rect x="430" y="215" clip-path="url(#clipPath2)" width="165" rx="4" ry="4" height="50" stroke="none"/>
    </g>
    <g font-size="11px" stroke-linecap="butt" transform="matrix(1,0,0,1,-14,-6)" text-rendering="geometricPrecision" font-family="sans-serif" shape-rendering="geometricPrecision" stroke-miterlimit="1.45">
      <text x="485.5282" xml:space="preserve" y="236.777" clip-path="url(#clipPath2)" stroke="none">Guardrails</text>
      <text x="434.439" xml:space="preserve" y="251.7589" clip-path="url(#clipPath2)" stroke="none">L1 sanitize · L3 output validate</text>
    </g>
    <g stroke-linecap="butt" transform="matrix(1,0,0,1,-14,-6)" fill="rgb(204,136,51)" text-rendering="geometricPrecision" shape-rendering="geometricPrecision" stroke="rgb(204,136,51)" stroke-miterlimit="1.45">
      <rect x="430" y="215" clip-path="url(#clipPath2)" fill="none" width="165" rx="4" ry="4" height="50"/>
    </g>
    <g fill="rgb(255,228,160)" text-rendering="geometricPrecision" shape-rendering="geometricPrecision" transform="matrix(1,0,0,1,-14,-6)" stroke="rgb(255,228,160)">
      <rect x="55" y="300" clip-path="url(#clipPath2)" width="165" rx="4" ry="4" height="50" stroke="none"/>
    </g>
    <g font-size="11px" stroke-linecap="butt" transform="matrix(1,0,0,1,-14,-6)" text-rendering="geometricPrecision" font-family="sans-serif" shape-rendering="geometricPrecision" stroke-miterlimit="1.45">
      <text x="113.9657" xml:space="preserve" y="321.777" clip-path="url(#clipPath2)" stroke="none">Extractor</text>
      <text x="46.7616" xml:space="preserve" y="336.7589" clip-path="url(#clipPath2)" stroke="none">function calling · schema validation</text>
    </g>
    <g stroke-linecap="butt" transform="matrix(1,0,0,1,-14,-6)" fill="rgb(204,136,51)" text-rendering="geometricPrecision" shape-rendering="geometricPrecision" stroke="rgb(204,136,51)" stroke-miterlimit="1.45">
      <rect x="55" y="300" clip-path="url(#clipPath2)" fill="none" width="165" rx="4" ry="4" height="50"/>
    </g>
    <g fill="rgb(255,228,160)" text-rendering="geometricPrecision" shape-rendering="geometricPrecision" transform="matrix(1,0,0,1,-14,-6)" stroke="rgb(255,228,160)">
      <rect x="240" y="300" clip-path="url(#clipPath2)" width="165" rx="4" ry="4" height="50" stroke="none"/>
    </g>
    <g font-size="11px" stroke-linecap="butt" transform="matrix(1,0,0,1,-14,-6)" text-rendering="geometricPrecision" font-family="sans-serif" shape-rendering="geometricPrecision" stroke-miterlimit="1.45">
      <text x="264.2499" xml:space="preserve" y="321.777" clip-path="url(#clipPath2)" stroke="none">Consistency Controller</text>
      <text x="265.7899" xml:space="preserve" y="336.7589" clip-path="url(#clipPath2)" stroke="none">donor rules validation</text>
    </g>
    <g stroke-linecap="butt" transform="matrix(1,0,0,1,-14,-6)" fill="rgb(204,136,51)" text-rendering="geometricPrecision" shape-rendering="geometricPrecision" stroke="rgb(204,136,51)" stroke-miterlimit="1.45">
      <rect x="240" y="300" clip-path="url(#clipPath2)" fill="none" width="165" rx="4" ry="4" height="50"/>
    </g>
    <g fill="rgb(255,228,160)" text-rendering="geometricPrecision" shape-rendering="geometricPrecision" transform="matrix(1,0,0,1,-14,-6)" stroke="rgb(255,228,160)">
      <rect x="430" y="300" clip-path="url(#clipPath2)" width="165" rx="4" ry="4" height="50" stroke="none"/>
    </g>
    <g font-size="11px" stroke-linecap="butt" transform="matrix(1,0,0,1,-14,-6)" text-rendering="geometricPrecision" font-family="sans-serif" shape-rendering="geometricPrecision" stroke-miterlimit="1.45">
      <text x="464.0453" xml:space="preserve" y="321.777" clip-path="url(#clipPath2)" stroke="none">Artefact Generator</text>
      <text x="447.287" xml:space="preserve" y="336.7589" clip-path="url(#clipPath2)" stroke="none">excelize · formula-safe fill</text>
    </g>
    <g stroke-linecap="butt" transform="matrix(1,0,0,1,-14,-6)" fill="rgb(204,136,51)" text-rendering="geometricPrecision" shape-rendering="geometricPrecision" stroke="rgb(204,136,51)" stroke-miterlimit="1.45">
      <rect x="430" y="300" clip-path="url(#clipPath2)" fill="none" width="165" rx="4" ry="4" height="50"/>
    </g>
    <g fill="rgb(255,228,160)" text-rendering="geometricPrecision" shape-rendering="geometricPrecision" transform="matrix(1,0,0,1,-14,-6)" stroke="rgb(255,228,160)">
      <rect x="55" y="390" clip-path="url(#clipPath2)" width="165" rx="4" ry="4" height="50" stroke="none"/>
    </g>
    <g font-size="11px" stroke-linecap="butt" transform="matrix(1,0,0,1,-14,-6)" text-rendering="geometricPrecision" font-family="sans-serif" shape-rendering="geometricPrecision" stroke-miterlimit="1.45">
      <text x="102.8282" xml:space="preserve" y="411.777" clip-path="url(#clipPath2)" stroke="none">Session Store</text>
      <text x="62.9095" xml:space="preserve" y="426.7589" clip-path="url(#clipPath2)" stroke="none">12-state FSM · optimistic lock</text>
    </g>
    <g stroke-linecap="butt" transform="matrix(1,0,0,1,-14,-6)" fill="rgb(204,136,51)" text-rendering="geometricPrecision" shape-rendering="geometricPrecision" stroke="rgb(204,136,51)" stroke-miterlimit="1.45">
      <rect x="55" y="390" clip-path="url(#clipPath2)" fill="none" width="165" rx="4" ry="4" height="50"/>
    </g>
    <g fill="rgb(255,228,160)" text-rendering="geometricPrecision" shape-rendering="geometricPrecision" transform="matrix(1,0,0,1,-14,-6)" stroke="rgb(255,228,160)">
      <rect x="240" y="390" clip-path="url(#clipPath2)" width="165" rx="4" ry="4" height="50" stroke="none"/>
    </g>
    <g font-size="11px" stroke-linecap="butt" transform="matrix(1,0,0,1,-14,-6)" text-rendering="geometricPrecision" font-family="sans-serif" shape-rendering="geometricPrecision" stroke-miterlimit="1.45">
      <text x="306.4676" xml:space="preserve" y="411.777" clip-path="url(#clipPath2)" stroke="none">Billing</text>
      <text x="251.9245" xml:space="preserve" y="426.7589" clip-path="url(#clipPath2)" stroke="none">subscription · UsageLedger</text>
    </g>
    <g stroke-linecap="butt" transform="matrix(1,0,0,1,-14,-6)" fill="rgb(204,136,51)" text-rendering="geometricPrecision" shape-rendering="geometricPrecision" stroke="rgb(204,136,51)" stroke-miterlimit="1.45">
      <rect x="240" y="390" clip-path="url(#clipPath2)" fill="none" width="165" rx="4" ry="4" height="50"/>
    </g>
    <g fill="rgb(255,228,160)" text-rendering="geometricPrecision" shape-rendering="geometricPrecision" transform="matrix(1,0,0,1,-14,-6)" stroke="rgb(255,228,160)">
      <rect x="430" y="390" clip-path="url(#clipPath2)" width="165" rx="4" ry="4" height="50" stroke="none"/>
    </g>
    <g font-size="11px" stroke-linecap="butt" transform="matrix(1,0,0,1,-14,-6)" text-rendering="geometricPrecision" font-family="sans-serif" shape-rendering="geometricPrecision" stroke-miterlimit="1.45">
      <text x="470.7883" xml:space="preserve" y="411.777" clip-path="url(#clipPath2)" stroke="none">People &amp; Access</text>
      <text x="457.3354" xml:space="preserve" y="426.7589" clip-path="url(#clipPath2)" stroke="none">5 roles · ConsentGate</text>
    </g>
    <g stroke-linecap="butt" transform="matrix(1,0,0,1,-14,-6)" fill="rgb(204,136,51)" text-rendering="geometricPrecision" shape-rendering="geometricPrecision" stroke="rgb(204,136,51)" stroke-miterlimit="1.45">
      <rect x="430" y="390" clip-path="url(#clipPath2)" fill="none" width="165" rx="4" ry="4" height="50"/>
      <path fill="none" d="M180.6561 112.9977 L148.8983 206.4564" stroke-width="2" clip-path="url(#clipPath2)" stroke="rgb(51,85,187)"/>
      <path fill="rgb(51,85,187)" d="M146.0027 214.9778 L155.6721 204.0054 L149.2603 205.3912 L145.0202 200.3858 Z" stroke-width="2" clip-path="url(#clipPath2)" stroke="none"/>
      <rect x="121.527" y="155.871" clip-path="url(#clipPath2)" fill="white" width="83.5966" height="16.2581" stroke="none" stroke-width="2"/>
    </g>
    <g stroke-linecap="butt" font-size="9px" transform="matrix(1,0,0,1,-14,-6)" fill="rgb(51,51,51)" text-rendering="geometricPrecision" font-family="sans-serif" shape-rendering="geometricPrecision" stroke="rgb(51,51,51)" stroke-miterlimit="1.45">
      <text x="123.527" xml:space="preserve" y="167.492" clip-path="url(#clipPath2)" stroke="none">incoming message</text>
    </g>
    <g stroke-linecap="butt" transform="matrix(1,0,0,1,-14,-6)" fill="rgb(204,136,51)" text-rendering="geometricPrecision" shape-rendering="geometricPrecision" stroke="rgb(204,136,51)" stroke-miterlimit="1.45">
      <path fill="none" d="M220.0183 240 L232.0092 240" clip-path="url(#clipPath2)"/>
      <path d="M240.0092 240 L228.0092 235 L231.0092 240 L228.0092 245 Z" clip-path="url(#clipPath2)" stroke="none"/>
      <rect x="216.4754" y="231.871" clip-path="url(#clipPath2)" fill="white" width="27.0492" height="16.2581" stroke="none"/>
    </g>
    <g stroke-linecap="butt" font-size="9px" transform="matrix(1,0,0,1,-14,-6)" fill="rgb(51,51,51)" text-rendering="geometricPrecision" font-family="sans-serif" shape-rendering="geometricPrecision" stroke="rgb(51,51,51)" stroke-miterlimit="1.45">
      <text x="218.4754" xml:space="preserve" y="243.492" clip-path="url(#clipPath2)" stroke="none">route</text>
    </g>
    <g stroke-linecap="butt" transform="matrix(1,0,0,1,-14,-6)" fill="rgb(204,136,51)" text-rendering="geometricPrecision" shape-rendering="geometricPrecision" stroke="rgb(204,136,51)" stroke-miterlimit="1.45">
      <path fill="none" d="M268.075 265.0061 L199.1863 296.6577" clip-path="url(#clipPath2)"/>
      <path d="M191.9169 299.9977 L204.9085 299.531 L200.0949 296.2401 L200.7335 290.4443 Z" clip-path="url(#clipPath2)" stroke="none"/>
      <rect x="183.3057" y="274.371" clip-path="url(#clipPath2)" fill="white" width="93.3887" height="16.2581" stroke="none"/>
    </g>
    <g stroke-linecap="butt" font-size="9px" transform="matrix(1,0,0,1,-14,-6)" fill="rgb(51,51,51)" text-rendering="geometricPrecision" font-family="sans-serif" shape-rendering="geometricPrecision" stroke="rgb(51,51,51)" stroke-miterlimit="1.45">
      <text x="185.3057" xml:space="preserve" y="285.992" clip-path="url(#clipPath2)" stroke="none">structured extraction</text>
    </g>
    <g stroke-linecap="butt" transform="matrix(1,0,0,1,-14,-6)" fill="rgb(204,136,51)" text-rendering="geometricPrecision" shape-rendering="geometricPrecision" stroke="rgb(204,136,51)" stroke-miterlimit="1.45">
      <path fill="none" d="M220.0183 325 L232.0092 325" clip-path="url(#clipPath2)"/>
      <path d="M240.0092 325 L228.0092 320 L231.0092 325 L228.0092 330 Z" clip-path="url(#clipPath2)" stroke="none"/>
      <rect x="217.9874" y="316.871" clip-path="url(#clipPath2)" fill="white" width="24.0252" height="16.2581" stroke="none"/>
    </g>
    <g stroke-linecap="butt" font-size="9px" transform="matrix(1,0,0,1,-14,-6)" fill="rgb(51,51,51)" text-rendering="geometricPrecision" font-family="sans-serif" shape-rendering="geometricPrecision" stroke="rgb(51,51,51)" stroke-miterlimit="1.45">
      <text x="219.9874" xml:space="preserve" y="328.492" clip-path="url(#clipPath2)" stroke="none">facts</text>
    </g>
    <g stroke-linecap="butt" transform="matrix(1,0,0,1,-14,-6)" fill="rgb(204,136,51)" text-rendering="geometricPrecision" shape-rendering="geometricPrecision" stroke="rgb(204,136,51)" stroke-miterlimit="1.45">
      <path fill="none" d="M405.022 325 L421.976 325" clip-path="url(#clipPath2)"/>
      <path d="M429.976 325 L417.976 320 L420.976 325 L417.976 330 Z" clip-path="url(#clipPath2)" stroke="none"/>
      <rect x="384.9628" y="316.871" clip-path="url(#clipPath2)" fill="white" width="65.0745" height="16.2581" stroke="none"/>
    </g>
    <g stroke-linecap="butt" font-size="9px" transform="matrix(1,0,0,1,-14,-6)" fill="rgb(51,51,51)" text-rendering="geometricPrecision" font-family="sans-serif" shape-rendering="geometricPrecision" stroke="rgb(51,51,51)" stroke-miterlimit="1.45">
      <text x="386.9628" xml:space="preserve" y="328.492" clip-path="url(#clipPath2)" stroke="none">validated facts</text>
    </g>
    <g stroke-linecap="butt" transform="matrix(1,0,0,1,-14,-6)" fill="rgb(51,85,187)" text-rendering="geometricPrecision" shape-rendering="geometricPrecision" stroke="rgb(51,85,187)" stroke-width="2" stroke-miterlimit="1.45">
      <path fill="none" d="M478.8406 300.0034 L234.2825 118.3858" clip-path="url(#clipPath2)"/>
      <path d="M227.0571 113.0199 L234.5416 125.5846 L235.1857 119.0565 L241.2489 116.5528 Z" clip-path="url(#clipPath2)" stroke="none"/>
      <rect x="324.077" y="198.371" clip-path="url(#clipPath2)" fill="white" width="57.7124" height="16.2581" stroke="none"/>
    </g>
    <g stroke-linecap="butt" font-size="9px" transform="matrix(1,0,0,1,-14,-6)" fill="rgb(51,51,51)" text-rendering="geometricPrecision" font-family="sans-serif" shape-rendering="geometricPrecision" stroke="rgb(51,51,51)" stroke-miterlimit="1.45">
      <text x="326.077" xml:space="preserve" y="209.992" clip-path="url(#clipPath2)" stroke="none">.xlsx artefact</text>
    </g>
    <g fill="rgb(240,255,240)" text-rendering="geometricPrecision" shape-rendering="geometricPrecision" transform="matrix(1,0,0,1,-14,-6)" stroke="rgb(240,255,240)">
      <rect x="680" y="38.294" clip-path="url(#clipPath2)" width="255" rx="4" ry="4" height="261.706" stroke="none"/>
    </g>
    <g stroke-linecap="butt" font-size="13px" transform="matrix(1,0,0,1,-14,-6)" fill="rgb(26,92,42)" text-rendering="geometricPrecision" font-family="sans-serif" shape-rendering="geometricPrecision" stroke="rgb(26,92,42)" font-weight="bold" stroke-miterlimit="1.45">
      <text x="772.2375" xml:space="preserve" y="54.191" clip-path="url(#clipPath2)" stroke="none">Data Layer</text>
    </g>
    <g stroke-linecap="butt" transform="matrix(1,0,0,1,-14,-6)" fill="rgb(46,125,50)" text-rendering="geometricPrecision" shape-rendering="geometricPrecision" stroke-dasharray="12,4" stroke="rgb(46,125,50)" stroke-width="2" stroke-miterlimit="1.45">
      <rect x="680" y="38.294" clip-path="url(#clipPath2)" fill="none" width="255" rx="4" ry="4" height="261.706"/>
    </g>
    <g fill="rgb(200,240,200)" text-rendering="geometricPrecision" shape-rendering="geometricPrecision" transform="matrix(1,0,0,1,-14,-6)" stroke="rgb(200,240,200)">
      <rect x="695" y="75" clip-path="url(#clipPath2)" width="225" rx="4" ry="4" height="60" stroke="none"/>
    </g>
    <g font-size="11px" stroke-linecap="butt" transform="matrix(1,0,0,1,-14,-6)" text-rendering="geometricPrecision" font-family="sans-serif" shape-rendering="geometricPrecision" stroke-miterlimit="1.45">
      <text x="740.659" xml:space="preserve" y="101.777" clip-path="url(#clipPath2)" stroke="none">PostgreSQL 16 + pgvector</text>
      <text x="718.1971" xml:space="preserve" y="116.7589" clip-path="url(#clipPath2)" stroke="none">sessions · KB chunks · HNSW index</text>
    </g>
    <g stroke-linecap="butt" transform="matrix(1,0,0,1,-14,-6)" fill="rgb(46,125,50)" text-rendering="geometricPrecision" shape-rendering="geometricPrecision" stroke="rgb(46,125,50)" stroke-miterlimit="1.45">
      <rect x="695" y="75" clip-path="url(#clipPath2)" fill="none" width="225" rx="4" ry="4" height="60"/>
    </g>
    <g fill="rgb(200,240,200)" text-rendering="geometricPrecision" shape-rendering="geometricPrecision" transform="matrix(1,0,0,1,-14,-6)" stroke="rgb(200,240,200)">
      <rect x="695" y="155" clip-path="url(#clipPath2)" width="225" rx="4" ry="4" height="60" stroke="none"/>
    </g>
    <g font-size="11px" stroke-linecap="butt" transform="matrix(1,0,0,1,-14,-6)" text-rendering="geometricPrecision" font-family="sans-serif" shape-rendering="geometricPrecision" stroke-miterlimit="1.45">
      <text x="751.0759" xml:space="preserve" y="181.777" clip-path="url(#clipPath2)" stroke="none">Ollama bge-m3 (local)</text>
      <text x="710.0737" xml:space="preserve" y="196.7589" clip-path="url(#clipPath2)" stroke="none">1024-dim · multilingual · ~3-4 GB RAM</text>
    </g>
    <g stroke-linecap="butt" transform="matrix(1,0,0,1,-14,-6)" fill="rgb(46,125,50)" text-rendering="geometricPrecision" shape-rendering="geometricPrecision" stroke="rgb(46,125,50)" stroke-miterlimit="1.45">
      <rect x="695" y="155" clip-path="url(#clipPath2)" fill="none" width="225" rx="4" ry="4" height="60"/>
    </g>
    <g fill="rgb(200,240,200)" text-rendering="geometricPrecision" shape-rendering="geometricPrecision" transform="matrix(1,0,0,1,-14,-6)" stroke="rgb(200,240,200)">
      <rect x="695" y="235" clip-path="url(#clipPath2)" width="225" rx="4" ry="4" height="50" stroke="none"/>
    </g>
    <g font-size="11px" stroke-linecap="butt" transform="matrix(1,0,0,1,-14,-6)" text-rendering="geometricPrecision" font-family="sans-serif" shape-rendering="geometricPrecision" stroke-miterlimit="1.45">
      <text x="769.0718" xml:space="preserve" y="256.777" clip-path="url(#clipPath2)" stroke="none">Object Storage</text>
      <text x="713.7861" xml:space="preserve" y="271.7589" clip-path="url(#clipPath2)" stroke="none">B2 / DO Spaces · artefacts + backups</text>
    </g>
    <g stroke-linecap="butt" transform="matrix(1,0,0,1,-14,-6)" fill="rgb(46,125,50)" text-rendering="geometricPrecision" shape-rendering="geometricPrecision" stroke="rgb(46,125,50)" stroke-miterlimit="1.45">
      <rect x="695" y="235" clip-path="url(#clipPath2)" fill="none" width="225" rx="4" ry="4" height="50"/>
      <path fill="none" stroke-dasharray="6,2" d="M412.2343 215.0224 L691.9909 137.152" clip-path="url(#clipPath2)"/>
      <path stroke-dasharray="6,2" d="M404.5273 217.1677 L417.4286 218.7667 L413.1977 214.7543 L414.747 209.1329 Z" clip-path="url(#clipPath2)" stroke="none"/>
      <path stroke-dasharray="6,2" d="M699.6979 135.0068 L686.7966 133.4077 L691.0275 137.4202 L689.4782 143.0415 Z" clip-path="url(#clipPath2)" stroke="none"/>
      <rect x="513.2552" y="168.5462" clip-path="url(#clipPath2)" fill="white" width="73.4895" stroke-dasharray="6,2" height="16.2581" stroke="none"/>
    </g>
    <g stroke-linecap="butt" font-size="9px" transform="matrix(1,0,0,1,-14,-6)" fill="rgb(51,51,51)" text-rendering="geometricPrecision" font-family="sans-serif" shape-rendering="geometricPrecision" stroke="rgb(51,51,51)" stroke-miterlimit="1.45">
      <text x="515.2552" xml:space="preserve" y="180.1673" clip-path="url(#clipPath2)" stroke="none">session / chunks</text>
    </g>
    <g stroke-linecap="butt" transform="matrix(1,0,0,1,-14,-6)" fill="rgb(46,125,50)" text-rendering="geometricPrecision" shape-rendering="geometricPrecision" stroke-dasharray="6,2" stroke="rgb(46,125,50)" stroke-miterlimit="1.45">
      <path fill="none" d="M198.7809 386.6461 L735.3857 138.3663" clip-path="url(#clipPath2)"/>
      <path d="M191.5204 390.0055 L204.5107 389.5043 L199.6884 386.2262 L200.3115 380.4287 Z" clip-path="url(#clipPath2)" stroke="none"/>
      <path d="M742.6462 135.007 L729.6558 135.5082 L734.4781 138.7862 L733.855 144.5838 Z" clip-path="url(#clipPath2)" stroke="none"/>
      <rect x="434.7441" y="254.371" clip-path="url(#clipPath2)" fill="white" width="64.7054" height="16.2581" stroke="none"/>
    </g>
    <g stroke-linecap="butt" font-size="9px" transform="matrix(1,0,0,1,-14,-6)" fill="rgb(51,51,51)" text-rendering="geometricPrecision" font-family="sans-serif" shape-rendering="geometricPrecision" stroke="rgb(51,51,51)" stroke-miterlimit="1.45">
      <text x="436.744" xml:space="preserve" y="265.992" clip-path="url(#clipPath2)" stroke="none">FSM state R/W</text>
    </g>
    <g stroke-linecap="butt" transform="matrix(1,0,0,1,-14,-6)" fill="rgb(46,125,50)" text-rendering="geometricPrecision" shape-rendering="geometricPrecision" stroke-dasharray="6,2" stroke="rgb(46,125,50)" stroke-miterlimit="1.45">
      <path fill="none" d="M412.95 229.7428 L687.0851 198.6553" clip-path="url(#clipPath2)"/>
      <path d="M405.0009 230.6442 L417.4879 234.2602 L413.9436 229.6301 L416.3611 224.3239 Z" clip-path="url(#clipPath2)" stroke="none"/>
      <path d="M695.0341 197.7539 L682.5471 194.1379 L686.0914 198.768 L683.674 204.0742 Z" clip-path="url(#clipPath2)" stroke="none"/>
      <rect x="514.2498" y="206.072" clip-path="url(#clipPath2)" fill="white" width="71.5005" height="16.2581" stroke="none"/>
    </g>
    <g stroke-linecap="butt" font-size="9px" transform="matrix(1,0,0,1,-14,-6)" fill="rgb(51,51,51)" text-rendering="geometricPrecision" font-family="sans-serif" shape-rendering="geometricPrecision" stroke="rgb(51,51,51)" stroke-miterlimit="1.45">
      <text x="516.2498" xml:space="preserve" y="217.6931" clip-path="url(#clipPath2)" stroke="none">embed + search</text>
    </g>
    <g stroke-linecap="butt" transform="matrix(1,0,0,1,-14,-6)" fill="rgb(46,125,50)" text-rendering="geometricPrecision" shape-rendering="geometricPrecision" stroke-dasharray="6,2" stroke="rgb(46,125,50)" stroke-miterlimit="1.45">
      <path fill="none" d="M227.9555 232.5746 L687.0364 194.8888" clip-path="url(#clipPath2)"/>
      <path d="M219.9823 233.2291 L232.3511 237.2305 L228.9521 232.4927 L231.533 227.2641 Z" clip-path="url(#clipPath2)" stroke="none"/>
      <path d="M695.0096 194.2343 L682.6407 190.2328 L686.0397 194.9706 L683.4589 200.1993 Z" clip-path="url(#clipPath2)" stroke="none"/>
      <rect x="427.9868" y="205.6023" clip-path="url(#clipPath2)" fill="white" width="59.0264" height="16.2581" stroke="none"/>
    </g>
    <g stroke-linecap="butt" font-size="9px" transform="matrix(1,0,0,1,-14,-6)" fill="rgb(51,51,51)" text-rendering="geometricPrecision" font-family="sans-serif" shape-rendering="geometricPrecision" stroke="rgb(51,51,51)" stroke-miterlimit="1.45">
      <text x="429.9868" xml:space="preserve" y="217.2234" clip-path="url(#clipPath2)" stroke="none">route embed</text>
    </g>
    <g stroke-linecap="butt" transform="matrix(1,0,0,1,-14,-6)" fill="rgb(46,125,50)" text-rendering="geometricPrecision" shape-rendering="geometricPrecision" stroke-dasharray="6,2" stroke="rgb(46,125,50)" stroke-miterlimit="1.45">
      <path fill="none" d="M595.0006 306.8219 L689.0539 286.0983" clip-path="url(#clipPath2)"/>
      <path d="M696.8665 284.3769 L684.0717 282.0761 L688.0773 286.3135 L686.2235 291.8419 Z" clip-path="url(#clipPath2)" stroke="none"/>
      <rect x="614.5283" y="287.676" clip-path="url(#clipPath2)" fill="white" width="60.9434" height="16.2581" stroke="none"/>
    </g>
    <g stroke-linecap="butt" font-size="9px" transform="matrix(1,0,0,1,-14,-6)" fill="rgb(51,51,51)" text-rendering="geometricPrecision" font-family="sans-serif" shape-rendering="geometricPrecision" stroke="rgb(51,51,51)" stroke-miterlimit="1.45">
      <text x="616.5283" xml:space="preserve" y="299.2971" clip-path="url(#clipPath2)" stroke="none">store artefact</text>
    </g>
    <g fill="rgb(248,255,248)" text-rendering="geometricPrecision" shape-rendering="geometricPrecision" transform="matrix(1,0,0,1,-14,-6)" stroke="rgb(248,255,248)">
      <rect x="680" y="343.294" clip-path="url(#clipPath2)" width="255" rx="4" ry="4" height="171.706" stroke="none"/>
    </g>
    <g stroke-linecap="butt" font-size="13px" transform="matrix(1,0,0,1,-14,-6)" fill="rgb(26,92,42)" text-rendering="geometricPrecision" font-family="sans-serif" shape-rendering="geometricPrecision" stroke="rgb(26,92,42)" font-weight="bold" stroke-miterlimit="1.45">
      <text x="752.1525" xml:space="preserve" y="359.191" clip-path="url(#clipPath2)" stroke="none">External Services</text>
    </g>
    <g stroke-linecap="butt" transform="matrix(1,0,0,1,-14,-6)" fill="rgb(51,153,85)" text-rendering="geometricPrecision" shape-rendering="geometricPrecision" stroke-dasharray="12,4" stroke="rgb(51,153,85)" stroke-width="2" stroke-miterlimit="1.45">
      <rect x="680" y="343.294" clip-path="url(#clipPath2)" fill="none" width="255" rx="4" ry="4" height="171.706"/>
    </g>
    <g fill="rgb(208,240,208)" text-rendering="geometricPrecision" shape-rendering="geometricPrecision" transform="matrix(1,0,0,1,-14,-6)" stroke="rgb(208,240,208)">
      <rect x="695" y="380" clip-path="url(#clipPath2)" width="225" rx="4" ry="4" height="50" stroke="none"/>
    </g>
    <g font-size="11px" stroke-linecap="butt" transform="matrix(1,0,0,1,-14,-6)" text-rendering="geometricPrecision" font-family="sans-serif" shape-rendering="geometricPrecision" stroke-miterlimit="1.45">
      <text x="775.8148" xml:space="preserve" y="401.777" clip-path="url(#clipPath2)" stroke="none">OpenRouter</text>
      <text x="725.6496" xml:space="preserve" y="416.7589" clip-path="url(#clipPath2)" stroke="none">LLM API · Claude / Gemini chain</text>
    </g>
    <g stroke-linecap="butt" transform="matrix(1,0,0,1,-14,-6)" fill="rgb(51,153,85)" text-rendering="geometricPrecision" shape-rendering="geometricPrecision" stroke="rgb(51,153,85)" stroke-miterlimit="1.45">
      <rect x="695" y="380" clip-path="url(#clipPath2)" fill="none" width="225" rx="4" ry="4" height="50"/>
    </g>
    <g fill="rgb(208,240,208)" text-rendering="geometricPrecision" shape-rendering="geometricPrecision" transform="matrix(1,0,0,1,-14,-6)" stroke="rgb(208,240,208)">
      <rect x="695" y="450" clip-path="url(#clipPath2)" width="225" rx="4" ry="4" height="50" stroke="none"/>
    </g>
    <g font-size="11px" stroke-linecap="butt" transform="matrix(1,0,0,1,-14,-6)" text-rendering="geometricPrecision" font-family="sans-serif" shape-rendering="geometricPrecision" stroke-miterlimit="1.45">
      <text x="783.2397" xml:space="preserve" y="471.777" clip-path="url(#clipPath2)" stroke="none">MonoPay</text>
      <text x="716.3491" xml:space="preserve" y="486.7589" clip-path="url(#clipPath2)" stroke="none">subscriptions · webhook · recurring</text>
    </g>
    <g stroke-linecap="butt" transform="matrix(1,0,0,1,-14,-6)" fill="rgb(51,153,85)" text-rendering="geometricPrecision" shape-rendering="geometricPrecision" stroke="rgb(51,153,85)" stroke-miterlimit="1.45">
      <rect x="695" y="450" clip-path="url(#clipPath2)" fill="none" width="225" rx="4" ry="4" height="50"/>
      <path fill="none" stroke-dasharray="6,2" d="M403.5756 267.5824 L726.4624 377.4305" clip-path="url(#clipPath2)"/>
      <path stroke-dasharray="6,2" d="M396.0019 265.0058 L405.752 273.6043 L404.5223 267.9045 L408.9728 264.1372 Z" clip-path="url(#clipPath2)" stroke="none"/>
      <path stroke-dasharray="6,2" d="M734.0361 380.0071 L724.2859 371.4086 L725.5157 377.1084 L721.0652 380.8758 Z" clip-path="url(#clipPath2)" stroke="none"/>
      <rect x="529.5214" y="312.8942" clip-path="url(#clipPath2)" fill="white" width="62.2754" stroke-dasharray="6,2" height="16.2581" stroke="none"/>
    </g>
    <g stroke-linecap="butt" font-size="9px" transform="matrix(1,0,0,1,-14,-6)" fill="rgb(51,51,51)" text-rendering="geometricPrecision" font-family="sans-serif" shape-rendering="geometricPrecision" stroke="rgb(51,51,51)" stroke-miterlimit="1.45">
      <text x="531.5214" xml:space="preserve" y="324.5152" clip-path="url(#clipPath2)" stroke="none">LLM generate</text>
    </g>
    <g stroke-linecap="butt" transform="matrix(1,0,0,1,-14,-6)" fill="rgb(51,153,85)" text-rendering="geometricPrecision" shape-rendering="geometricPrecision" stroke-dasharray="6,2" stroke="rgb(51,153,85)" stroke-miterlimit="1.45">
      <path fill="none" d="M227.9259 335.7971 L687.066 390.6198" clip-path="url(#clipPath2)"/>
      <path d="M219.9823 334.8486 L231.3049 341.2361 L228.9188 335.9157 L232.4905 331.3066 Z" clip-path="url(#clipPath2)" stroke="none"/>
      <path d="M695.0096 391.5683 L683.687 385.1808 L686.0731 390.5013 L682.5014 395.1103 Z" clip-path="url(#clipPath2)" stroke="none"/>
      <rect x="423.0547" y="355.0799" clip-path="url(#clipPath2)" fill="white" width="68.8905" height="16.2581" stroke="none"/>
    </g>
    <g stroke-linecap="butt" font-size="9px" transform="matrix(1,0,0,1,-14,-6)" fill="rgb(51,51,51)" text-rendering="geometricPrecision" font-family="sans-serif" shape-rendering="geometricPrecision" stroke="rgb(51,51,51)" stroke-miterlimit="1.45">
      <text x="425.0547" xml:space="preserve" y="366.701" clip-path="url(#clipPath2)" stroke="none">function calling</text>
    </g>
    <g stroke-linecap="butt" transform="matrix(1,0,0,1,-14,-6)" fill="rgb(51,153,85)" text-rendering="geometricPrecision" shape-rendering="geometricPrecision" stroke-dasharray="6,2" stroke="rgb(51,153,85)" stroke-miterlimit="1.45">
      <path fill="none" d="M412.9404 426.1885 L687.0947 460.1045" clip-path="url(#clipPath2)"/>
      <path d="M405.0009 425.2063 L416.2962 431.6418 L413.9328 426.3113 L417.524 421.7174 Z" clip-path="url(#clipPath2)" stroke="none"/>
      <path d="M695.0341 461.0867 L683.7388 454.6512 L686.1022 459.9817 L682.511 464.5756 Z" clip-path="url(#clipPath2)" stroke="none"/>
      <rect x="497.1002" y="435.0153" clip-path="url(#clipPath2)" fill="white" width="105.7997" height="16.2581" stroke="none"/>
    </g>
    <g stroke-linecap="butt" font-size="9px" transform="matrix(1,0,0,1,-14,-6)" fill="rgb(51,51,51)" text-rendering="geometricPrecision" font-family="sans-serif" shape-rendering="geometricPrecision" stroke="rgb(51,51,51)" stroke-miterlimit="1.45">
      <text x="499.1002" xml:space="preserve" y="446.6364" clip-path="url(#clipPath2)" stroke="none">payment link / webhook</text>
    </g>
    <g stroke-linecap="butt" transform="matrix(1,0,0,1,-14,-6)" fill="rgb(51,153,85)" text-rendering="geometricPrecision" shape-rendering="geometricPrecision" stroke-dasharray="6,2" stroke="rgb(51,153,85)" stroke-miterlimit="1.45">
      <path fill="none" d="M767.8887 450.0144 L240.3973 117.289" clip-path="url(#clipPath2)"/>
      <path d="M233.6309 113.021 L241.1129 123.652 L241.2431 117.8225 L246.448 115.1941 Z" clip-path="url(#clipPath2)" stroke="none"/>
      <rect x="459.3519" y="273.371" clip-path="url(#clipPath2)" fill="white" width="82.7595" height="16.2581" stroke="none"/>
    </g>
    <g stroke-linecap="butt" font-size="9px" transform="matrix(1,0,0,1,-14,-6)" fill="rgb(51,51,51)" text-rendering="geometricPrecision" font-family="sans-serif" shape-rendering="geometricPrecision" stroke="rgb(51,51,51)" stroke-miterlimit="1.45">
      <text x="461.3519" xml:space="preserve" y="284.992" clip-path="url(#clipPath2)" stroke="none">payment webhook</text>
    </g>
    <g fill="rgb(255,240,232)" text-rendering="geometricPrecision" shape-rendering="geometricPrecision" transform="matrix(1,0,0,1,-14,-6)" stroke="rgb(255,240,232)">
      <rect x="40" y="518.294" clip-path="url(#clipPath2)" width="770" rx="4" ry="4" height="106.706" stroke="none"/>
    </g>
    <g stroke-linecap="butt" font-size="13px" transform="matrix(1,0,0,1,-14,-6)" fill="rgb(122,51,0)" text-rendering="geometricPrecision" font-family="sans-serif" shape-rendering="geometricPrecision" stroke="rgb(122,51,0)" font-weight="bold" stroke-miterlimit="1.45">
      <text x="388.665" xml:space="preserve" y="534.191" clip-path="url(#clipPath2)" stroke="none">Operations</text>
    </g>
    <g stroke-linecap="butt" transform="matrix(1,0,0,1,-14,-6)" fill="rgb(204,102,51)" text-rendering="geometricPrecision" shape-rendering="geometricPrecision" stroke-dasharray="12,4" stroke="rgb(204,102,51)" stroke-width="2" stroke-miterlimit="1.45">
      <rect x="40" y="518.294" clip-path="url(#clipPath2)" fill="none" width="770" rx="4" ry="4" height="106.706"/>
    </g>
    <g fill="rgb(255,216,184)" text-rendering="geometricPrecision" shape-rendering="geometricPrecision" transform="matrix(1,0,0,1,-14,-6)" stroke="rgb(255,216,184)">
      <rect x="55" y="555" clip-path="url(#clipPath2)" width="220" rx="4" ry="4" height="55" stroke="none"/>
    </g>
    <g font-size="11px" stroke-linecap="butt" transform="matrix(1,0,0,1,-14,-6)" text-rendering="geometricPrecision" font-family="sans-serif" shape-rendering="geometricPrecision" stroke-miterlimit="1.45">
      <text x="104.9679" xml:space="preserve" y="579.277" clip-path="url(#clipPath2)" stroke="none">Operator Telegram Bot</text>
      <text x="71.6712" xml:space="preserve" y="594.2589" clip-path="url(#clipPath2)" stroke="none">@application_ops_bot · escalation queue</text>
    </g>
    <g stroke-linecap="butt" transform="matrix(1,0,0,1,-14,-6)" fill="rgb(204,102,51)" text-rendering="geometricPrecision" shape-rendering="geometricPrecision" stroke="rgb(204,102,51)" stroke-miterlimit="1.45">
      <rect x="55" y="555" clip-path="url(#clipPath2)" fill="none" width="220" rx="4" ry="4" height="55"/>
    </g>
    <g fill="rgb(255,216,184)" text-rendering="geometricPrecision" shape-rendering="geometricPrecision" transform="matrix(1,0,0,1,-14,-6)" stroke="rgb(255,216,184)">
      <rect x="295" y="555" clip-path="url(#clipPath2)" width="260" rx="4" ry="4" height="55" stroke="none"/>
    </g>
    <g font-size="11px" stroke-linecap="butt" transform="matrix(1,0,0,1,-14,-6)" text-rendering="geometricPrecision" font-family="sans-serif" shape-rendering="geometricPrecision" stroke-miterlimit="1.45">
      <text x="308.0103" xml:space="preserve" y="579.277" clip-path="url(#clipPath2)" stroke="none">OTel + Loki + Prometheus + Grafana + Tempo</text>
      <text x="336.2196" xml:space="preserve" y="594.2589" clip-path="url(#clipPath2)" stroke="none">10 SLI/SLO · audit log append-only</text>
    </g>
    <g stroke-linecap="butt" transform="matrix(1,0,0,1,-14,-6)" fill="rgb(204,102,51)" text-rendering="geometricPrecision" shape-rendering="geometricPrecision" stroke="rgb(204,102,51)" stroke-miterlimit="1.45">
      <rect x="295" y="555" clip-path="url(#clipPath2)" fill="none" width="260" rx="4" ry="4" height="55"/>
    </g>
    <g fill="rgb(255,216,184)" text-rendering="geometricPrecision" shape-rendering="geometricPrecision" transform="matrix(1,0,0,1,-14,-6)" stroke="rgb(255,216,184)">
      <rect x="575" y="555" clip-path="url(#clipPath2)" width="220" rx="4" ry="4" height="55" stroke="none"/>
    </g>
    <g font-size="11px" stroke-linecap="butt" transform="matrix(1,0,0,1,-14,-6)" text-rendering="geometricPrecision" font-family="sans-serif" shape-rendering="geometricPrecision" stroke-miterlimit="1.45">
      <text x="630.0499" xml:space="preserve" y="579.277" clip-path="url(#clipPath2)" stroke="none">Caddy + Let's Encrypt</text>
      <text x="595.1417" xml:space="preserve" y="594.2589" clip-path="url(#clipPath2)" stroke="none">TLS 1.3 termination · reverse proxy</text>
    </g>
    <g stroke-linecap="butt" transform="matrix(1,0,0,1,-14,-6)" fill="rgb(204,102,51)" text-rendering="geometricPrecision" shape-rendering="geometricPrecision" stroke="rgb(204,102,51)" stroke-miterlimit="1.45">
      <rect x="575" y="555" clip-path="url(#clipPath2)" fill="none" width="220" rx="4" ry="4" height="55"/>
      <path fill="none" stroke-dasharray="6,2" d="M487.1544 264.9809 L198.5991 549.3843" clip-path="url(#clipPath2)" stroke="rgb(204,51,51)"/>
      <path fill="rgb(204,51,51)" stroke-dasharray="6,2" d="M192.9014 555 L204.9578 550.1376 L199.3114 548.6824 L197.9382 543.0154 Z" clip-path="url(#clipPath2)" stroke="none"/>
      <rect x="316.6656" y="401.871" clip-path="url(#clipPath2)" fill="white" width="46.7053" stroke-dasharray="6,2" height="16.2581" stroke="none"/>
    </g>
    <g stroke-linecap="butt" font-size="9px" transform="matrix(1,0,0,1,-14,-6)" fill="rgb(204,51,51)" text-rendering="geometricPrecision" font-family="sans-serif" shape-rendering="geometricPrecision" stroke="rgb(204,51,51)" stroke-miterlimit="1.45">
      <text x="318.6656" xml:space="preserve" y="413.492" clip-path="url(#clipPath2)" stroke="none">escalation</text>
    </g>
  </g>
</svg>
