<?xml version="1.0" encoding="UTF-8"?><svg xmlns="http://www.w3.org/2000/svg" xmlns:xlink="http://www.w3.org/1999/xlink" fill-opacity="1" color-rendering="auto" color-interpolation="auto" text-rendering="auto" stroke="black" stroke-linecap="square" width="690" stroke-miterlimit="10" shape-rendering="auto" stroke-opacity="1" fill="black" stroke-dasharray="none" font-weight="normal" stroke-width="1" height="861" font-family="'Dialog'" font-style="normal" stroke-linejoin="miter" font-size="12px" stroke-dashoffset="0" image-rendering="auto">
  <!--Generated by ySVG 2.6-->
  <defs id="genericDefs"/>
  <g>
    <defs id="defs1">
      <clipPath clipPathUnits="userSpaceOnUse" id="clipPath1">
        <path d="M0 0 L690 0 L690 861 L0 861 L0 0 Z"/>
      </clipPath>
      <clipPath clipPathUnits="userSpaceOnUse" id="clipPath2">
        <path d="M-5 29 L685 29 L685 890 L-5 890 L-5 29 Z"/>
      </clipPath>
    </defs>
    <g fill="white" text-rendering="geometricPrecision" shape-rendering="geometricPrecision" transform="translate(5,-29)" stroke="white">
      <rect x="-5" width="690" height="861" y="29" clip-path="url(#clipPath2)" stroke="none"/>
    </g>
    <g fill="rgb(238,244,255)" text-rendering="geometricPrecision" shape-rendering="geometricPrecision" transform="matrix(1,0,0,1,5,-29)" stroke="rgb(238,244,255)">
      <rect x="10" width="180" height="830.3441" y="44.6559" clip-path="url(#clipPath2)" stroke="none"/>
    </g>
    <g stroke-linecap="butt" transform="matrix(1,0,0,1,5,-29)" fill="rgb(34,51,136)" text-rendering="geometricPrecision" font-family="sans-serif" shape-rendering="geometricPrecision" stroke="rgb(34,51,136)" font-weight="bold" stroke-miterlimit="1.45">
      <text x="86.2119" xml:space="preserve" y="59.484" clip-path="url(#clipPath2)" stroke="none">User</text>
    </g>
    <g stroke-linecap="butt" transform="matrix(1,0,0,1,5,-29)" fill="rgb(170,187,221)" text-rendering="geometricPrecision" shape-rendering="geometricPrecision" stroke="rgb(170,187,221)" stroke-miterlimit="1.45">
      <rect fill="none" x="10" width="180" height="830.3441" y="44.6559" clip-path="url(#clipPath2)"/>
    </g>
    <g fill="rgb(200,216,255)" text-rendering="geometricPrecision" shape-rendering="geometricPrecision" transform="matrix(1,0,0,1,5,-29)" stroke="rgb(200,216,255)">
      <rect x="25" y="80" clip-path="url(#clipPath2)" width="150" rx="4" ry="4" height="50" stroke="none"/>
    </g>
    <g font-size="10px" stroke-linecap="butt" transform="matrix(1,0,0,1,5,-29)" text-rendering="geometricPrecision" font-family="sans-serif" shape-rendering="geometricPrecision" stroke-miterlimit="1.45">
      <text x="86.225" xml:space="preserve" y="102.07" clip-path="url(#clipPath2)" stroke="none">sends</text>
      <text x="75.535" xml:space="preserve" y="115.69" clip-path="url(#clipPath2)" stroke="none">/subscribe</text>
    </g>
    <g stroke-linecap="butt" transform="matrix(1,0,0,1,5,-29)" fill="rgb(51,85,187)" text-rendering="geometricPrecision" shape-rendering="geometricPrecision" stroke="rgb(51,85,187)" stroke-miterlimit="1.45">
      <rect x="25" y="80" clip-path="url(#clipPath2)" fill="none" width="150" rx="4" ry="4" height="50"/>
    </g>
    <g fill="rgb(200,216,255)" text-rendering="geometricPrecision" shape-rendering="geometricPrecision" transform="matrix(1,0,0,1,5,-29)" stroke="rgb(200,216,255)">
      <rect x="25" y="530" clip-path="url(#clipPath2)" width="150" rx="4" ry="4" height="50" stroke="none"/>
    </g>
    <g font-size="10px" stroke-linecap="butt" transform="matrix(1,0,0,1,5,-29)" text-rendering="geometricPrecision" font-family="sans-serif" shape-rendering="geometricPrecision" stroke-miterlimit="1.45">
      <text x="75.955" xml:space="preserve" y="552.07" clip-path="url(#clipPath2)" stroke="none">opens link</text>
      <text x="57.885" xml:space="preserve" y="565.69" clip-path="url(#clipPath2)" stroke="none">pays via MonoPay</text>
    </g>
    <g stroke-linecap="butt" transform="matrix(1,0,0,1,5,-29)" fill="rgb(51,85,187)" text-rendering="geometricPrecision" shape-rendering="geometricPrecision" stroke="rgb(51,85,187)" stroke-miterlimit="1.45">
      <rect x="25" y="530" clip-path="url(#clipPath2)" fill="none" width="150" rx="4" ry="4" height="50"/>
    </g>
    <g fill="rgb(200,255,216)" text-rendering="geometricPrecision" shape-rendering="geometricPrecision" transform="matrix(1,0,0,1,5,-29)" stroke="rgb(200,255,216)">
      <rect x="25" y="810" clip-path="url(#clipPath2)" width="150" rx="4" ry="4" height="50" stroke="none"/>
    </g>
    <g font-size="10px" stroke-linecap="butt" transform="matrix(1,0,0,1,5,-29)" text-rendering="geometricPrecision" font-family="sans-serif" shape-rendering="geometricPrecision" stroke-miterlimit="1.45">
      <text x="75.32" xml:space="preserve" y="832.07" clip-path="url(#clipPath2)" stroke="none">✅ receives</text>
      <text x="43.995" xml:space="preserve" y="845.69" clip-path="url(#clipPath2)" stroke="none">"Підписку активовано"</text>
    </g>
    <g stroke-linecap="butt" transform="matrix(1,0,0,1,5,-29)" fill="rgb(46,125,50)" text-rendering="geometricPrecision" shape-rendering="geometricPrecision" stroke="rgb(46,125,50)" stroke-miterlimit="1.45">
      <rect x="25" y="810" clip-path="url(#clipPath2)" fill="none" width="150" rx="4" ry="4" height="50"/>
    </g>
    <g fill="rgb(255,248,232)" text-rendering="geometricPrecision" shape-rendering="geometricPrecision" transform="matrix(1,0,0,1,5,-29)" stroke="rgb(255,248,232)">
      <rect x="210" width="425" height="731.3941" y="129.6559" clip-path="url(#clipPath2)" stroke="none"/>
    </g>
    <g stroke-linecap="butt" transform="matrix(1,0,0,1,5,-29)" fill="rgb(102,68,0)" text-rendering="geometricPrecision" font-family="sans-serif" shape-rendering="geometricPrecision" stroke="rgb(102,68,0)" font-weight="bold" stroke-miterlimit="1.45">
      <text x="380.0737" xml:space="preserve" y="144.484" clip-path="url(#clipPath2)" stroke="none">Bot / Platform</text>
    </g>
    <g stroke-linecap="butt" transform="matrix(1,0,0,1,5,-29)" fill="rgb(221,187,136)" text-rendering="geometricPrecision" shape-rendering="geometricPrecision" stroke="rgb(221,187,136)" stroke-miterlimit="1.45">
      <rect fill="none" x="210" width="425" height="731.3941" y="129.6559" clip-path="url(#clipPath2)"/>
    </g>
    <g fill="rgb(255,228,160)" text-rendering="geometricPrecision" shape-rendering="geometricPrecision" transform="matrix(1,0,0,1,5,-29)" stroke="rgb(255,228,160)">
      <rect x="225" y="165" clip-path="url(#clipPath2)" width="220" rx="4" ry="4" height="50" stroke="none"/>
    </g>
    <g font-size="10px" stroke-linecap="butt" transform="matrix(1,0,0,1,5,-29)" text-rendering="geometricPrecision" font-family="sans-serif" shape-rendering="geometricPrecision" stroke-miterlimit="1.45">
      <text x="301.91" xml:space="preserve" y="187.07" clip-path="url(#clipPath2)" stroke="none">check existing</text>
      <text x="292.1251" xml:space="preserve" y="200.69" clip-path="url(#clipPath2)" stroke="none">subscription in DB</text>
    </g>
    <g stroke-linecap="butt" transform="matrix(1,0,0,1,5,-29)" fill="rgb(204,136,51)" text-rendering="geometricPrecision" shape-rendering="geometricPrecision" stroke="rgb(204,136,51)" stroke-miterlimit="1.45">
      <rect x="225" y="165" clip-path="url(#clipPath2)" fill="none" width="220" rx="4" ry="4" height="50"/>
    </g>
    <g fill="rgb(255,244,204)" text-rendering="geometricPrecision" shape-rendering="geometricPrecision" transform="matrix(1,0,0,1,5,-29)" stroke="rgb(255,244,204)">
      <path d="M240 282.5 L335 255 L430 282.5 L335 310 Z" fill-rule="evenodd" clip-path="url(#clipPath2)" stroke="none"/>
    </g>
    <g font-size="10px" stroke-linecap="butt" transform="matrix(1,0,0,1,5,-29)" text-rendering="geometricPrecision" font-family="sans-serif" shape-rendering="geometricPrecision" stroke-miterlimit="1.45">
      <text x="300.46" xml:space="preserve" y="286.38" clip-path="url(#clipPath2)" stroke="none">already active?</text>
    </g>
    <g stroke-linecap="butt" transform="matrix(1,0,0,1,5,-29)" fill="rgb(187,136,0)" text-rendering="geometricPrecision" shape-rendering="geometricPrecision" stroke="rgb(187,136,0)" stroke-miterlimit="1.45">
      <path fill="none" d="M240 282.5 L335 255 L430 282.5 L335 310 Z" fill-rule="evenodd" clip-path="url(#clipPath2)"/>
    </g>
    <g fill="rgb(255,228,160)" text-rendering="geometricPrecision" shape-rendering="geometricPrecision" transform="matrix(1,0,0,1,5,-29)" stroke="rgb(255,228,160)">
      <rect x="225" y="350" clip-path="url(#clipPath2)" width="220" rx="4" ry="4" height="50" stroke="none"/>
    </g>
    <g font-size="10px" stroke-linecap="butt" transform="matrix(1,0,0,1,5,-29)" text-rendering="geometricPrecision" font-family="sans-serif" shape-rendering="geometricPrecision" stroke-miterlimit="1.45">
      <text x="265.1701" xml:space="preserve" y="372.07" clip-path="url(#clipPath2)" stroke="none">create MonoPay payment link</text>
      <text x="273.285" xml:space="preserve" y="385.69" clip-path="url(#clipPath2)" stroke="none">(tariff_id, user_id, amount)</text>
    </g>
    <g stroke-linecap="butt" transform="matrix(1,0,0,1,5,-29)" fill="rgb(204,136,51)" text-rendering="geometricPrecision" shape-rendering="geometricPrecision" stroke="rgb(204,136,51)" stroke-miterlimit="1.45">
      <rect x="225" y="350" clip-path="url(#clipPath2)" fill="none" width="220" rx="4" ry="4" height="50"/>
    </g>
    <g fill="rgb(255,228,160)" text-rendering="geometricPrecision" shape-rendering="geometricPrecision" transform="matrix(1,0,0,1,5,-29)" stroke="rgb(255,228,160)">
      <rect x="225" y="430" clip-path="url(#clipPath2)" width="220" rx="4" ry="4" height="50" stroke="none"/>
    </g>
    <g font-size="10px" stroke-linecap="butt" transform="matrix(1,0,0,1,5,-29)" text-rendering="geometricPrecision" font-family="sans-serif" shape-rendering="geometricPrecision" stroke-miterlimit="1.45">
      <text x="287.795" xml:space="preserve" y="452.07" clip-path="url(#clipPath2)" stroke="none">INSERT subscription</text>
      <text x="278.175" xml:space="preserve" y="465.69" clip-path="url(#clipPath2)" stroke="none">state: payment_pending</text>
    </g>
    <g stroke-linecap="butt" transform="matrix(1,0,0,1,5,-29)" fill="rgb(204,136,51)" text-rendering="geometricPrecision" shape-rendering="geometricPrecision" stroke="rgb(204,136,51)" stroke-miterlimit="1.45">
      <rect x="225" y="430" clip-path="url(#clipPath2)" fill="none" width="220" rx="4" ry="4" height="50"/>
    </g>
    <g fill="rgb(255,228,160)" text-rendering="geometricPrecision" shape-rendering="geometricPrecision" transform="matrix(1,0,0,1,5,-29)" stroke="rgb(255,228,160)">
      <rect x="225" y="510" clip-path="url(#clipPath2)" width="220" rx="4" ry="4" height="50" stroke="none"/>
    </g>
    <g font-size="10px" stroke-linecap="butt" transform="matrix(1,0,0,1,5,-29)" text-rendering="geometricPrecision" font-family="sans-serif" shape-rendering="geometricPrecision" stroke-miterlimit="1.45">
      <text x="274.0601" xml:space="preserve" y="532.07" clip-path="url(#clipPath2)" stroke="none">send payment link to user</text>
      <text x="263.7051" xml:space="preserve" y="545.69" clip-path="url(#clipPath2)" stroke="none">&#128179; "Натисніть щоб оплатити"</text>
    </g>
    <g stroke-linecap="butt" transform="matrix(1,0,0,1,5,-29)" fill="rgb(204,136,51)" text-rendering="geometricPrecision" shape-rendering="geometricPrecision" stroke="rgb(204,136,51)" stroke-miterlimit="1.45">
      <rect x="225" y="510" clip-path="url(#clipPath2)" fill="none" width="220" rx="4" ry="4" height="50"/>
    </g>
    <g fill="rgb(255,228,160)" text-rendering="geometricPrecision" shape-rendering="geometricPrecision" transform="matrix(1,0,0,1,5,-29)" stroke="rgb(255,228,160)">
      <rect x="225" y="615" clip-path="url(#clipPath2)" width="220" rx="4" ry="4" height="50" stroke="none"/>
    </g>
    <g font-size="10px" stroke-linecap="butt" transform="matrix(1,0,0,1,5,-29)" text-rendering="geometricPrecision" font-family="sans-serif" shape-rendering="geometricPrecision" stroke-miterlimit="1.45">
      <text x="273.6451" xml:space="preserve" y="637.07" clip-path="url(#clipPath2)" stroke="none">POST /webhook/monopay</text>
      <text x="315.17" xml:space="preserve" y="650.69" clip-path="url(#clipPath2)" stroke="none">received</text>
    </g>
    <g stroke-linecap="butt" transform="matrix(1,0,0,1,5,-29)" fill="rgb(204,136,51)" text-rendering="geometricPrecision" shape-rendering="geometricPrecision" stroke="rgb(204,136,51)" stroke-miterlimit="1.45">
      <rect x="225" y="615" clip-path="url(#clipPath2)" fill="none" width="220" rx="4" ry="4" height="50"/>
    </g>
    <g fill="rgb(255,244,204)" text-rendering="geometricPrecision" shape-rendering="geometricPrecision" transform="matrix(1,0,0,1,5,-29)" stroke="rgb(255,244,204)">
      <path d="M240 722.5 L335 695 L430 722.5 L335 750 Z" fill-rule="evenodd" clip-path="url(#clipPath2)" stroke="none"/>
    </g>
    <g font-size="10px" stroke-linecap="butt" transform="matrix(1,0,0,1,5,-29)" text-rendering="geometricPrecision" font-family="sans-serif" shape-rendering="geometricPrecision" stroke-miterlimit="1.45">
      <text x="296.67" xml:space="preserve" y="719.57" clip-path="url(#clipPath2)" stroke="none">HMAC signature</text>
      <text x="321.83" xml:space="preserve" y="733.19" clip-path="url(#clipPath2)" stroke="none">valid?</text>
    </g>
    <g stroke-linecap="butt" transform="matrix(1,0,0,1,5,-29)" fill="rgb(187,136,0)" text-rendering="geometricPrecision" shape-rendering="geometricPrecision" stroke="rgb(187,136,0)" stroke-miterlimit="1.45">
      <path fill="none" d="M240 722.5 L335 695 L430 722.5 L335 750 Z" fill-rule="evenodd" clip-path="url(#clipPath2)"/>
    </g>
    <g fill="rgb(200,255,216)" text-rendering="geometricPrecision" shape-rendering="geometricPrecision" transform="matrix(1,0,0,1,5,-29)" stroke="rgb(200,255,216)">
      <rect x="225" y="785" clip-path="url(#clipPath2)" width="220" rx="4" ry="4" height="50" stroke="none"/>
    </g>
    <g font-size="10px" stroke-linecap="butt" transform="matrix(1,0,0,1,5,-29)" text-rendering="geometricPrecision" font-family="sans-serif" shape-rendering="geometricPrecision" stroke-miterlimit="1.45">
      <text x="311.485" xml:space="preserve" y="786.64" clip-path="url(#clipPath2)" stroke="none">BEGIN TX:</text>
      <text x="265.3901" xml:space="preserve" y="800.26" clip-path="url(#clipPath2)" stroke="none">UPDATE subscription → active</text>
      <text x="246.8101" xml:space="preserve" y="813.88" clip-path="url(#clipPath2)" stroke="none">INSERT UsageLedger: payment_event</text>
      <text x="286.0301" xml:space="preserve" y="827.5" clip-path="url(#clipPath2)" stroke="none">UPDATE session FSM</text>
      <text x="314.39" xml:space="preserve" y="841.12" clip-path="url(#clipPath2)" stroke="none">COMMIT</text>
    </g>
    <g stroke-linecap="butt" transform="matrix(1,0,0,1,5,-29)" fill="rgb(46,125,50)" text-rendering="geometricPrecision" shape-rendering="geometricPrecision" stroke="rgb(46,125,50)" stroke-miterlimit="1.45">
      <rect x="225" y="785" clip-path="url(#clipPath2)" fill="none" width="220" rx="4" ry="4" height="50"/>
    </g>
    <g fill="rgb(232,255,232)" text-rendering="geometricPrecision" shape-rendering="geometricPrecision" transform="matrix(1,0,0,1,5,-29)" stroke="rgb(232,255,232)">
      <rect x="460" y="255" clip-path="url(#clipPath2)" width="160" rx="4" ry="4" height="50" stroke="none"/>
    </g>
    <g font-size="10px" stroke-linecap="butt" transform="matrix(1,0,0,1,5,-29)" text-rendering="geometricPrecision" font-family="sans-serif" shape-rendering="geometricPrecision" stroke-miterlimit="1.45">
      <text x="494.8951" xml:space="preserve" y="277.07" clip-path="url(#clipPath2)" stroke="none">reply: вже активна</text>
      <text x="505.03" xml:space="preserve" y="290.69" clip-path="url(#clipPath2)" stroke="none">до {expires_at}</text>
    </g>
    <g stroke-linecap="butt" transform="matrix(1,0,0,1,5,-29)" fill="rgb(46,125,50)" text-rendering="geometricPrecision" shape-rendering="geometricPrecision" stroke="rgb(46,125,50)" stroke-miterlimit="1.45">
      <rect x="460" y="255" clip-path="url(#clipPath2)" fill="none" width="160" rx="4" ry="4" height="50"/>
    </g>
    <g fill="rgb(255,232,232)" text-rendering="geometricPrecision" shape-rendering="geometricPrecision" transform="matrix(1,0,0,1,5,-29)" stroke="rgb(255,232,232)">
      <rect x="460" y="695" clip-path="url(#clipPath2)" width="160" rx="4" ry="4" height="50" stroke="none"/>
    </g>
    <g font-size="10px" stroke-linecap="butt" transform="matrix(1,0,0,1,5,-29)" text-rendering="geometricPrecision" font-family="sans-serif" shape-rendering="geometricPrecision" stroke-miterlimit="1.45">
      <text x="491.6551" xml:space="preserve" y="717.07" clip-path="url(#clipPath2)" stroke="none">log: invalid webhook</text>
      <text x="485.1301" xml:space="preserve" y="730.69" clip-path="url(#clipPath2)" stroke="none">return HTTP 400, no-op</text>
    </g>
    <g stroke-linecap="butt" transform="matrix(1,0,0,1,5,-29)" fill="rgb(204,68,68)" text-rendering="geometricPrecision" shape-rendering="geometricPrecision" stroke="rgb(204,68,68)" stroke-miterlimit="1.45">
      <rect x="460" y="695" clip-path="url(#clipPath2)" fill="none" width="160" rx="4" ry="4" height="50"/>
      <path fill="none" d="M169.1058 129.9957 L258.3409 162.2722" clip-path="url(#clipPath2)" stroke="rgb(51,85,187)"/>
      <path fill="rgb(51,85,187)" d="M265.8639 164.9933 L256.2801 156.2098 L257.4005 161.9321 L252.8787 165.6136 Z" clip-path="url(#clipPath2)" stroke="none"/>
      <path fill="none" d="M335 214.9768 L335 246.9698" clip-path="url(#clipPath2)" stroke="rgb(204,136,51)"/>
      <path fill="rgb(204,136,51)" d="M335 254.9698 L340 242.9698 L335 245.9698 L330 242.9698 Z" clip-path="url(#clipPath2)" stroke="none"/>
      <path fill="none" d="M335 310.0061 L335 342.0243" clip-path="url(#clipPath2)" stroke="rgb(204,136,51)"/>
      <path fill="rgb(204,136,51)" d="M335 350.0243 L340 338.0243 L335 341.0243 L330 338.0243 Z" clip-path="url(#clipPath2)" stroke="none"/>
      <rect x="327.4965" y="321.871" clip-path="url(#clipPath2)" fill="white" width="15.0071" height="16.2581" stroke="none"/>
    </g>
    <g stroke-linecap="butt" font-size="9px" transform="matrix(1,0,0,1,5,-29)" fill="rgb(51,51,51)" text-rendering="geometricPrecision" font-family="sans-serif" shape-rendering="geometricPrecision" stroke="rgb(51,51,51)" stroke-miterlimit="1.45">
      <text x="329.4965" xml:space="preserve" y="333.492" clip-path="url(#clipPath2)" stroke="none">no</text>
    </g>
    <g stroke-linecap="butt" transform="matrix(1,0,0,1,5,-29)" fill="rgb(204,136,51)" text-rendering="geometricPrecision" shape-rendering="geometricPrecision" stroke="rgb(204,136,51)" stroke-miterlimit="1.45">
      <path fill="none" d="M335 479.9609 L335 501.9798" clip-path="url(#clipPath2)"/>
      <path d="M335 509.9798 L340 497.9798 L335 500.9798 L330 497.9798 Z" clip-path="url(#clipPath2)" stroke="none"/>
      <path fill="none" d="M224.9872 544.3628 L182.9452 547.9409" clip-path="url(#clipPath2)" stroke="rgb(51,85,187)"/>
      <path fill="rgb(51,85,187)" d="M174.974 548.6193 L187.3548 552.5836 L183.9416 547.8561 L186.5068 542.6197 Z" clip-path="url(#clipPath2)" stroke="none"/>
      <rect x="150.6732" y="538.3603" clip-path="url(#clipPath2)" fill="white" width="98.6537" height="16.2581" stroke="none"/>
    </g>
    <g stroke-linecap="butt" font-size="9px" transform="matrix(1,0,0,1,5,-29)" fill="rgb(51,85,187)" text-rendering="geometricPrecision" font-family="sans-serif" shape-rendering="geometricPrecision" stroke="rgb(51,85,187)" stroke-miterlimit="1.45">
      <text x="152.6732" xml:space="preserve" y="549.9814" clip-path="url(#clipPath2)" stroke="none">send link via Telegram</text>
    </g>
    <g stroke-linecap="butt" transform="matrix(1,0,0,1,5,-29)" fill="rgb(204,136,51)" text-rendering="geometricPrecision" shape-rendering="geometricPrecision" stroke="rgb(204,136,51)" stroke-miterlimit="1.45">
      <path fill="none" d="M335 665.0159 L335 687.021" clip-path="url(#clipPath2)"/>
      <path d="M335 695.021 L340 683.021 L335 686.021 L330 683.021 Z" clip-path="url(#clipPath2)" stroke="none"/>
      <path fill="none" d="M335 749.9719 L335 775.998" stroke-width="2" clip-path="url(#clipPath2)" stroke="rgb(46,125,50)"/>
      <path fill="rgb(46,125,50)" d="M335 784.998 L340.625 771.498 L335 774.873 L329.375 771.498 Z" stroke-width="2" clip-path="url(#clipPath2)" stroke="none"/>
      <rect x="318.1594" y="759.371" clip-path="url(#clipPath2)" fill="white" width="33.6812" height="16.2581" stroke="none" stroke-width="2"/>
    </g>
    <g stroke-linecap="butt" font-size="9px" transform="matrix(1,0,0,1,5,-29)" fill="rgb(46,125,50)" text-rendering="geometricPrecision" font-family="sans-serif" shape-rendering="geometricPrecision" stroke="rgb(46,125,50)" stroke-miterlimit="1.45">
      <text x="320.1594" xml:space="preserve" y="770.992" clip-path="url(#clipPath2)" stroke="none">valid ✓</text>
      <path fill="none" d="M224.9872 821.7035 L183.9235 826.072" stroke-width="2" clip-path="url(#clipPath2)"/>
      <path d="M174.974 827.024 L188.9933 831.1893 L185.0422 825.9529 L187.8032 820.0025 Z" stroke-width="2" clip-path="url(#clipPath2)" stroke="none"/>
    </g>
    <g stroke-linecap="butt" transform="matrix(1,0,0,1,5,-29)" fill="white" text-rendering="geometricPrecision" shape-rendering="geometricPrecision" stroke="white" stroke-width="2" stroke-miterlimit="1.45">
      <rect x="157.4592" width="85.0816" height="16.2581" y="816.2327" clip-path="url(#clipPath2)" stroke="none"/>
    </g>
    <g stroke-linecap="butt" font-size="9px" transform="matrix(1,0,0,1,5,-29)" fill="rgb(46,125,50)" text-rendering="geometricPrecision" font-family="sans-serif" shape-rendering="geometricPrecision" stroke="rgb(46,125,50)" stroke-miterlimit="1.45">
      <text x="159.4592" xml:space="preserve" y="827.8537" clip-path="url(#clipPath2)" stroke="none">notify via Telegram</text>
      <path fill="none" stroke-dasharray="6,2" d="M426.1639 281.3882 L451.9874 281.0733" clip-path="url(#clipPath2)"/>
      <path stroke-dasharray="6,2" d="M459.9868 280.9758 L447.9267 276.1225 L450.9875 281.0855 L448.0487 286.1217 Z" clip-path="url(#clipPath2)" stroke="none"/>
    </g>
    <g stroke-linecap="butt" transform="matrix(1,0,0,1,5,-29)" fill="white" text-rendering="geometricPrecision" shape-rendering="geometricPrecision" stroke-dasharray="6,2" stroke="white" stroke-miterlimit="1.45">
      <rect x="436.0115" width="17.9771" height="16.2581" y="273.0295" clip-path="url(#clipPath2)" stroke="none"/>
    </g>
    <g stroke-linecap="butt" font-size="9px" transform="matrix(1,0,0,1,5,-29)" fill="rgb(46,125,50)" text-rendering="geometricPrecision" font-family="sans-serif" shape-rendering="geometricPrecision" stroke="rgb(46,125,50)" stroke-miterlimit="1.45">
      <text x="438.0114" xml:space="preserve" y="284.6506" clip-path="url(#clipPath2)" stroke="none">yes</text>
    </g>
    <g stroke-linecap="butt" transform="matrix(1,0,0,1,5,-29)" fill="rgb(204,68,68)" text-rendering="geometricPrecision" shape-rendering="geometricPrecision" stroke-dasharray="6,2" stroke="rgb(204,68,68)" stroke-miterlimit="1.45">
      <path fill="none" d="M426.1639 721.3882 L451.9874 721.0733" clip-path="url(#clipPath2)"/>
      <path d="M459.9868 720.9758 L447.9268 716.1224 L450.9875 721.0855 L448.0487 726.1217 Z" clip-path="url(#clipPath2)" stroke="none"/>
      <rect x="429.1579" y="713.0295" clip-path="url(#clipPath2)" fill="white" width="31.6842" height="16.2581" stroke="none"/>
      <text x="431.1579" font-size="9px" y="724.6506" clip-path="url(#clipPath2)" font-family="sans-serif" stroke-dasharray="none" stroke="none" xml:space="preserve">invalid</text>
    </g>
    <g fill="rgb(240,255,240)" text-rendering="geometricPrecision" shape-rendering="geometricPrecision" transform="matrix(1,0,0,1,5,-29)" stroke="rgb(240,255,240)">
      <rect x="490" width="180" height="365.3441" y="314.6559" clip-path="url(#clipPath2)" stroke="none"/>
    </g>
    <g stroke-linecap="butt" transform="matrix(1,0,0,1,5,-29)" fill="rgb(26,92,42)" text-rendering="geometricPrecision" font-family="sans-serif" shape-rendering="geometricPrecision" stroke="rgb(26,92,42)" font-weight="bold" stroke-miterlimit="1.45">
      <text x="552.1658" xml:space="preserve" y="329.484" clip-path="url(#clipPath2)" stroke="none">MonoPay</text>
    </g>
    <g stroke-linecap="butt" transform="matrix(1,0,0,1,5,-29)" fill="rgb(153,204,153)" text-rendering="geometricPrecision" shape-rendering="geometricPrecision" stroke="rgb(153,204,153)" stroke-miterlimit="1.45">
      <rect fill="none" x="490" width="180" height="365.3441" y="314.6559" clip-path="url(#clipPath2)"/>
    </g>
    <g fill="rgb(200,240,200)" text-rendering="geometricPrecision" shape-rendering="geometricPrecision" transform="matrix(1,0,0,1,5,-29)" stroke="rgb(200,240,200)">
      <rect x="505" y="350" clip-path="url(#clipPath2)" width="150" rx="4" ry="4" height="50" stroke="none"/>
    </g>
    <g font-size="10px" stroke-linecap="butt" transform="matrix(1,0,0,1,5,-29)" text-rendering="geometricPrecision" font-family="sans-serif" shape-rendering="geometricPrecision" stroke-miterlimit="1.45">
      <text x="547.53" xml:space="preserve" y="372.07" clip-path="url(#clipPath2)" stroke="none">create invoice</text>
      <text x="534.28" xml:space="preserve" y="385.69" clip-path="url(#clipPath2)" stroke="none">return payment_url</text>
    </g>
    <g stroke-linecap="butt" transform="matrix(1,0,0,1,5,-29)" fill="rgb(51,153,85)" text-rendering="geometricPrecision" shape-rendering="geometricPrecision" stroke="rgb(51,153,85)" stroke-miterlimit="1.45">
      <rect x="505" y="350" clip-path="url(#clipPath2)" fill="none" width="150" rx="4" ry="4" height="50"/>
    </g>
    <g fill="rgb(200,240,200)" text-rendering="geometricPrecision" shape-rendering="geometricPrecision" transform="matrix(1,0,0,1,5,-29)" stroke="rgb(200,240,200)">
      <rect x="505" y="530" clip-path="url(#clipPath2)" width="150" rx="4" ry="4" height="50" stroke="none"/>
    </g>
    <g font-size="10px" stroke-linecap="butt" transform="matrix(1,0,0,1,5,-29)" text-rendering="geometricPrecision" font-family="sans-serif" shape-rendering="geometricPrecision" stroke-miterlimit="1.45">
      <text x="557.505" xml:space="preserve" y="552.07" clip-path="url(#clipPath2)" stroke="none">user pays</text>
      <text x="533.9501" xml:space="preserve" y="565.69" clip-path="url(#clipPath2)" stroke="none">process transaction</text>
    </g>
    <g stroke-linecap="butt" transform="matrix(1,0,0,1,5,-29)" fill="rgb(51,153,85)" text-rendering="geometricPrecision" shape-rendering="geometricPrecision" stroke="rgb(51,153,85)" stroke-miterlimit="1.45">
      <rect x="505" y="530" clip-path="url(#clipPath2)" fill="none" width="150" rx="4" ry="4" height="50"/>
    </g>
    <g fill="rgb(200,240,200)" text-rendering="geometricPrecision" shape-rendering="geometricPrecision" transform="matrix(1,0,0,1,5,-29)" stroke="rgb(200,240,200)">
      <rect x="505" y="615" clip-path="url(#clipPath2)" width="150" rx="4" ry="4" height="50" stroke="none"/>
    </g>
    <g font-size="10px" stroke-linecap="butt" transform="matrix(1,0,0,1,5,-29)" text-rendering="geometricPrecision" font-family="sans-serif" shape-rendering="geometricPrecision" stroke-miterlimit="1.45">
      <text x="518.6451" xml:space="preserve" y="637.07" clip-path="url(#clipPath2)" stroke="none">POST /webhook/monopay</text>
      <text x="515.6901" xml:space="preserve" y="650.69" clip-path="url(#clipPath2)" stroke="none">{status: success, invoice_id}</text>
    </g>
    <g stroke-linecap="butt" transform="matrix(1,0,0,1,5,-29)" fill="rgb(51,153,85)" text-rendering="geometricPrecision" shape-rendering="geometricPrecision" stroke="rgb(51,153,85)" stroke-miterlimit="1.45">
      <rect x="505" y="615" clip-path="url(#clipPath2)" fill="none" width="150" rx="4" ry="4" height="50"/>
      <path fill="none" stroke-dasharray="6,2" d="M445.0287 375 L496.9684 375" clip-path="url(#clipPath2)"/>
      <path stroke-dasharray="6,2" d="M504.9684 375 L492.9684 370 L495.9684 375 L492.9684 380 Z" clip-path="url(#clipPath2)" stroke="none"/>
      <rect x="435.4832" y="366.871" clip-path="url(#clipPath2)" fill="white" width="79.0336" stroke-dasharray="6,2" height="16.2581" stroke="none"/>
      <text x="437.4832" font-size="9px" y="378.492" clip-path="url(#clipPath2)" font-family="sans-serif" stroke="none" xml:space="preserve">create invoice API</text>
      <path fill="none" stroke-dasharray="6,2" d="M506.3983 399.0332 L419.1399 427.5258" clip-path="url(#clipPath2)"/>
      <path stroke-dasharray="6,2" d="M411.535 430.009 L424.4943 431.0372 L420.0905 427.2154 L421.3903 421.5311 Z" clip-path="url(#clipPath2)" stroke="none"/>
      <rect x="413.5045" y="403.5432" clip-path="url(#clipPath2)" fill="white" width="108.3738" stroke-dasharray="6,2" height="16.2581" stroke="none"/>
      <text x="415.5045" font-size="9px" y="415.1642" clip-path="url(#clipPath2)" font-family="sans-serif" stroke="none" xml:space="preserve">payment_url + invoice_id</text>
      <path fill="none" d="M174.9707 555 L496.9964 555" clip-path="url(#clipPath2)"/>
      <path d="M504.9964 555 L492.9964 550 L495.9964 555 L492.9964 560 Z" clip-path="url(#clipPath2)" stroke="none"/>
      <path fill="none" d="M580 580.0269 L580 607.0209" clip-path="url(#clipPath2)"/>
      <path d="M580 615.0209 L585 603.0209 L580 606.0209 L575 603.0209 Z" clip-path="url(#clipPath2)" stroke="none"/>
      <path fill="none" d="M505.0226 640 L454.0415 640" stroke-width="2" clip-path="url(#clipPath2)"/>
      <path d="M445.0415 640 L458.5415 645.625 L455.1665 640 L458.5415 634.375 Z" stroke-width="2" clip-path="url(#clipPath2)" stroke="none"/>
      <rect x="428.9177" y="631.871" clip-path="url(#clipPath2)" fill="white" width="92.1646" height="16.2581" stroke="none" stroke-width="2"/>
      <text x="430.9177" font-size="9px" y="643.492" clip-path="url(#clipPath2)" font-family="sans-serif" stroke="none" xml:space="preserve">HTTP POST webhook</text>
    </g>
  </g>
</svg>
