<?xml version="1.0" encoding="UTF-8"?><svg xmlns="http://www.w3.org/2000/svg" xmlns:xlink="http://www.w3.org/1999/xlink" fill-opacity="1" color-rendering="auto" color-interpolation="auto" text-rendering="auto" stroke="black" stroke-linecap="square" width="750" stroke-miterlimit="10" shape-rendering="auto" stroke-opacity="1" fill="black" stroke-dasharray="none" font-weight="normal" stroke-width="1" height="935" font-family="'Dialog'" font-style="normal" stroke-linejoin="miter" font-size="12px" stroke-dashoffset="0" image-rendering="auto">
  <!--Generated by ySVG 2.6-->
  <defs id="genericDefs"/>
  <g>
    <defs id="defs1">
      <clipPath clipPathUnits="userSpaceOnUse" id="clipPath1">
        <path d="M0 0 L750 0 L750 935 L0 935 L0 0 Z"/>
      </clipPath>
      <clipPath clipPathUnits="userSpaceOnUse" id="clipPath2">
        <path d="M5 15 L755 15 L755 950 L5 950 L5 15 Z"/>
      </clipPath>
    </defs>
    <g fill="white" text-rendering="geometricPrecision" shape-rendering="geometricPrecision" transform="translate(-5,-15)" stroke="white">
      <rect x="5" width="750" height="935" y="15" clip-path="url(#clipPath2)" stroke="none"/>
    </g>
    <g fill="rgb(200,216,255)" text-rendering="geometricPrecision" shape-rendering="geometricPrecision" transform="matrix(1,0,0,1,-5,-15)" stroke="rgb(200,216,255)">
      <rect x="240" y="30" clip-path="url(#clipPath2)" width="220" rx="4" ry="4" height="50" stroke="none"/>
    </g>
    <g font-size="11px" stroke-linecap="butt" transform="matrix(1,0,0,1,-5,-15)" text-rendering="geometricPrecision" font-family="sans-serif" shape-rendering="geometricPrecision" stroke-miterlimit="1.45">
      <text x="290.2154" xml:space="preserve" y="51.777" clip-path="url(#clipPath2)" stroke="none">User message received</text>
      <text x="296.9089" xml:space="preserve" y="66.7589" clip-path="url(#clipPath2)" stroke="none">(Telegram webhook)</text>
    </g>
    <g stroke-linecap="butt" transform="matrix(1,0,0,1,-5,-15)" fill="rgb(51,85,187)" text-rendering="geometricPrecision" shape-rendering="geometricPrecision" stroke="rgb(51,85,187)" stroke-miterlimit="1.45">
      <rect x="240" y="30" clip-path="url(#clipPath2)" fill="none" width="220" rx="4" ry="4" height="50"/>
    </g>
    <g fill="rgb(255,228,160)" text-rendering="geometricPrecision" shape-rendering="geometricPrecision" transform="matrix(1,0,0,1,-5,-15)" stroke="rgb(255,228,160)">
      <rect x="240" y="120" clip-path="url(#clipPath2)" width="220" rx="4" ry="4" height="50" stroke="none"/>
    </g>
    <g font-size="11px" stroke-linecap="butt" transform="matrix(1,0,0,1,-5,-15)" text-rendering="geometricPrecision" font-family="sans-serif" shape-rendering="geometricPrecision" stroke-miterlimit="1.45">
      <text x="303.5363" xml:space="preserve" y="141.777" clip-path="url(#clipPath2)" stroke="none">Guardrails L1 + L3</text>
      <text x="260.3561" xml:space="preserve" y="156.7589" clip-path="url(#clipPath2)" stroke="none">sanitize · denylist · boundary check</text>
    </g>
    <g stroke-linecap="butt" transform="matrix(1,0,0,1,-5,-15)" fill="rgb(204,136,51)" text-rendering="geometricPrecision" shape-rendering="geometricPrecision" stroke="rgb(204,136,51)" stroke-miterlimit="1.45">
      <rect x="240" y="120" clip-path="url(#clipPath2)" fill="none" width="220" rx="4" ry="4" height="50"/>
    </g>
    <g fill="rgb(255,244,204)" text-rendering="geometricPrecision" shape-rendering="geometricPrecision" transform="matrix(1,0,0,1,-5,-15)" stroke="rgb(255,244,204)">
      <path d="M255 232.5 L350 205 L445 232.5 L350 260 Z" fill-rule="evenodd" clip-path="url(#clipPath2)" stroke="none"/>
    </g>
    <g font-size="11px" stroke-linecap="butt" transform="matrix(1,0,0,1,-5,-15)" text-rendering="geometricPrecision" font-family="sans-serif" shape-rendering="geometricPrecision" stroke-miterlimit="1.45">
      <text x="304.8068" xml:space="preserve" y="236.768" clip-path="url(#clipPath2)" stroke="none">L1/L3 hard block?</text>
    </g>
    <g stroke-linecap="butt" transform="matrix(1,0,0,1,-5,-15)" fill="rgb(187,136,0)" text-rendering="geometricPrecision" shape-rendering="geometricPrecision" stroke="rgb(187,136,0)" stroke-miterlimit="1.45">
      <path fill="none" d="M255 232.5 L350 205 L445 232.5 L350 260 Z" fill-rule="evenodd" clip-path="url(#clipPath2)"/>
    </g>
    <g fill="rgb(255,232,232)" text-rendering="geometricPrecision" shape-rendering="geometricPrecision" transform="matrix(1,0,0,1,-5,-15)" stroke="rgb(255,232,232)">
      <rect x="520" y="205" clip-path="url(#clipPath2)" width="200" rx="4" ry="4" height="55" stroke="none"/>
    </g>
    <g font-size="10px" stroke-linecap="butt" transform="matrix(1,0,0,1,-5,-15)" text-rendering="geometricPrecision" font-family="sans-serif" shape-rendering="geometricPrecision" stroke-miterlimit="1.45">
      <text x="567.045" xml:space="preserve" y="222.76" clip-path="url(#clipPath2)" stroke="none">block + sanitize output</text>
      <text x="553.7051" xml:space="preserve" y="236.38" clip-path="url(#clipPath2)" stroke="none">send safe response or reject</text>
      <text x="556.4351" xml:space="preserve" y="250" clip-path="url(#clipPath2)" stroke="none">audit_log: guardrails_event</text>
    </g>
    <g stroke-linecap="butt" transform="matrix(1,0,0,1,-5,-15)" fill="rgb(204,68,68)" text-rendering="geometricPrecision" shape-rendering="geometricPrecision" stroke="rgb(204,68,68)" stroke-miterlimit="1.45">
      <rect x="520" y="205" clip-path="url(#clipPath2)" fill="none" width="200" rx="4" ry="4" height="55"/>
    </g>
    <g fill="rgb(255,228,160)" text-rendering="geometricPrecision" shape-rendering="geometricPrecision" transform="matrix(1,0,0,1,-5,-15)" stroke="rgb(255,228,160)">
      <rect x="240" y="310" clip-path="url(#clipPath2)" width="220" rx="4" ry="4" height="60" stroke="none"/>
    </g>
    <g font-size="11px" stroke-linecap="butt" transform="matrix(1,0,0,1,-5,-15)" text-rendering="geometricPrecision" font-family="sans-serif" shape-rendering="geometricPrecision" stroke-miterlimit="1.45">
      <text x="295.6329" xml:space="preserve" y="329.2861" clip-path="url(#clipPath2)" stroke="none">AI Core: process turn</text>
      <text x="258.7281" xml:space="preserve" y="344.268" clip-path="url(#clipPath2)" stroke="none">Router → Active Section → Extractor</text>
      <text x="267.8856" xml:space="preserve" y="359.2498" clip-path="url(#clipPath2)" stroke="none">compute composite_confidence</text>
    </g>
    <g stroke-linecap="butt" transform="matrix(1,0,0,1,-5,-15)" fill="rgb(204,136,51)" text-rendering="geometricPrecision" shape-rendering="geometricPrecision" stroke="rgb(204,136,51)" stroke-miterlimit="1.45">
      <rect x="240" y="310" clip-path="url(#clipPath2)" fill="none" width="220" rx="4" ry="4" height="60"/>
    </g>
    <g fill="rgb(255,244,204)" text-rendering="geometricPrecision" shape-rendering="geometricPrecision" transform="matrix(1,0,0,1,-5,-15)" stroke="rgb(255,244,204)">
      <path d="M248 447.5 L350 415 L452 447.5 L350 480 Z" fill-rule="evenodd" clip-path="url(#clipPath2)" stroke="none"/>
    </g>
    <g font-size="11px" stroke-linecap="butt" transform="matrix(1,0,0,1,-5,-15)" text-rendering="geometricPrecision" font-family="sans-serif" shape-rendering="geometricPrecision" stroke-miterlimit="1.45">
      <text x="289.9074" xml:space="preserve" y="444.277" clip-path="url(#clipPath2)" stroke="none">composite_confidence?</text>
      <text x="275.8715" xml:space="preserve" y="459.2589" clip-path="url(#clipPath2)" stroke="none">min(router, mean(extractor))</text>
    </g>
    <g stroke-linecap="butt" transform="matrix(1,0,0,1,-5,-15)" fill="rgb(187,136,0)" text-rendering="geometricPrecision" shape-rendering="geometricPrecision" stroke="rgb(187,136,0)" stroke-miterlimit="1.45">
      <path fill="none" d="M248 447.5 L350 415 L452 447.5 L350 480 Z" fill-rule="evenodd" clip-path="url(#clipPath2)"/>
    </g>
    <g fill="rgb(232,255,232)" text-rendering="geometricPrecision" shape-rendering="geometricPrecision" transform="matrix(1,0,0,1,-5,-15)" stroke="rgb(232,255,232)">
      <rect x="540" y="415" clip-path="url(#clipPath2)" width="200" rx="4" ry="4" height="65" stroke="none"/>
    </g>
    <g font-size="10px" stroke-linecap="butt" transform="matrix(1,0,0,1,-5,-15)" text-rendering="geometricPrecision" font-family="sans-serif" shape-rendering="geometricPrecision" stroke-miterlimit="1.45">
      <text x="600.965" xml:space="preserve" y="437.76" clip-path="url(#clipPath2)" stroke="none">≥ 0.85: confident</text>
      <text x="595.715" xml:space="preserve" y="451.38" clip-path="url(#clipPath2)" stroke="none">generate response</text>
      <text x="584.8201" xml:space="preserve" y="465" clip-path="url(#clipPath2)" stroke="none">(+ artefact if CC passed)</text>
    </g>
    <g stroke-linecap="butt" transform="matrix(1,0,0,1,-5,-15)" fill="rgb(46,125,50)" text-rendering="geometricPrecision" shape-rendering="geometricPrecision" stroke="rgb(46,125,50)" stroke-miterlimit="1.45">
      <rect x="540" y="415" clip-path="url(#clipPath2)" fill="none" width="200" rx="4" ry="4" height="65"/>
    </g>
    <g fill="rgb(200,216,255)" text-rendering="geometricPrecision" shape-rendering="geometricPrecision" transform="matrix(1,0,0,1,-5,-15)" stroke="rgb(200,216,255)">
      <rect x="540" y="520" clip-path="url(#clipPath2)" width="200" rx="4" ry="4" height="50" stroke="none"/>
    </g>
    <g font-size="10px" stroke-linecap="butt" transform="matrix(1,0,0,1,-5,-15)" text-rendering="geometricPrecision" font-family="sans-serif" shape-rendering="geometricPrecision" stroke-miterlimit="1.45">
      <text x="587.8351" xml:space="preserve" y="542.07" clip-path="url(#clipPath2)" stroke="none">send response to user</text>
      <text x="590.395" xml:space="preserve" y="555.69" clip-path="url(#clipPath2)" stroke="none">(text or .xlsx artefact)</text>
    </g>
    <g stroke-linecap="butt" transform="matrix(1,0,0,1,-5,-15)" fill="rgb(51,85,187)" text-rendering="geometricPrecision" shape-rendering="geometricPrecision" stroke="rgb(51,85,187)" stroke-miterlimit="1.45">
      <rect x="540" y="520" clip-path="url(#clipPath2)" fill="none" width="200" rx="4" ry="4" height="50"/>
    </g>
    <g fill="rgb(255,244,232)" text-rendering="geometricPrecision" shape-rendering="geometricPrecision" transform="matrix(1,0,0,1,-5,-15)" stroke="rgb(255,244,232)">
      <rect x="540" y="600" clip-path="url(#clipPath2)" width="200" rx="4" ry="4" height="65" stroke="none"/>
    </g>
    <g font-size="10px" stroke-linecap="butt" transform="matrix(1,0,0,1,-5,-15)" text-rendering="geometricPrecision" font-family="sans-serif" shape-rendering="geometricPrecision" stroke-miterlimit="1.45">
      <text x="594.79" xml:space="preserve" y="622.76" clip-path="url(#clipPath2)" stroke="none">0.6–0.85: moderate</text>
      <text x="595.715" xml:space="preserve" y="636.38" clip-path="url(#clipPath2)" stroke="none">generate response</text>
      <text x="577.475" xml:space="preserve" y="650" clip-path="url(#clipPath2)" stroke="none">clarify missing fields (CQG)</text>
    </g>
    <g stroke-linecap="butt" transform="matrix(1,0,0,1,-5,-15)" fill="rgb(204,136,51)" text-rendering="geometricPrecision" shape-rendering="geometricPrecision" stroke="rgb(204,136,51)" stroke-miterlimit="1.45">
      <rect x="540" y="600" clip-path="url(#clipPath2)" fill="none" width="200" rx="4" ry="4" height="65"/>
    </g>
    <g fill="rgb(255,232,232)" text-rendering="geometricPrecision" shape-rendering="geometricPrecision" transform="matrix(1,0,0,1,-5,-15)" stroke="rgb(255,232,232)">
      <rect x="20" y="520" clip-path="url(#clipPath2)" width="200" rx="4" ry="4" height="50" stroke="none"/>
    </g>
    <g font-size="10px" stroke-linecap="butt" transform="matrix(1,0,0,1,-5,-15)" text-rendering="geometricPrecision" font-family="sans-serif" shape-rendering="geometricPrecision" stroke-miterlimit="1.45">
      <text x="57.505" xml:space="preserve" y="542.07" clip-path="url(#clipPath2)" stroke="none">session: active → escalated</text>
      <text x="57.4201" xml:space="preserve" y="555.69" clip-path="url(#clipPath2)" stroke="none">enqueue escalation record</text>
    </g>
    <g stroke-linecap="butt" transform="matrix(1,0,0,1,-5,-15)" fill="rgb(204,68,68)" text-rendering="geometricPrecision" shape-rendering="geometricPrecision" stroke="rgb(204,68,68)" stroke-miterlimit="1.45">
      <rect x="20" y="520" clip-path="url(#clipPath2)" fill="none" width="200" rx="4" ry="4" height="50"/>
    </g>
    <g fill="rgb(200,216,255)" text-rendering="geometricPrecision" shape-rendering="geometricPrecision" transform="matrix(1,0,0,1,-5,-15)" stroke="rgb(200,216,255)">
      <rect x="20" y="605" clip-path="url(#clipPath2)" width="200" rx="4" ry="4" height="50" stroke="none"/>
    </g>
    <g font-size="10px" stroke-linecap="butt" transform="matrix(1,0,0,1,-5,-15)" text-rendering="geometricPrecision" font-family="sans-serif" shape-rendering="geometricPrecision" stroke-miterlimit="1.45">
      <text x="93.51" xml:space="preserve" y="620.26" clip-path="url(#clipPath2)" stroke="none">notify user:</text>
      <text x="63.4751" xml:space="preserve" y="633.88" clip-path="url(#clipPath2)" stroke="none">"Передаємо оператору</text>
      <text x="73.0301" xml:space="preserve" y="647.5" clip-path="url(#clipPath2)" stroke="none">відповімо до 6 год"</text>
    </g>
    <g stroke-linecap="butt" transform="matrix(1,0,0,1,-5,-15)" fill="rgb(51,85,187)" text-rendering="geometricPrecision" shape-rendering="geometricPrecision" stroke="rgb(51,85,187)" stroke-miterlimit="1.45">
      <rect x="20" y="605" clip-path="url(#clipPath2)" fill="none" width="200" rx="4" ry="4" height="50"/>
    </g>
    <g fill="rgb(255,216,184)" text-rendering="geometricPrecision" shape-rendering="geometricPrecision" transform="matrix(1,0,0,1,-5,-15)" stroke="rgb(255,216,184)">
      <rect x="20" y="695" clip-path="url(#clipPath2)" width="200" rx="4" ry="4" height="65" stroke="none"/>
    </g>
    <g font-size="10px" stroke-linecap="butt" transform="matrix(1,0,0,1,-5,-15)" text-rendering="geometricPrecision" font-family="sans-serif" shape-rendering="geometricPrecision" stroke-miterlimit="1.45">
      <text x="58.5951" xml:space="preserve" y="704.14" clip-path="url(#clipPath2)" stroke="none">push to @application_ops_bot:</text>
      <text x="70.1401" xml:space="preserve" y="717.76" clip-path="url(#clipPath2)" stroke="none">• full dialogue history</text>
      <text x="66.04" xml:space="preserve" y="731.38" clip-path="url(#clipPath2)" stroke="none">• extracted facts (JSON)</text>
      <text x="77.085" xml:space="preserve" y="745" clip-path="url(#clipPath2)" stroke="none">• confidence score</text>
      <text x="75.595" xml:space="preserve" y="758.62" clip-path="url(#clipPath2)" stroke="none">• escalation reason</text>
    </g>
    <g stroke-linecap="butt" transform="matrix(1,0,0,1,-5,-15)" fill="rgb(204,102,51)" text-rendering="geometricPrecision" shape-rendering="geometricPrecision" stroke="rgb(204,102,51)" stroke-miterlimit="1.45">
      <rect x="20" y="695" clip-path="url(#clipPath2)" fill="none" width="200" rx="4" ry="4" height="65"/>
    </g>
    <g fill="rgb(255,216,184)" text-rendering="geometricPrecision" shape-rendering="geometricPrecision" transform="matrix(1,0,0,1,-5,-15)" stroke="rgb(255,216,184)">
      <rect x="20" y="800" clip-path="url(#clipPath2)" width="200" rx="4" ry="4" height="50" stroke="none"/>
    </g>
    <g font-size="10px" stroke-linecap="butt" transform="matrix(1,0,0,1,-5,-15)" text-rendering="geometricPrecision" font-family="sans-serif" shape-rendering="geometricPrecision" stroke-miterlimit="1.45">
      <text x="65.0851" xml:space="preserve" y="822.07" clip-path="url(#clipPath2)" stroke="none">Operator reads context</text>
      <text x="69.5751" xml:space="preserve" y="835.69" clip-path="url(#clipPath2)" stroke="none">types reply in ops bot</text>
    </g>
    <g stroke-linecap="butt" transform="matrix(1,0,0,1,-5,-15)" fill="rgb(204,102,51)" text-rendering="geometricPrecision" shape-rendering="geometricPrecision" stroke="rgb(204,102,51)" stroke-miterlimit="1.45">
      <rect x="20" y="800" clip-path="url(#clipPath2)" fill="none" width="200" rx="4" ry="4" height="50"/>
    </g>
    <g fill="rgb(200,216,255)" text-rendering="geometricPrecision" shape-rendering="geometricPrecision" transform="matrix(1,0,0,1,-5,-15)" stroke="rgb(200,216,255)">
      <rect x="20" y="885" clip-path="url(#clipPath2)" width="200" rx="4" ry="4" height="50" stroke="none"/>
    </g>
    <g font-size="10px" stroke-linecap="butt" transform="matrix(1,0,0,1,-5,-15)" text-rendering="geometricPrecision" font-family="sans-serif" shape-rendering="geometricPrecision" stroke-miterlimit="1.45">
      <text x="70.4151" xml:space="preserve" y="907.07" clip-path="url(#clipPath2)" stroke="none">forward reply to user</text>
      <text x="57.505" xml:space="preserve" y="920.69" clip-path="url(#clipPath2)" stroke="none">session: escalated → active</text>
    </g>
    <g stroke-linecap="butt" transform="matrix(1,0,0,1,-5,-15)" fill="rgb(51,85,187)" text-rendering="geometricPrecision" shape-rendering="geometricPrecision" stroke="rgb(51,85,187)" stroke-miterlimit="1.45">
      <rect x="20" y="885" clip-path="url(#clipPath2)" fill="none" width="200" rx="4" ry="4" height="50"/>
    </g>
    <g fill="rgb(255,255,240)" text-rendering="geometricPrecision" shape-rendering="geometricPrecision" transform="matrix(1,0,0,1,-5,-15)" stroke="rgb(255,255,240)">
      <rect x="240" width="200" height="50" y="800" clip-path="url(#clipPath2)" stroke="none"/>
    </g>
    <g stroke-linecap="butt" font-size="9px" transform="matrix(1,0,0,1,-5,-15)" fill="rgb(102,102,0)" text-rendering="geometricPrecision" font-family="sans-serif" shape-rendering="geometricPrecision" font-style="italic" stroke="rgb(102,102,0)" stroke-miterlimit="1.45">
      <text x="293.2762" xml:space="preserve" y="816.2339" clip-path="url(#clipPath2)" stroke="none">SLI #7: operator pickup</text>
      <text x="307.6898" xml:space="preserve" y="828.492" clip-path="url(#clipPath2)" stroke="none">pilot target ≤ 6h</text>
      <text x="275.7621" xml:space="preserve" y="840.7501" clip-path="url(#clipPath2)" stroke="none">business hours 10:00–22:00 Kyiv</text>
    </g>
    <g stroke-linecap="butt" transform="matrix(1,0,0,1,-5,-15)" fill="rgb(153,153,0)" text-rendering="geometricPrecision" shape-rendering="geometricPrecision" stroke-dasharray="6,2" stroke="rgb(153,153,0)" stroke-miterlimit="1.45">
      <rect fill="none" x="240" width="200" height="50" y="800" clip-path="url(#clipPath2)"/>
      <path fill="none" stroke-dasharray="none" d="M350 80.0049 L350 112.0238" clip-path="url(#clipPath2)" stroke="rgb(204,136,51)"/>
      <path fill="rgb(204,136,51)" stroke-dasharray="none" d="M350 120.0238 L355 108.0238 L350 111.0238 L345 108.0238 Z" clip-path="url(#clipPath2)" stroke="none"/>
      <path fill="none" stroke-dasharray="none" d="M350 169.9939 L350 197.001" clip-path="url(#clipPath2)" stroke="rgb(204,136,51)"/>
      <path fill="rgb(204,136,51)" stroke-dasharray="none" d="M350 205.001 L355 193.001 L350 196.001 L345 193.001 Z" clip-path="url(#clipPath2)" stroke="none"/>
      <path fill="none" stroke-dasharray="none" d="M445.0208 232.5 L511.9936 232.5" clip-path="url(#clipPath2)" stroke="rgb(204,68,68)"/>
      <path fill="rgb(204,68,68)" stroke-dasharray="none" d="M519.9935 232.5 L507.9935 227.5 L510.9935 232.5 L507.9935 237.5 Z" clip-path="url(#clipPath2)" stroke="none"/>
      <rect x="455.4573" y="224.371" clip-path="url(#clipPath2)" fill="white" width="54.0853" stroke-dasharray="none" height="16.2581" stroke="none"/>
    </g>
    <g stroke-linecap="butt" font-size="9px" transform="matrix(1,0,0,1,-5,-15)" fill="rgb(204,68,68)" text-rendering="geometricPrecision" font-family="sans-serif" shape-rendering="geometricPrecision" stroke="rgb(204,68,68)" stroke-miterlimit="1.45">
      <text x="457.4573" xml:space="preserve" y="235.992" clip-path="url(#clipPath2)" stroke="none">yes — block</text>
    </g>
    <g stroke-linecap="butt" transform="matrix(1,0,0,1,-5,-15)" fill="rgb(46,125,50)" text-rendering="geometricPrecision" shape-rendering="geometricPrecision" stroke="rgb(46,125,50)" stroke-miterlimit="1.45">
      <path fill="none" d="M350 259.9786 L350 302.0311" clip-path="url(#clipPath2)"/>
      <path d="M350 310.0311 L355 298.0311 L350 301.0311 L345 298.0311 Z" clip-path="url(#clipPath2)" stroke="none"/>
      <rect x="326.0533" y="276.871" clip-path="url(#clipPath2)" fill="white" width="47.8933" height="16.2581" stroke="none"/>
      <text x="328.0533" font-size="9px" y="288.492" clip-path="url(#clipPath2)" font-family="sans-serif" stroke="none" xml:space="preserve">no — pass</text>
      <path fill="none" d="M350 369.9982 L350 406.9931" clip-path="url(#clipPath2)" stroke="rgb(204,136,51)"/>
      <path fill="rgb(204,136,51)" d="M350 414.9931 L355 402.9931 L350 405.9931 L345 402.9931 Z" clip-path="url(#clipPath2)" stroke="none"/>
      <path fill="none" d="M451.9885 447.5 L530.9812 447.5" stroke-width="2" clip-path="url(#clipPath2)"/>
      <path d="M539.9812 447.5 L526.4812 441.875 L529.8562 447.5 L526.4812 453.125 Z" stroke-width="2" clip-path="url(#clipPath2)" stroke="none"/>
      <rect x="481.3279" y="439.371" clip-path="url(#clipPath2)" fill="white" width="29.3442" height="16.2581" stroke="none" stroke-width="2"/>
      <text x="483.3279" font-size="9px" y="450.992" clip-path="url(#clipPath2)" font-family="sans-serif" stroke="none" xml:space="preserve">≥ 0.85</text>
      <path fill="none" d="M640 480.0159 L640 512.0281" clip-path="url(#clipPath2)"/>
      <path d="M640 520.0281 L645 508.0281 L640 511.0281 L635 508.0281 Z" clip-path="url(#clipPath2)" stroke="none"/>
      <path fill="none" stroke-dasharray="6,2" d="M383.949 469.1571 L582.3391 595.7163" clip-path="url(#clipPath2)" stroke="rgb(204,136,51)"/>
      <path fill="rgb(204,136,51)" stroke-dasharray="6,2" d="M589.0836 600.0189 L581.6559 589.3497 L581.4961 595.1785 L576.2778 597.7803 Z" clip-path="url(#clipPath2)" stroke="none"/>
      <rect x="473.1279" y="531.871" clip-path="url(#clipPath2)" fill="white" width="43.7443" stroke-dasharray="6,2" height="16.2581" stroke="none"/>
    </g>
    <g stroke-linecap="butt" font-size="9px" transform="matrix(1,0,0,1,-5,-15)" fill="rgb(204,136,51)" text-rendering="geometricPrecision" font-family="sans-serif" shape-rendering="geometricPrecision" stroke="rgb(204,136,51)" stroke-miterlimit="1.45">
      <text x="475.1279" xml:space="preserve" y="543.492" clip-path="url(#clipPath2)" stroke="none">0.6 – 0.85</text>
    </g>
    <g stroke-linecap="butt" transform="matrix(1,0,0,1,-5,-15)" fill="rgb(204,68,68)" text-rendering="geometricPrecision" shape-rendering="geometricPrecision" stroke="rgb(204,68,68)" stroke-width="2" stroke-miterlimit="1.45">
      <path fill="none" d="M306.2292 466.055 L187.2558 516.4894" clip-path="url(#clipPath2)"/>
      <path d="M178.9696 520.002 L193.5943 519.9119 L188.2915 516.0503 L189.2035 509.5542 Z" clip-path="url(#clipPath2)" stroke="none"/>
      <rect x="189.9896" y="491.871" clip-path="url(#clipPath2)" fill="white" width="72.3285" height="16.2581" stroke="none"/>
      <text x="191.9896" font-size="9px" y="503.492" clip-path="url(#clipPath2)" font-family="sans-serif" stroke="none" stroke-width="1" xml:space="preserve">&lt; 0.6 — escalate</text>
      <path fill="none" d="M120 570.0269 L120 597.0209" stroke-width="1" clip-path="url(#clipPath2)"/>
      <path d="M120 605.0209 L125 593.0209 L120 596.0209 L115 593.0209 Z" stroke-width="1" clip-path="url(#clipPath2)" stroke="none"/>
      <path fill="none" d="M120 654.9939 L120 687.0351" stroke-width="1" clip-path="url(#clipPath2)" stroke="rgb(204,102,51)"/>
      <path fill="rgb(204,102,51)" d="M120 695.0351 L125 683.0351 L120 686.0351 L115 683.0351 Z" stroke-width="1" clip-path="url(#clipPath2)" stroke="none"/>
    </g>
    <g stroke-linecap="butt" transform="matrix(1,0,0,1,-5,-15)" fill="rgb(204,102,51)" text-rendering="geometricPrecision" shape-rendering="geometricPrecision" stroke-dasharray="6,2" stroke="rgb(204,102,51)" stroke-miterlimit="1.45">
      <path fill="none" d="M120 760.0159 L120 792.0281" clip-path="url(#clipPath2)"/>
      <path d="M120 800.0281 L125 788.0281 L120 791.0281 L115 788.0281 Z" clip-path="url(#clipPath2)" stroke="none"/>
      <rect x="67.2756" y="771.871" clip-path="url(#clipPath2)" fill="white" width="105.4487" height="16.2581" stroke="none"/>
      <text x="69.2756" font-size="9px" y="783.492" clip-path="url(#clipPath2)" font-family="sans-serif" stroke-dasharray="none" stroke="none" xml:space="preserve">operator reads + replies</text>
      <path fill="none" stroke-dasharray="none" d="M120 850.0269 L120 877.0209" clip-path="url(#clipPath2)" stroke="rgb(51,85,187)"/>
      <path fill="rgb(51,85,187)" stroke-dasharray="none" d="M120 885.0209 L125 873.0209 L120 876.0209 L115 873.0209 Z" clip-path="url(#clipPath2)" stroke="none"/>
    </g>
  </g>
</svg>
