<?xml version="1.0" encoding="UTF-8"?><svg xmlns="http://www.w3.org/2000/svg" xmlns:xlink="http://www.w3.org/1999/xlink" fill-opacity="1" color-rendering="auto" color-interpolation="auto" text-rendering="auto" stroke="black" stroke-linecap="square" width="740" stroke-miterlimit="10" shape-rendering="auto" stroke-opacity="1" fill="black" stroke-dasharray="none" font-weight="normal" stroke-width="1" height="677" font-family="'Dialog'" font-style="normal" stroke-linejoin="miter" font-size="12px" stroke-dashoffset="0" image-rendering="auto">
  <!--Generated by ySVG 2.6-->
  <defs id="genericDefs"/>
  <g>
    <defs id="defs1">
      <clipPath clipPathUnits="userSpaceOnUse" id="clipPath1">
        <path d="M0 0 L740 0 L740 677 L0 677 L0 0 Z"/>
      </clipPath>
      <clipPath clipPathUnits="userSpaceOnUse" id="clipPath2">
        <path d="M160 3 L900 3 L900 680 L160 680 L160 3 Z"/>
      </clipPath>
    </defs>
    <g fill="white" text-rendering="geometricPrecision" shape-rendering="geometricPrecision" transform="translate(-160,-3)" stroke="white">
      <rect x="160" width="740" height="677" y="3" clip-path="url(#clipPath2)" stroke="none"/>
    </g>
    <g fill="rgb(51,51,51)" text-rendering="geometricPrecision" shape-rendering="geometricPrecision" transform="matrix(1,0,0,1,-160,-3)" stroke="rgb(51,51,51)">
      <circle r="12" clip-path="url(#clipPath2)" cx="267" cy="30" stroke="none"/>
    </g>
    <g stroke-linecap="butt" transform="matrix(1,0,0,1,-160,-3)" fill="rgb(17,17,17)" text-rendering="geometricPrecision" shape-rendering="geometricPrecision" stroke="rgb(17,17,17)" stroke-miterlimit="1.45">
      <circle fill="none" r="12" clip-path="url(#clipPath2)" cx="267" cy="30"/>
    </g>
    <g fill="rgb(232,240,255)" text-rendering="geometricPrecision" shape-rendering="geometricPrecision" transform="matrix(1,0,0,1,-160,-3)" stroke="rgb(232,240,255)">
      <rect x="185" y="75" clip-path="url(#clipPath2)" width="165" rx="4" ry="4" height="45" stroke="none"/>
    </g>
    <g font-size="11px" stroke-linecap="butt" transform="matrix(1,0,0,1,-160,-3)" text-rendering="geometricPrecision" font-family="sans-serif" shape-rendering="geometricPrecision" font-weight="bold" stroke-miterlimit="1.45">
      <text x="255.9281" xml:space="preserve" y="101.768" clip-path="url(#clipPath2)" stroke="none">new</text>
    </g>
    <g stroke-linecap="butt" transform="matrix(1,0,0,1,-160,-3)" fill="rgb(51,85,187)" text-rendering="geometricPrecision" shape-rendering="geometricPrecision" stroke="rgb(51,85,187)" stroke-miterlimit="1.45">
      <rect x="185" y="75" clip-path="url(#clipPath2)" fill="none" width="165" rx="4" ry="4" height="45"/>
    </g>
    <g fill="rgb(232,240,255)" text-rendering="geometricPrecision" shape-rendering="geometricPrecision" transform="matrix(1,0,0,1,-160,-3)" stroke="rgb(232,240,255)">
      <rect x="185" y="160" clip-path="url(#clipPath2)" width="165" rx="4" ry="4" height="45" stroke="none"/>
    </g>
    <g font-size="11px" stroke-linecap="butt" transform="matrix(1,0,0,1,-160,-3)" text-rendering="geometricPrecision" font-family="sans-serif" shape-rendering="geometricPrecision" font-weight="bold" stroke-miterlimit="1.45">
      <text x="220.8109" xml:space="preserve" y="186.768" clip-path="url(#clipPath2)" stroke="none">consent_pending</text>
    </g>
    <g stroke-linecap="butt" transform="matrix(1,0,0,1,-160,-3)" fill="rgb(51,85,187)" text-rendering="geometricPrecision" shape-rendering="geometricPrecision" stroke="rgb(51,85,187)" stroke-miterlimit="1.45">
      <rect x="185" y="160" clip-path="url(#clipPath2)" fill="none" width="165" rx="4" ry="4" height="45"/>
    </g>
    <g fill="rgb(232,240,255)" text-rendering="geometricPrecision" shape-rendering="geometricPrecision" transform="matrix(1,0,0,1,-160,-3)" stroke="rgb(232,240,255)">
      <rect x="185" y="250" clip-path="url(#clipPath2)" width="165" rx="4" ry="4" height="45" stroke="none"/>
    </g>
    <g font-size="11px" stroke-linecap="butt" transform="matrix(1,0,0,1,-160,-3)" text-rendering="geometricPrecision" font-family="sans-serif" shape-rendering="geometricPrecision" font-weight="bold" stroke-miterlimit="1.45">
      <text x="218.0554" xml:space="preserve" y="276.768" clip-path="url(#clipPath2)" stroke="none">payment_pending</text>
    </g>
    <g stroke-linecap="butt" transform="matrix(1,0,0,1,-160,-3)" fill="rgb(51,85,187)" text-rendering="geometricPrecision" shape-rendering="geometricPrecision" stroke="rgb(51,85,187)" stroke-miterlimit="1.45">
      <rect x="185" y="250" clip-path="url(#clipPath2)" fill="none" width="165" rx="4" ry="4" height="45"/>
    </g>
    <g fill="rgb(255,224,128)" text-rendering="geometricPrecision" shape-rendering="geometricPrecision" transform="matrix(1,0,0,1,-160,-3)" stroke="rgb(255,224,128)">
      <rect x="175" y="355" clip-path="url(#clipPath2)" width="185" rx="4" ry="4" height="55" stroke="none"/>
    </g>
    <g font-size="13px" stroke-linecap="butt" transform="matrix(1,0,0,1,-160,-3)" text-rendering="geometricPrecision" font-family="sans-serif" shape-rendering="geometricPrecision" font-weight="bold" stroke-miterlimit="1.45">
      <text x="247.8895" xml:space="preserve" y="387.544" clip-path="url(#clipPath2)" stroke="none">active</text>
    </g>
    <g stroke-linecap="butt" transform="matrix(1,0,0,1,-160,-3)" fill="rgb(187,136,0)" text-rendering="geometricPrecision" shape-rendering="geometricPrecision" stroke="rgb(187,136,0)" stroke-width="2" stroke-miterlimit="1.45">
      <rect x="175" y="355" clip-path="url(#clipPath2)" fill="none" width="185" rx="4" ry="4" height="55"/>
    </g>
    <g fill="rgb(255,244,204)" text-rendering="geometricPrecision" shape-rendering="geometricPrecision" transform="matrix(1,0,0,1,-160,-3)" stroke="rgb(255,244,204)">
      <rect x="450" y="250" clip-path="url(#clipPath2)" width="165" rx="4" ry="4" height="45" stroke="none"/>
    </g>
    <g font-size="11px" stroke-linecap="butt" transform="matrix(1,0,0,1,-160,-3)" text-rendering="geometricPrecision" font-family="sans-serif" shape-rendering="geometricPrecision" font-weight="bold" stroke-miterlimit="1.45">
      <text x="512.2437" xml:space="preserve" y="276.768" clip-path="url(#clipPath2)" stroke="none">inflight</text>
    </g>
    <g stroke-linecap="butt" transform="matrix(1,0,0,1,-160,-3)" fill="rgb(187,136,0)" text-rendering="geometricPrecision" shape-rendering="geometricPrecision" stroke="rgb(187,136,0)" stroke-miterlimit="1.45">
      <rect x="450" y="250" clip-path="url(#clipPath2)" fill="none" width="165" rx="4" ry="4" height="45"/>
    </g>
    <g fill="rgb(255,232,232)" text-rendering="geometricPrecision" shape-rendering="geometricPrecision" transform="matrix(1,0,0,1,-160,-3)" stroke="rgb(255,232,232)">
      <rect x="450" y="355" clip-path="url(#clipPath2)" width="165" rx="4" ry="4" height="45" stroke="none"/>
    </g>
    <g font-size="11px" stroke-linecap="butt" transform="matrix(1,0,0,1,-160,-3)" text-rendering="geometricPrecision" font-family="sans-serif" shape-rendering="geometricPrecision" font-weight="bold" stroke-miterlimit="1.45">
      <text x="506.2487" xml:space="preserve" y="381.768" clip-path="url(#clipPath2)" stroke="none">escalated</text>
    </g>
    <g stroke-linecap="butt" transform="matrix(1,0,0,1,-160,-3)" fill="rgb(204,68,68)" text-rendering="geometricPrecision" shape-rendering="geometricPrecision" stroke="rgb(204,68,68)" stroke-miterlimit="1.45">
      <rect x="450" y="355" clip-path="url(#clipPath2)" fill="none" width="165" rx="4" ry="4" height="45"/>
    </g>
    <g fill="rgb(240,240,240)" text-rendering="geometricPrecision" shape-rendering="geometricPrecision" transform="matrix(1,0,0,1,-160,-3)" stroke="rgb(240,240,240)">
      <rect x="450" y="450" clip-path="url(#clipPath2)" width="165" rx="4" ry="4" height="45" stroke="none"/>
    </g>
    <g font-size="11px" stroke-linecap="butt" transform="matrix(1,0,0,1,-160,-3)" text-rendering="geometricPrecision" font-family="sans-serif" shape-rendering="geometricPrecision" font-weight="bold" stroke-miterlimit="1.45">
      <text x="512.6177" xml:space="preserve" y="476.768" clip-path="url(#clipPath2)" stroke="none">paused</text>
    </g>
    <g stroke-linecap="butt" transform="matrix(1,0,0,1,-160,-3)" fill="rgb(119,119,119)" text-rendering="geometricPrecision" shape-rendering="geometricPrecision" stroke="rgb(119,119,119)" stroke-miterlimit="1.45">
      <rect x="450" y="450" clip-path="url(#clipPath2)" fill="none" width="165" rx="4" ry="4" height="45"/>
    </g>
    <g fill="rgb(232,255,232)" text-rendering="geometricPrecision" shape-rendering="geometricPrecision" transform="matrix(1,0,0,1,-160,-3)" stroke="rgb(232,255,232)">
      <rect x="450" y="540" clip-path="url(#clipPath2)" width="165" rx="4" ry="4" height="45" stroke="none"/>
    </g>
    <g font-size="11px" stroke-linecap="butt" transform="matrix(1,0,0,1,-160,-3)" text-rendering="geometricPrecision" font-family="sans-serif" shape-rendering="geometricPrecision" font-weight="bold" stroke-miterlimit="1.45">
      <text x="503.3392" xml:space="preserve" y="566.7679" clip-path="url(#clipPath2)" stroke="none">completed</text>
    </g>
    <g stroke-linecap="butt" transform="matrix(1,0,0,1,-160,-3)" fill="rgb(46,125,50)" text-rendering="geometricPrecision" shape-rendering="geometricPrecision" stroke="rgb(46,125,50)" stroke-miterlimit="1.45">
      <rect x="450" y="540" clip-path="url(#clipPath2)" fill="none" width="165" rx="4" ry="4" height="45"/>
    </g>
    <g fill="rgb(240,240,240)" text-rendering="geometricPrecision" shape-rendering="geometricPrecision" transform="matrix(1,0,0,1,-160,-3)" stroke="rgb(240,240,240)">
      <rect x="720" y="450" clip-path="url(#clipPath2)" width="165" rx="4" ry="4" height="45" stroke="none"/>
    </g>
    <g font-size="11px" stroke-linecap="butt" transform="matrix(1,0,0,1,-160,-3)" text-rendering="geometricPrecision" font-family="sans-serif" shape-rendering="geometricPrecision" font-weight="bold" stroke-miterlimit="1.45">
      <text x="781.6827" xml:space="preserve" y="476.768" clip-path="url(#clipPath2)" stroke="none">expired</text>
    </g>
    <g stroke-linecap="butt" transform="matrix(1,0,0,1,-160,-3)" fill="rgb(153,153,153)" text-rendering="geometricPrecision" shape-rendering="geometricPrecision" stroke="rgb(153,153,153)" stroke-miterlimit="1.45">
      <rect x="720" y="450" clip-path="url(#clipPath2)" fill="none" width="165" rx="4" ry="4" height="45"/>
    </g>
    <g fill="rgb(255,232,232)" text-rendering="geometricPrecision" shape-rendering="geometricPrecision" transform="matrix(1,0,0,1,-160,-3)" stroke="rgb(255,232,232)">
      <rect x="720" y="250" clip-path="url(#clipPath2)" width="165" rx="4" ry="4" height="45" stroke="none"/>
    </g>
    <g font-size="11px" stroke-linecap="butt" transform="matrix(1,0,0,1,-160,-3)" text-rendering="geometricPrecision" font-family="sans-serif" shape-rendering="geometricPrecision" font-weight="bold" stroke-miterlimit="1.45">
      <text x="754.8978" xml:space="preserve" y="276.768" clip-path="url(#clipPath2)" stroke="none">deletion_pending</text>
    </g>
    <g stroke-linecap="butt" transform="matrix(1,0,0,1,-160,-3)" fill="rgb(204,68,68)" text-rendering="geometricPrecision" shape-rendering="geometricPrecision" stroke="rgb(204,68,68)" stroke-miterlimit="1.45">
      <rect x="720" y="250" clip-path="url(#clipPath2)" fill="none" width="165" rx="4" ry="4" height="45"/>
    </g>
    <g fill="rgb(255,232,232)" text-rendering="geometricPrecision" shape-rendering="geometricPrecision" transform="matrix(1,0,0,1,-160,-3)" stroke="rgb(255,232,232)">
      <rect x="720" y="355" clip-path="url(#clipPath2)" width="165" rx="4" ry="4" height="45" stroke="none"/>
    </g>
    <g font-size="11px" stroke-linecap="butt" transform="matrix(1,0,0,1,-160,-3)" text-rendering="geometricPrecision" font-family="sans-serif" shape-rendering="geometricPrecision" font-weight="bold" stroke-miterlimit="1.45">
      <text x="772.8607" xml:space="preserve" y="381.768" clip-path="url(#clipPath2)" stroke="none">suspended</text>
    </g>
    <g stroke-linecap="butt" transform="matrix(1,0,0,1,-160,-3)" fill="rgb(204,68,68)" text-rendering="geometricPrecision" shape-rendering="geometricPrecision" stroke="rgb(204,68,68)" stroke-miterlimit="1.45">
      <rect x="720" y="355" clip-path="url(#clipPath2)" fill="none" width="165" rx="4" ry="4" height="45"/>
    </g>
    <g fill="rgb(221,221,221)" text-rendering="geometricPrecision" shape-rendering="geometricPrecision" transform="matrix(1,0,0,1,-160,-3)" stroke="rgb(221,221,221)">
      <rect x="720" y="560" clip-path="url(#clipPath2)" width="165" rx="4" ry="4" height="45" stroke="none"/>
    </g>
    <g font-size="11px" stroke-linecap="butt" transform="matrix(1,0,0,1,-160,-3)" text-rendering="geometricPrecision" font-family="sans-serif" shape-rendering="geometricPrecision" font-weight="bold" stroke-miterlimit="1.45">
      <text x="785.1256" xml:space="preserve" y="586.7679" clip-path="url(#clipPath2)" stroke="none">closed</text>
    </g>
    <g stroke-linecap="butt" transform="matrix(1,0,0,1,-160,-3)" fill="rgb(85,85,85)" text-rendering="geometricPrecision" shape-rendering="geometricPrecision" stroke="rgb(85,85,85)" stroke-width="2" stroke-miterlimit="1.45">
      <rect x="720" y="560" clip-path="url(#clipPath2)" fill="none" width="165" rx="4" ry="4" height="45"/>
    </g>
    <g fill="rgb(221,221,221)" text-rendering="geometricPrecision" shape-rendering="geometricPrecision" transform="matrix(1,0,0,1,-160,-3)" stroke="rgb(221,221,221)">
      <circle r="15" clip-path="url(#clipPath2)" cx="802" cy="650" stroke="none"/>
    </g>
    <g stroke-linecap="butt" transform="matrix(1,0,0,1,-160,-3)" fill="rgb(85,85,85)" text-rendering="geometricPrecision" shape-rendering="geometricPrecision" stroke="rgb(85,85,85)" stroke-width="3" stroke-miterlimit="1.45">
      <circle fill="none" r="15" clip-path="url(#clipPath2)" cx="802" cy="650"/>
      <path fill="none" d="M267.0889 41.9997 L267.2739 66.9803" stroke-width="1" clip-path="url(#clipPath2)" stroke="rgb(51,51,51)"/>
      <path fill="rgb(51,51,51)" d="M267.3332 74.9801 L272.2442 62.9434 L267.2665 65.9803 L262.2444 63.0175 Z" stroke-width="1" clip-path="url(#clipPath2)" stroke="none"/>
      <path fill="none" d="M267.5 120.0366 L267.5 152.0217" stroke-width="1" clip-path="url(#clipPath2)" stroke="rgb(51,85,187)"/>
      <path fill="rgb(51,85,187)" d="M267.5 160.0217 L272.5 148.0217 L267.5 151.0217 L262.5 148.0217 Z" stroke-width="1" clip-path="url(#clipPath2)" stroke="none"/>
      <rect x="234.9493" y="131.871" clip-path="url(#clipPath2)" fill="white" width="65.1014" height="16.2581" stroke="none" stroke-width="1"/>
    </g>
    <g stroke-linecap="butt" font-size="9px" transform="matrix(1,0,0,1,-160,-3)" fill="rgb(51,51,51)" text-rendering="geometricPrecision" font-family="sans-serif" shape-rendering="geometricPrecision" stroke="rgb(51,51,51)" stroke-miterlimit="1.45">
      <text x="236.9493" xml:space="preserve" y="143.492" clip-path="url(#clipPath2)" stroke="none">user identified</text>
    </g>
    <g stroke-linecap="butt" transform="matrix(1,0,0,1,-160,-3)" fill="rgb(51,85,187)" text-rendering="geometricPrecision" shape-rendering="geometricPrecision" stroke="rgb(51,85,187)" stroke-miterlimit="1.45">
      <path fill="none" d="M267.5 204.9561 L267.5 241.9744" clip-path="url(#clipPath2)"/>
      <path d="M267.5 249.9744 L272.5 237.9744 L267.5 240.9744 L262.5 237.9744 Z" clip-path="url(#clipPath2)" stroke="none"/>
      <rect x="243.7969" y="219.371" clip-path="url(#clipPath2)" fill="white" width="47.4063" height="16.2581" stroke="none"/>
    </g>
    <g stroke-linecap="butt" font-size="9px" transform="matrix(1,0,0,1,-160,-3)" fill="rgb(46,125,50)" text-rendering="geometricPrecision" font-family="sans-serif" shape-rendering="geometricPrecision" stroke="rgb(46,125,50)" stroke-miterlimit="1.45">
      <text x="245.7969" xml:space="preserve" y="230.992" clip-path="url(#clipPath2)" stroke="none">consent ✓</text>
      <path fill="none" d="M267.5 294.978 L267.5 346.0212" stroke-width="2" clip-path="url(#clipPath2)"/>
      <path d="M267.5 355.0212 L273.125 341.5212 L267.5 344.8962 L261.875 341.5212 Z" stroke-width="2" clip-path="url(#clipPath2)" stroke="none"/>
    </g>
    <g stroke-linecap="butt" transform="matrix(1,0,0,1,-160,-3)" fill="white" text-rendering="geometricPrecision" shape-rendering="geometricPrecision" stroke="white" stroke-width="2" stroke-miterlimit="1.45">
      <rect x="220.0682" width="94.8636" height="16.2581" y="316.871" clip-path="url(#clipPath2)" stroke="none"/>
    </g>
    <g stroke-linecap="butt" font-size="9px" transform="matrix(1,0,0,1,-160,-3)" fill="rgb(46,125,50)" text-rendering="geometricPrecision" font-family="sans-serif" shape-rendering="geometricPrecision" stroke="rgb(46,125,50)" stroke-miterlimit="1.45">
      <text x="222.0682" xml:space="preserve" y="328.492" clip-path="url(#clipPath2)" stroke="none">MonoPay webhook ✓</text>
    </g>
    <g stroke-linecap="butt" transform="matrix(1,0,0,1,-160,-3)" fill="rgb(187,136,0)" text-rendering="geometricPrecision" shape-rendering="geometricPrecision" stroke="rgb(187,136,0)" stroke-miterlimit="1.45">
      <path fill="none" d="M333.7823 354.9866 L470.8957 298.0716" clip-path="url(#clipPath2)"/>
      <path d="M478.2844 295.0046 L465.2844 294.9872 L469.9721 298.455 L469.1182 304.2231 Z" clip-path="url(#clipPath2)" stroke="none"/>
      <rect x="356.1784" y="316.871" clip-path="url(#clipPath2)" fill="white" width="99.6887" height="16.2581" stroke="none"/>
    </g>
    <g stroke-linecap="butt" font-size="9px" transform="matrix(1,0,0,1,-160,-3)" fill="rgb(51,51,51)" text-rendering="geometricPrecision" font-family="sans-serif" shape-rendering="geometricPrecision" stroke="rgb(51,51,51)" stroke-miterlimit="1.45">
      <text x="358.1784" xml:space="preserve" y="328.492" clip-path="url(#clipPath2)" stroke="none">LLM call → phase1 lock</text>
    </g>
    <g stroke-linecap="butt" transform="matrix(1,0,0,1,-160,-3)" fill="rgb(187,136,0)" text-rendering="geometricPrecision" shape-rendering="geometricPrecision" stroke="rgb(187,136,0)" stroke-miterlimit="1.45">
      <path fill="none" d="M478.316 294.9915 L341.1548 351.9263" clip-path="url(#clipPath2)"/>
      <path d="M333.766 354.9933 L346.766 355.0108 L342.0783 351.5429 L342.9323 345.7749 Z" clip-path="url(#clipPath2)" stroke="none"/>
      <rect x="341.3643" y="316.871" clip-path="url(#clipPath2)" fill="white" width="129.3169" height="16.2581" stroke="none"/>
    </g>
    <g stroke-linecap="butt" font-size="9px" transform="matrix(1,0,0,1,-160,-3)" fill="rgb(51,51,51)" text-rendering="geometricPrecision" font-family="sans-serif" shape-rendering="geometricPrecision" stroke="rgb(51,51,51)" stroke-miterlimit="1.45">
      <text x="343.3643" xml:space="preserve" y="328.492" clip-path="url(#clipPath2)" stroke="none">response received / safe retry</text>
    </g>
    <g stroke-linecap="butt" transform="matrix(1,0,0,1,-160,-3)" fill="rgb(204,68,68)" text-rendering="geometricPrecision" shape-rendering="geometricPrecision" stroke="rgb(204,68,68)" stroke-miterlimit="1.45">
      <path fill="none" d="M359.9847 380.755 L441.9923 379.2077" clip-path="url(#clipPath2)"/>
      <path d="M449.9909 379.0568 L437.8987 374.2841 L440.9925 379.2266 L438.0873 384.2823 Z" clip-path="url(#clipPath2)" stroke="none"/>
      <rect x="368.5747" y="371.7766" clip-path="url(#clipPath2)" fill="white" width="72.8505" height="16.2581" stroke="none"/>
      <text x="370.5747" font-size="9px" y="383.3977" clip-path="url(#clipPath2)" font-family="sans-serif" stroke="none" xml:space="preserve">confidence &lt; 0.6</text>
      <path fill="none" stroke-dasharray="6,2" d="M449.9786 379.057 L368.0298 380.6032" clip-path="url(#clipPath2)"/>
      <path stroke-dasharray="6,2" d="M360.0313 380.7541 L372.1235 385.5269 L369.0297 380.5844 L371.9348 375.5287 Z" clip-path="url(#clipPath2)" stroke="none"/>
      <rect x="343.8066" y="371.7766" clip-path="url(#clipPath2)" fill="white" width="122.3868" stroke-dasharray="6,2" height="16.2581" stroke="none"/>
      <text x="345.8066" font-size="9px" y="383.3977" clip-path="url(#clipPath2)" font-family="sans-serif" stroke="none" xml:space="preserve">operator resolves → resume</text>
      <path fill="none" stroke-dasharray="6,2" d="M348.4686 409.9988 L458.6539 447.4202" clip-path="url(#clipPath2)" stroke="rgb(119,119,119)"/>
      <path fill="rgb(119,119,119)" stroke-dasharray="6,2" d="M466.2289 449.9929 L456.4742 441.3995 L457.707 447.0986 L453.2584 450.8683 Z" clip-path="url(#clipPath2)" stroke="none"/>
      <rect x="386.8404" y="421.0691" clip-path="url(#clipPath2)" fill="white" width="36.3192" stroke-dasharray="6,2" height="16.2581" stroke="none"/>
    </g>
    <g stroke-linecap="butt" font-size="9px" transform="matrix(1,0,0,1,-160,-3)" fill="rgb(119,119,119)" text-rendering="geometricPrecision" font-family="sans-serif" shape-rendering="geometricPrecision" stroke="rgb(119,119,119)" stroke-miterlimit="1.45">
      <text x="388.8404" xml:space="preserve" y="432.6901" clip-path="url(#clipPath2)" stroke="none">idle TTL</text>
      <path fill="none" stroke-dasharray="6,2" d="M466.2177 449.989 L356.0709 412.5807" clip-path="url(#clipPath2)"/>
      <path stroke-dasharray="6,2" d="M348.4959 410.008 L358.2505 418.6014 L357.0178 412.9023 L361.4664 409.1326 Z" clip-path="url(#clipPath2)" stroke="none"/>
    </g>
    <g stroke-linecap="butt" transform="matrix(1,0,0,1,-160,-3)" fill="white" text-rendering="geometricPrecision" shape-rendering="geometricPrecision" stroke-dasharray="6,2" stroke="white" stroke-miterlimit="1.45">
      <rect x="374.2628" width="61.4744" height="16.2581" y="421.0691" clip-path="url(#clipPath2)" stroke="none"/>
    </g>
    <g stroke-linecap="butt" font-size="9px" transform="matrix(1,0,0,1,-160,-3)" fill="rgb(119,119,119)" text-rendering="geometricPrecision" font-family="sans-serif" shape-rendering="geometricPrecision" stroke="rgb(119,119,119)" stroke-miterlimit="1.45">
      <text x="376.2628" xml:space="preserve" y="432.6901" clip-path="url(#clipPath2)" stroke="none">user resumes</text>
    </g>
    <g stroke-linecap="butt" transform="matrix(1,0,0,1,-160,-3)" fill="rgb(46,125,50)" text-rendering="geometricPrecision" shape-rendering="geometricPrecision" stroke-dasharray="6,2" stroke="rgb(46,125,50)" stroke-miterlimit="1.45">
      <path fill="none" d="M532.5 400.0378 L532.5 532.0107" clip-path="url(#clipPath2)"/>
      <path d="M532.5 540.0107 L537.5 528.0107 L532.5 531.0107 L527.5 528.0107 Z" clip-path="url(#clipPath2)" stroke="none"/>
      <rect x="485.5852" y="461.871" clip-path="url(#clipPath2)" fill="white" width="93.8296" height="16.2581" stroke="none"/>
      <text x="487.5852" font-size="9px" y="473.492" clip-path="url(#clipPath2)" font-family="sans-serif" stroke-dasharray="none" stroke="none" xml:space="preserve">operator marks done</text>
      <path fill="none" stroke-dasharray="none" d="M307.9681 409.9878 L491.918 534.9348" stroke-width="2" clip-path="url(#clipPath2)"/>
      <path stroke-dasharray="none" d="M499.3629 539.9918 L491.3561 527.7532 L490.9873 534.3027 L485.0349 537.0594 Z" stroke-width="2" clip-path="url(#clipPath2)" stroke="none"/>
    </g>
    <g stroke-linecap="butt" transform="matrix(1,0,0,1,-160,-3)" fill="white" text-rendering="geometricPrecision" shape-rendering="geometricPrecision" stroke="white" stroke-width="2" stroke-miterlimit="1.45">
      <rect x="359.5518" width="88.2576" height="16.2581" y="466.871" clip-path="url(#clipPath2)" stroke="none"/>
    </g>
    <g stroke-linecap="butt" font-size="9px" transform="matrix(1,0,0,1,-160,-3)" fill="rgb(46,125,50)" text-rendering="geometricPrecision" font-family="sans-serif" shape-rendering="geometricPrecision" stroke="rgb(46,125,50)" stroke-miterlimit="1.45">
      <text x="361.5518" xml:space="preserve" y="478.492" clip-path="url(#clipPath2)" stroke="none">artefact delivered ✓</text>
      <path fill="none" stroke-dasharray="6,2" d="M499.3427 539.978 L314.6166 414.5037" clip-path="url(#clipPath2)"/>
      <path stroke-dasharray="6,2" d="M307.9989 410.0087 L315.1161 420.8873 L315.4438 415.0656 L320.7349 412.6152 Z" clip-path="url(#clipPath2)" stroke="none"/>
    </g>
    <g stroke-linecap="butt" transform="matrix(1,0,0,1,-160,-3)" fill="white" text-rendering="geometricPrecision" shape-rendering="geometricPrecision" stroke-dasharray="6,2" stroke="white" stroke-miterlimit="1.45">
      <rect x="352.3422" width="102.6767" height="16.2581" y="466.871" clip-path="url(#clipPath2)" stroke="none"/>
    </g>
    <g stroke-linecap="butt" font-size="9px" transform="matrix(1,0,0,1,-160,-3)" fill="rgb(46,125,50)" text-rendering="geometricPrecision" font-family="sans-serif" shape-rendering="geometricPrecision" stroke="rgb(46,125,50)" stroke-miterlimit="1.45">
      <text x="354.3422" xml:space="preserve" y="478.492" clip-path="url(#clipPath2)" stroke="none">new section (same sub)</text>
    </g>
    <g stroke-linecap="butt" transform="matrix(1,0,0,1,-160,-3)" fill="rgb(153,153,153)" text-rendering="geometricPrecision" shape-rendering="geometricPrecision" stroke="rgb(153,153,153)" stroke-miterlimit="1.45">
      <path fill="none" d="M614.9963 472.5 L711.9636 472.5" clip-path="url(#clipPath2)"/>
      <path d="M719.9636 472.5 L707.9636 467.5 L710.9636 472.5 L707.9636 477.5 Z" clip-path="url(#clipPath2)" stroke="none"/>
      <rect x="631.7453" y="464.371" clip-path="url(#clipPath2)" fill="white" width="71.5094" height="16.2581" stroke="none"/>
      <text x="633.7453" font-size="9px" y="475.992" clip-path="url(#clipPath2)" font-family="sans-serif" stroke="none" xml:space="preserve">TTL expired (7d)</text>
      <path fill="none" stroke-dasharray="6,2" d="M360.0082 363.4796 L712.1558 291.0754" clip-path="url(#clipPath2)" stroke="rgb(204,68,68)"/>
      <path fill="rgb(204,68,68)" stroke-dasharray="6,2" d="M719.9919 289.4643 L707.2308 286.9835 L711.1763 291.2768 L709.2448 296.7786 Z" clip-path="url(#clipPath2)" stroke="none"/>
      <rect x="505.7258" y="318.3429" clip-path="url(#clipPath2)" fill="white" width="68.5484" stroke-dasharray="6,2" height="16.2581" stroke="none"/>
    </g>
    <g stroke-linecap="butt" font-size="9px" transform="matrix(1,0,0,1,-160,-3)" fill="rgb(204,68,68)" text-rendering="geometricPrecision" font-family="sans-serif" shape-rendering="geometricPrecision" stroke="rgb(204,68,68)" stroke-miterlimit="1.45">
      <text x="507.7258" xml:space="preserve" y="329.964" clip-path="url(#clipPath2)" stroke="none">/delete request</text>
      <path fill="none" stroke-dasharray="6,2" d="M360.0082 381.6354 L711.9922 378.3459" clip-path="url(#clipPath2)"/>
      <path stroke-dasharray="6,2" d="M719.9919 378.2711 L707.9457 373.3835 L710.9922 378.3552 L708.0391 383.383 Z" clip-path="url(#clipPath2)" stroke="none"/>
    </g>
    <g stroke-linecap="butt" transform="matrix(1,0,0,1,-160,-3)" fill="white" text-rendering="geometricPrecision" shape-rendering="geometricPrecision" stroke-dasharray="6,2" stroke="white" stroke-miterlimit="1.45">
      <rect x="512.1743" width="55.6514" height="16.2581" y="371.8242" clip-path="url(#clipPath2)" stroke="none"/>
    </g>
    <g stroke-linecap="butt" font-size="9px" transform="matrix(1,0,0,1,-160,-3)" fill="rgb(204,68,68)" text-rendering="geometricPrecision" font-family="sans-serif" shape-rendering="geometricPrecision" stroke="rgb(204,68,68)" stroke-miterlimit="1.45">
      <text x="514.1743" xml:space="preserve" y="383.4453" clip-path="url(#clipPath2)" stroke="none">admin block</text>
    </g>
    <g stroke-linecap="butt" transform="matrix(1,0,0,1,-160,-3)" fill="rgb(46,125,50)" text-rendering="geometricPrecision" shape-rendering="geometricPrecision" stroke-dasharray="6,2" stroke="rgb(46,125,50)" stroke-miterlimit="1.45">
      <path fill="none" d="M719.9838 378.2712 L367.9904 381.5609" clip-path="url(#clipPath2)"/>
      <path d="M359.9907 381.6356 L372.0369 386.5233 L368.9903 381.5515 L371.9435 376.5237 Z" clip-path="url(#clipPath2)" stroke="none"/>
      <rect x="506.6123" y="371.8242" clip-path="url(#clipPath2)" fill="white" width="66.7755" height="16.2581" stroke="none"/>
      <text x="508.6123" font-size="9px" y="383.4453" clip-path="url(#clipPath2)" font-family="sans-serif" stroke-dasharray="none" stroke="none" xml:space="preserve">admin unblock</text>
      <path fill="none" d="M297.5742 204.9854 L765.9834 555.1979" clip-path="url(#clipPath2)" stroke="rgb(204,68,68)"/>
      <path fill="rgb(204,68,68)" d="M772.3906 559.9883 L765.7738 548.7982 L765.1825 554.5991 L759.7858 556.8071 Z" clip-path="url(#clipPath2)" stroke="none"/>
      <rect x="511.2969" y="374.371" clip-path="url(#clipPath2)" fill="white" width="47.4063" height="16.2581" stroke="none"/>
    </g>
    <g stroke-linecap="butt" font-size="9px" transform="matrix(1,0,0,1,-160,-3)" fill="rgb(204,68,68)" text-rendering="geometricPrecision" font-family="sans-serif" shape-rendering="geometricPrecision" stroke="rgb(204,68,68)" stroke-miterlimit="1.45">
      <text x="513.2969" xml:space="preserve" y="385.992" clip-path="url(#clipPath2)" stroke="none">consent ✗</text>
      <path fill="none" stroke-dasharray="6,2" d="M306.3254 294.9969 L756.7236 555.9753" clip-path="url(#clipPath2)"/>
      <path stroke-dasharray="6,2" d="M763.6455 559.9862 L755.7694 549.6437 L755.8583 555.474 L750.7559 558.2961 Z" clip-path="url(#clipPath2)" stroke="none"/>
    </g>
    <g stroke-linecap="butt" transform="matrix(1,0,0,1,-160,-3)" fill="white" text-rendering="geometricPrecision" shape-rendering="geometricPrecision" stroke-dasharray="6,2" stroke="white" stroke-miterlimit="1.45">
      <rect x="507.2418" width="55.5164" height="16.2581" y="419.371" clip-path="url(#clipPath2)" stroke="none"/>
    </g>
    <g stroke-linecap="butt" font-size="9px" transform="matrix(1,0,0,1,-160,-3)" fill="rgb(204,68,68)" text-rendering="geometricPrecision" font-family="sans-serif" shape-rendering="geometricPrecision" stroke="rgb(204,68,68)" stroke-miterlimit="1.45">
      <text x="509.2418" xml:space="preserve" y="430.992" clip-path="url(#clipPath2)" stroke="none">timeout 72h</text>
      <path fill="none" d="M802.5 295.0159 L802.5 552.0052" clip-path="url(#clipPath2)"/>
      <path d="M802.5 560.0052 L807.5 548.0052 L802.5 551.0052 L797.5 548.0052 Z" stroke="none" clip-path="url(#clipPath2)"/>
    </g>
    <g stroke-linecap="butt" transform="matrix(1,0,0,1,-160,-3)" fill="white" text-rendering="geometricPrecision" shape-rendering="geometricPrecision" stroke="white" stroke-miterlimit="1.45">
      <rect x="759.3112" width="86.3776" height="16.2581" y="419.371" clip-path="url(#clipPath2)" stroke="none"/>
    </g>
    <g stroke-linecap="butt" font-size="9px" transform="matrix(1,0,0,1,-160,-3)" fill="rgb(204,68,68)" text-rendering="geometricPrecision" font-family="sans-serif" shape-rendering="geometricPrecision" stroke="rgb(204,68,68)" stroke-miterlimit="1.45">
      <text x="761.3112" xml:space="preserve" y="430.992" clip-path="url(#clipPath2)" stroke="none">data removed ≤30d</text>
    </g>
    <g stroke-linecap="butt" transform="matrix(1,0,0,1,-160,-3)" fill="rgb(153,153,153)" text-rendering="geometricPrecision" shape-rendering="geometricPrecision" stroke="rgb(153,153,153)" stroke-miterlimit="1.45">
      <path fill="none" d="M802.5 494.978 L802.5 551.9785" clip-path="url(#clipPath2)"/>
      <path d="M802.5 559.9785 L807.5 547.9785 L802.5 550.9785 L797.5 547.9785 Z" clip-path="url(#clipPath2)" stroke="none"/>
      <path fill="none" d="M802.3333 605.011 L802.1778 626.0007" stroke-width="2" clip-path="url(#clipPath2)" stroke="rgb(85,85,85)"/>
      <path fill="rgb(85,85,85)" d="M802.1111 635.0004 L807.836 621.5425 L802.1862 624.8757 L796.5863 621.4591 Z" stroke-width="2" clip-path="url(#clipPath2)" stroke="none"/>
    </g>
  </g>
</svg>
