<svg xmlns="http://www.w3.org/2000/svg" viewBox="71.4500048828125 93.3800048828125 432.1000061035156 388.23999977111816"> <svg xmlns="http://www.w3.org/2000/svg" viewBox="0.000004291534423828125 -0.00018478101992513984 150.00018310546875 147.0981903076172" fill="none" height="156.9011355704538" width="159.99652099609375" y="163.3800048828125" x="207.50201525878907" preserveAspectRatio="xMinYMin" style="overflow: visible;"><path d="M13.2149 78.5986C22.4452 92.3674 32.3915 106.993 44.7413 121.337L45.7385 122.5C55.1351 133.469 66.8072 147.098 80.2565 147.098L80.3971 147.098C91.3917 147.021 103.614 143.889 121.486 107.466C121.678 107.044 138.502 70.9407 147.733 41.5493C152.962 24.9295 149.011 10.9817 137.275 4.18033C131.548 0.85637 123.212 -0.000184145 115.938 -0.000184781C111.439 0.0305884 106.946 0.299434 102.476 0.805231C73.8259 3.784 54.662 8.29691 29.3233 15.5968C14.3271 19.9052 4.9561 26.8727 1.5043 36.2948C-3.71176 50.5495 5.72317 67.2716 13.2149 78.5986ZM6.82263 38.2253C9.62243 30.5546 17.7278 24.7888 30.9213 20.9919C55.9533 13.7814 74.8615 9.31967 103.102 6.39204C118.201 4.81955 128.761 5.71446 134.501 9.03842C143.949 14.5102 146.825 25.7477 142.338 39.8617C133.286 68.5756 116.91 103.899 116.398 105.062C98.6022 141.345 87.6203 141.434 80.3588 141.485L80.2565 141.485C69.3897 141.485 58.638 128.944 50.0085 118.857L49.0113 117.693C36.9044 103.631 27.0221 89.1074 17.9451 75.5047C11.0671 65.1749 2.43757 50.0893 6.82263 38.2253ZM42.7597 70.7234C47.8735 79.8259 52.4631 84.2749 57.449 85.1826C59.7864 85.5839 62.1909 85.1876 64.2759 84.0575C67.4081 93.5947 70.1823 101.7 71.7932 104.896C72.3941 106.085 74.6953 110.01 78.9908 110.713C80.9724 111.033 84.0279 110.713 87.3646 107.376C90.3946 104.334 93.3733 98.8875 97.8862 90.6543L99.5482 87.6244C99.6505 87.4199 110.581 66.9775 115.976 55.5354L116.513 54.4104C118.482 50.2938 120.349 46.3946 120.349 41.7666C120.417 40.0174 119.954 38.2884 119.02 36.8074C118.087 35.3264 116.727 34.1627 115.12 33.4695C113.036 32.6129 107.372 31.4623 99.8934 39.0819C93.5012 45.6019 87.3263 52.2626 81.8545 58.2585C79.809 60.4958 65.7717 76.7832 62.4989 78.6242C61.3313 79.4774 59.88 79.8483 58.4462 79.6597C55.378 79.0972 51.7344 75.1596 47.6434 67.9491L46.7229 66.3511C42.2739 58.5654 38.0806 51.2015 38.1062 44.413C38.1062 40.3731 40.7909 38.8134 42.3762 38.5321C48.5255 37.4327 51.2358 44.3235 54.1379 53.426C54.5598 54.7812 54.9689 56.0724 55.4163 57.2613C57.0144 61.7998 58.8298 67.3611 60.9776 73.8811C62.5965 72.5935 64.1099 71.1784 65.5032 69.6495C63.6495 63.9987 62.1282 59.4219 60.7091 55.3437C60.3128 54.2186 59.9164 52.9786 59.5073 51.6873C57.0783 44.0167 53.4859 32.7408 43.8464 32.7408C43.0315 32.7448 42.2185 32.8219 41.4173 32.9709C38.8132 33.4873 36.4797 34.9181 34.8385 37.0049C33.1972 39.0916 32.3565 41.6966 32.4682 44.349C32.4682 52.6462 37.1985 60.9688 41.8264 69.0997L42.7597 70.7234ZM80.1926 68.4222C86.8788 61.0455 95.2015 51.8663 103.895 42.9939C108.063 38.7367 111.335 37.9568 112.997 38.6344C113.567 38.9159 114.038 39.3635 114.349 39.918C114.659 40.4726 114.794 41.1082 114.736 41.741C114.736 45.1033 113.215 48.2867 111.463 51.9686L110.914 53.1192C105.634 64.3184 94.9458 84.326 94.6134 84.9397L92.9642 87.9568C88.8349 95.4868 85.8561 100.933 83.3887 103.4C82.481 104.321 81.1258 105.369 79.873 105.165C79.1906 104.942 78.5639 104.575 78.0347 104.09C77.5055 103.605 77.0862 103.012 76.8047 102.352C75.2706 99.335 72.1512 90.0662 69.0062 80.4907C71.448 78.0616 75.2833 73.8556 80.1926 68.4222Z" fill="#339FC4" style="fill: #FED74F;"></path></svg> <svg y="399.3800048828125" viewBox="1.4800000190734863 3.8299999237060547 236.69000244140625 12.239999771118164" x="169.1550146484375" height="12.239999771118164" width="236.69000244140625" style="overflow: visible;"><g fill="#000000" fill-opacity="1" style=""><path d="M9.03 15.90L1.87 15.90Q1.68 15.90 1.58 15.78Q1.48 15.67 1.48 15.50L1.48 15.50L1.48 4.40Q1.48 4.22 1.58 4.11Q1.68 4.00 1.87 4.00L1.87 4.00L8.89 4.00Q9.08 4.00 9.18 4.11Q9.28 4.22 9.28 4.40L9.28 4.40L9.28 5.05Q9.28 5.24 9.18 5.34Q9.08 5.44 8.89 5.44L8.89 5.44L3.11 5.44L3.11 9.16L8.52 9.16Q8.70 9.16 8.81 9.27Q8.91 9.38 8.91 9.57L8.91 9.57L8.91 10.20Q8.91 10.37 8.81 10.48Q8.70 10.59 8.52 10.59L8.52 10.59L3.11 10.59L3.11 14.45L9.03 14.45Q9.21 14.45 9.32 14.55Q9.42 14.65 9.42 14.84L9.42 14.84L9.42 15.50Q9.42 15.67 9.32 15.78Q9.21 15.90 9.03 15.90L9.03 15.90ZM14.62 15.90L13.62 15.90Q13.48 15.90 13.37 15.79Q13.26 15.69 13.26 15.56L13.26 15.56Q13.26 15.49 13.29 15.43Q13.31 15.37 13.33 15.33L13.33 15.33L17.22 9.84L13.52 4.56Q13.46 4.45 13.46 4.34L13.46 4.34Q13.46 4.20 13.57 4.10Q13.67 4.00 13.80 4.00L13.80 4.00L14.82 4.00Q14.99 4.00 15.10 4.07Q15.20 4.15 15.28 4.28L15.28 4.28L18.27 8.53L21.25 4.28Q21.32 4.15 21.43 4.07Q21.54 4.00 21.69 4.00L21.69 4.00L22.66 4.00Q22.80 4.00 22.90 4.10Q23.00 4.20 23.00 4.34L23.00 4.34Q23.00 4.45 22.93 4.56L22.93 4.56L19.28 9.86L23.15 15.33Q23.19 15.37 23.21 15.43Q23.22 15.49 23.22 15.56L23.22 15.56Q23.22 15.69 23.12 15.79Q23.02 15.90 22.87 15.90L22.87 15.90L21.83 15.90Q21.68 15.90 21.56 15.81Q21.45 15.73 21.37 15.61L21.37 15.61L18.21 11.20L15.06 15.61Q14.98 15.73 14.88 15.81Q14.77 15.90 14.62 15.90L14.62 15.90ZM31.52 15.90L30.63 15.90Q30.46 15.90 30.35 15.78Q30.24 15.67 30.24 15.50L30.24 15.50L30.24 5.51L26.98 5.51Q26.81 5.51 26.70 5.40Q26.59 5.29 26.59 5.12L26.59 5.12L26.59 4.40Q26.59 4.22 26.70 4.11Q26.81 4.00 26.98 4.00L26.98 4.00L35.17 4.00Q35.36 4.00 35.47 4.11Q35.58 4.22 35.58 4.40L35.58 4.40L35.58 5.12Q35.58 5.29 35.47 5.40Q35.36 5.51 35.17 5.51L35.17 5.51L31.93 5.51L31.93 15.50Q31.93 15.67 31.82 15.78Q31.71 15.90 31.52 15.90L31.52 15.90ZM41.29 15.90L40.43 15.90Q40.24 15.90 40.14 15.78Q40.03 15.67 40.03 15.50L40.03 15.50L40.03 4.40Q40.03 4.22 40.14 4.11Q40.24 4.00 40.43 4.00L40.43 4.00L44.57 4.00Q46.49 4.00 47.62 4.90Q48.74 5.80 48.74 7.57L48.74 7.57Q48.74 8.87 48.08 9.70Q47.43 10.52 46.31 10.85L46.31 10.85L48.93 15.37Q48.98 15.47 48.98 15.56L48.98 15.56Q48.98 15.69 48.87 15.79Q48.76 15.90 48.62 15.90L48.62 15.90L47.80 15.90Q47.52 15.90 47.38 15.74Q47.24 15.59 47.14 15.44L47.14 15.44L44.68 11.12L41.70 11.12L41.70 15.50Q41.70 15.67 41.59 15.78Q41.48 15.90 41.29 15.90L41.29 15.90ZM41.70 5.42L41.70 9.67L44.51 9.67Q45.78 9.67 46.41 9.14Q47.04 8.60 47.04 7.55L47.04 7.55Q47.04 6.51 46.42 5.97Q45.80 5.42 44.51 5.42L44.51 5.42L41.70 5.42ZM53.79 15.90L52.92 15.90Q52.78 15.90 52.68 15.79Q52.58 15.69 52.58 15.56L52.58 15.56Q52.58 15.47 52.60 15.37L52.60 15.37L56.81 4.37Q56.88 4.20 57.00 4.10Q57.12 4.00 57.36 4.00L57.36 4.00L58.51 4.00Q58.75 4.00 58.87 4.10Q58.99 4.20 59.06 4.37L59.06 4.37L63.26 15.37Q63.29 15.47 63.29 15.56L63.29 15.56Q63.29 15.69 63.19 15.79Q63.09 15.90 62.95 15.90L62.95 15.90L62.08 15.90Q61.88 15.90 61.79 15.79Q61.69 15.69 61.66 15.61L61.66 15.61L60.72 13.19L55.15 13.19L54.21 15.61Q54.20 15.69 54.09 15.79Q53.99 15.90 53.79 15.90L53.79 15.90ZM57.94 5.70L55.64 11.73L60.23 11.73L57.94 5.70ZM71.94 16.07L71.94 16.07Q70.38 16.07 69.35 15.49Q68.32 14.91 67.80 13.87Q67.27 12.84 67.22 11.46L67.22 11.46Q67.20 10.76 67.20 9.96Q67.20 9.16 67.22 8.43L67.22 8.43Q67.27 7.06 67.80 6.02Q68.32 4.98 69.35 4.40Q70.38 3.83 71.94 3.83L71.94 3.83Q73.12 3.83 74.00 4.15Q74.88 4.47 75.47 5.02Q76.06 5.56 76.36 6.23Q76.67 6.90 76.70 7.62L76.70 7.62Q76.72 7.77 76.61 7.87Q76.50 7.97 76.35 7.97L76.35 7.97L75.41 7.97Q75.26 7.97 75.15 7.89Q75.04 7.80 74.99 7.58L74.99 7.58Q74.70 6.26 73.91 5.76Q73.12 5.27 71.94 5.27L71.94 5.27Q70.57 5.27 69.77 6.04Q68.97 6.82 68.92 8.52L68.92 8.52Q68.87 9.91 68.92 11.37L68.92 11.37Q68.97 13.07 69.77 13.85Q70.57 14.62 71.94 14.62L71.94 14.62Q73.12 14.62 73.91 14.13Q74.70 13.63 74.99 12.31L74.99 12.31Q75.04 12.09 75.15 12.00Q75.26 11.92 75.41 11.92L75.41 11.92L76.35 11.92Q76.50 11.92 76.61 12.01Q76.72 12.10 76.70 12.26L76.70 12.26Q76.67 12.97 76.36 13.65Q76.06 14.33 75.47 14.88Q74.88 15.42 74.00 15.74Q73.12 16.07 71.94 16.07ZM85.41 15.90L84.52 15.90Q84.35 15.90 84.24 15.78Q84.13 15.67 84.13 15.50L84.13 15.50L84.13 5.51L80.87 5.51Q80.70 5.51 80.59 5.40Q80.48 5.29 80.48 5.12L80.48 5.12L80.48 4.40Q80.48 4.22 80.59 4.11Q80.70 4.00 80.87 4.00L80.87 4.00L89.06 4.00Q89.25 4.00 89.36 4.11Q89.47 4.22 89.47 4.40L89.47 4.40L89.47 5.12Q89.47 5.29 89.36 5.40Q89.25 5.51 89.06 5.51L89.06 5.51L85.82 5.51L85.82 15.50Q85.82 15.67 85.71 15.78Q85.59 15.90 85.41 15.90L85.41 15.90ZM97.75 16.07L97.75 16.07Q96.27 16.07 95.27 15.61Q94.27 15.15 93.73 14.42Q93.19 13.70 93.16 12.90L93.16 12.90Q93.16 12.77 93.27 12.66Q93.38 12.55 93.53 12.55L93.53 12.55L94.40 12.55Q94.61 12.55 94.71 12.65Q94.81 12.75 94.84 12.89L94.84 12.89Q94.94 13.29 95.27 13.69Q95.59 14.09 96.19 14.36Q96.80 14.62 97.75 14.62L97.75 14.62Q99.21 14.62 99.90 14.10Q100.59 13.58 100.59 12.72L100.59 12.72Q100.59 12.12 100.22 11.76Q99.86 11.39 99.11 11.10Q98.36 10.81 97.17 10.47L97.17 10.47Q95.93 10.12 95.11 9.69Q94.30 9.27 93.90 8.64Q93.50 8.01 93.50 7.04L93.50 7.04Q93.50 6.12 93.99 5.40Q94.49 4.68 95.42 4.25Q96.36 3.83 97.66 3.83L97.66 3.83Q98.72 3.83 99.51 4.11Q100.30 4.39 100.83 4.85Q101.35 5.32 101.63 5.86Q101.90 6.39 101.91 6.90L101.91 6.90Q101.91 7.02 101.83 7.13Q101.75 7.24 101.56 7.24L101.56 7.24L100.66 7.24Q100.54 7.24 100.41 7.17Q100.28 7.11 100.22 6.92L100.22 6.92Q100.11 6.22 99.43 5.75Q98.75 5.27 97.66 5.27L97.66 5.27Q96.56 5.27 95.87 5.70Q95.18 6.12 95.18 7.02L95.18 7.02Q95.18 7.60 95.51 7.98Q95.83 8.36 96.53 8.65Q97.22 8.94 98.34 9.27L98.34 9.27Q99.70 9.64 100.57 10.06Q101.44 10.47 101.86 11.09Q102.27 11.71 102.27 12.68L102.27 12.68Q102.27 13.75 101.71 14.51Q101.15 15.27 100.14 15.67Q99.13 16.07 97.75 16.07ZM121.31 15.90L114.16 15.90Q113.97 15.90 113.87 15.78Q113.76 15.67 113.76 15.50L113.76 15.50L113.76 4.40Q113.76 4.22 113.87 4.11Q113.97 4.00 114.16 4.00L114.16 4.00L121.18 4.00Q121.36 4.00 121.47 4.11Q121.57 4.22 121.57 4.40L121.57 4.40L121.57 5.05Q121.57 5.24 121.47 5.34Q121.36 5.44 121.18 5.44L121.18 5.44L115.40 5.44L115.40 9.16L120.80 9.16Q120.99 9.16 121.09 9.27Q121.19 9.38 121.19 9.57L121.19 9.57L121.19 10.20Q121.19 10.37 121.09 10.48Q120.99 10.59 120.80 10.59L120.80 10.59L115.40 10.59L115.40 14.45L121.31 14.45Q121.50 14.45 121.60 14.55Q121.70 14.65 121.70 14.84L121.70 14.84L121.70 15.50Q121.70 15.67 121.60 15.78Q121.50 15.90 121.31 15.90L121.31 15.90ZM131.26 15.90L130.15 15.90Q129.90 15.90 129.75 15.78Q129.61 15.66 129.52 15.45L129.52 15.45L125.73 4.52Q125.70 4.42 125.70 4.34L125.70 4.34Q125.70 4.20 125.80 4.10Q125.90 4.00 126.04 4.00L126.04 4.00L126.92 4.00Q127.13 4.00 127.24 4.11Q127.35 4.22 127.38 4.30L127.38 4.30L130.70 13.94L134.03 4.30Q134.06 4.22 134.16 4.11Q134.27 4.00 134.47 4.00L134.47 4.00L135.35 4.00Q135.49 4.00 135.60 4.10Q135.71 4.20 135.71 4.34L135.71 4.34Q135.71 4.42 135.68 4.52L135.68 4.52L131.87 15.45Q131.80 15.66 131.66 15.78Q131.51 15.90 131.26 15.90L131.26 15.90ZM147.85 15.90L140.69 15.90Q140.50 15.90 140.40 15.78Q140.30 15.67 140.30 15.50L140.30 15.50L140.30 4.40Q140.30 4.22 140.40 4.11Q140.50 4.00 140.69 4.00L140.69 4.00L147.71 4.00Q147.90 4.00 148.00 4.11Q148.10 4.22 148.10 4.40L148.10 4.40L148.10 5.05Q148.10 5.24 148.00 5.34Q147.90 5.44 147.71 5.44L147.71 5.44L141.93 5.44L141.93 9.16L147.34 9.16Q147.53 9.16 147.63 9.27Q147.73 9.38 147.73 9.57L147.73 9.57L147.73 10.20Q147.73 10.37 147.63 10.48Q147.53 10.59 147.34 10.59L147.34 10.59L141.93 10.59L141.93 14.45L147.85 14.45Q148.04 14.45 148.14 14.55Q148.24 14.65 148.24 14.84L148.24 14.84L148.24 15.50Q148.24 15.67 148.14 15.78Q148.04 15.90 147.85 15.90L147.85 15.90ZM154.41 15.90L153.54 15.90Q153.36 15.90 153.25 15.78Q153.15 15.67 153.15 15.50L153.15 15.50L153.15 4.40Q153.15 4.22 153.25 4.11Q153.36 4.00 153.54 4.00L153.54 4.00L157.69 4.00Q159.61 4.00 160.74 4.90Q161.86 5.80 161.86 7.57L161.86 7.57Q161.86 8.87 161.20 9.70Q160.55 10.52 159.43 10.85L159.43 10.85L162.04 15.37Q162.09 15.47 162.09 15.56L162.09 15.56Q162.09 15.69 161.98 15.79Q161.87 15.90 161.74 15.90L161.74 15.90L160.92 15.90Q160.63 15.90 160.50 15.74Q160.36 15.59 160.26 15.44L160.26 15.44L157.79 11.12L154.82 11.12L154.82 15.50Q154.82 15.67 154.71 15.78Q154.60 15.90 154.41 15.90L154.41 15.90ZM154.82 5.42L154.82 9.67L157.62 9.67Q158.90 9.67 159.53 9.14Q160.16 8.60 160.16 7.55L160.16 7.55Q160.16 6.51 159.54 5.97Q158.92 5.42 157.62 5.42L157.62 5.42L154.82 5.42ZM171.29 15.90L170.41 15.90Q170.24 15.90 170.13 15.78Q170.02 15.67 170.02 15.50L170.02 15.50L170.02 11.49L165.92 4.56Q165.90 4.51 165.89 4.45Q165.87 4.40 165.87 4.34L165.87 4.34Q165.87 4.20 165.97 4.10Q166.07 4.00 166.21 4.00L166.21 4.00L167.09 4.00Q167.25 4.00 167.37 4.07Q167.48 4.15 167.53 4.28L167.53 4.28L170.85 9.79L174.17 4.28Q174.25 4.15 174.36 4.07Q174.47 4.00 174.62 4.00L174.62 4.00L175.49 4.00Q175.64 4.00 175.75 4.10Q175.85 4.20 175.85 4.34L175.85 4.34Q175.85 4.40 175.83 4.45Q175.81 4.51 175.78 4.56L175.78 4.56L171.70 11.49L171.70 15.50Q171.70 15.67 171.59 15.78Q171.48 15.90 171.29 15.90L171.29 15.90ZM184.26 15.90L183.38 15.90Q183.21 15.90 183.10 15.78Q182.99 15.67 182.99 15.50L182.99 15.50L182.99 5.51L179.72 5.51Q179.55 5.51 179.44 5.40Q179.33 5.29 179.33 5.12L179.33 5.12L179.33 4.40Q179.33 4.22 179.44 4.11Q179.55 4.00 179.72 4.00L179.72 4.00L187.92 4.00Q188.11 4.00 188.22 4.11Q188.33 4.22 188.33 4.40L188.33 4.40L188.33 5.12Q188.33 5.29 188.22 5.40Q188.11 5.51 187.92 5.51L187.92 5.51L184.67 5.51L184.67 15.50Q184.67 15.67 184.56 15.78Q184.45 15.90 184.26 15.90L184.26 15.90ZM194.04 15.90L193.17 15.90Q192.98 15.90 192.88 15.78Q192.78 15.67 192.78 15.50L192.78 15.50L192.78 4.40Q192.78 4.22 192.88 4.11Q192.98 4.00 193.17 4.00L193.17 4.00L194.04 4.00Q194.23 4.00 194.34 4.11Q194.45 4.22 194.45 4.40L194.45 4.40L194.45 9.10L200.29 9.10L200.29 4.40Q200.29 4.22 200.40 4.11Q200.52 4.00 200.69 4.00L200.69 4.00L201.55 4.00Q201.74 4.00 201.85 4.11Q201.96 4.22 201.96 4.40L201.96 4.40L201.96 15.50Q201.96 15.67 201.85 15.78Q201.74 15.90 201.55 15.90L201.55 15.90L200.69 15.90Q200.52 15.90 200.40 15.78Q200.29 15.67 200.29 15.50L200.29 15.50L200.29 10.63L194.45 10.63L194.45 15.50Q194.45 15.67 194.34 15.78Q194.23 15.90 194.04 15.90L194.04 15.90ZM208.76 15.90L207.86 15.90Q207.67 15.90 207.57 15.78Q207.47 15.67 207.47 15.50L207.47 15.50L207.47 4.39Q207.47 4.22 207.57 4.11Q207.67 4.00 207.86 4.00L207.86 4.00L208.76 4.00Q208.95 4.00 209.05 4.11Q209.15 4.22 209.15 4.39L209.15 4.39L209.15 15.50Q209.15 15.67 209.05 15.78Q208.95 15.90 208.76 15.90L208.76 15.90ZM215.87 15.90L215.05 15.90Q214.86 15.90 214.76 15.78Q214.66 15.67 214.66 15.50L214.66 15.50L214.66 4.40Q214.66 4.22 214.76 4.11Q214.86 4.00 215.05 4.00L215.05 4.00L215.83 4.00Q216.04 4.00 216.14 4.09Q216.24 4.18 216.26 4.23L216.26 4.23L221.90 12.90L221.90 4.40Q221.90 4.22 222.00 4.11Q222.11 4.00 222.29 4.00L222.29 4.00L223.11 4.00Q223.30 4.00 223.41 4.11Q223.52 4.22 223.52 4.40L223.52 4.40L223.52 15.49Q223.52 15.66 223.41 15.78Q223.30 15.90 223.13 15.90L223.13 15.90L222.31 15.90Q222.12 15.90 222.03 15.79Q221.94 15.69 221.90 15.66L221.90 15.66L216.27 7.07L216.27 15.50Q216.27 15.67 216.16 15.78Q216.05 15.90 215.87 15.90L215.87 15.90ZM233.36 16.07L233.36 16.07Q231.85 16.07 230.80 15.50Q229.76 14.94 229.20 13.92Q228.65 12.90 228.58 11.53L228.58 11.53Q228.57 10.78 228.57 9.94Q228.57 9.10 228.58 8.33L228.58 8.33Q228.65 6.95 229.20 5.94Q229.76 4.93 230.81 4.38Q231.86 3.83 233.36 3.83L233.36 3.83Q234.55 3.83 235.43 4.17Q236.32 4.51 236.89 5.02Q237.46 5.54 237.74 6.10Q238.02 6.66 238.03 7.09L238.03 7.09Q238.05 7.24 237.95 7.34Q237.85 7.43 237.68 7.43L237.68 7.43L236.67 7.43Q236.50 7.43 236.43 7.36Q236.35 7.29 236.28 7.12L236.28 7.12Q236.13 6.68 235.78 6.26Q235.43 5.83 234.85 5.55Q234.26 5.27 233.36 5.27L233.36 5.27Q232.00 5.27 231.17 6.00Q230.35 6.73 230.28 8.42L230.28 8.42Q230.23 9.93 230.28 11.44L230.28 11.44Q230.35 13.14 231.18 13.88Q232.02 14.62 233.36 14.62L233.36 14.62Q234.26 14.62 234.97 14.28Q235.67 13.94 236.08 13.25Q236.49 12.56 236.49 11.49L236.49 11.49L236.49 10.78L233.94 10.78Q233.77 10.78 233.66 10.67Q233.55 10.56 233.55 10.37L233.55 10.37L233.55 9.83Q233.55 9.64 233.66 9.53Q233.77 9.42 233.94 9.42L233.94 9.42L237.78 9.42Q237.97 9.42 238.07 9.53Q238.17 9.64 238.17 9.83L238.17 9.83L238.17 11.46Q238.17 12.85 237.60 13.89Q237.03 14.93 235.94 15.50Q234.86 16.07 233.36 16.07Z" transform="translate(0, 0)"></path></g></svg> <svg y="347.3800048828125" viewBox="1.5199999809265137 10.350000381469727 292.1000061035156 33.12000274658203" x="141.4500048828125" height="33.12000274658203" width="292.1000061035156" style="overflow: visible;"><g fill="#000000" fill-opacity="1" style=""><path d="M16.56 43.01L13.57 43.01Q12.88 43.01 12.49 42.69Q12.10 42.37 11.87 41.81L11.87 41.81L1.61 12.24Q1.52 11.96 1.52 11.73L1.52 11.73Q1.52 11.36 1.79 11.09Q2.07 10.81 2.44 10.81L2.44 10.81L4.83 10.81Q5.38 10.81 5.68 11.11Q5.98 11.41 6.07 11.64L6.07 11.64L15.04 37.72L24.06 11.64Q24.15 11.41 24.43 11.11Q24.70 10.81 25.25 10.81L25.25 10.81L27.65 10.81Q28.01 10.81 28.31 11.09Q28.61 11.36 28.61 11.73L28.61 11.73Q28.61 11.96 28.52 12.24L28.52 12.24L18.22 41.81Q18.03 42.37 17.64 42.69Q17.25 43.01 16.56 43.01L16.56 43.01ZM36.62 43.01L34.27 43.01Q33.90 43.01 33.63 42.73Q33.35 42.46 33.35 42.09L33.35 42.09Q33.35 41.86 33.40 41.58L33.40 41.58L44.80 11.82Q44.99 11.36 45.31 11.09Q45.63 10.81 46.28 10.81L46.28 10.81L49.40 10.81Q50.05 10.81 50.37 11.09Q50.69 11.36 50.88 11.82L50.88 11.82L62.24 41.58Q62.33 41.86 62.33 42.09L62.33 42.09Q62.33 42.46 62.05 42.73Q61.78 43.01 61.41 43.01L61.41 43.01L59.06 43.01Q58.51 43.01 58.26 42.73Q58.01 42.46 57.91 42.23L57.91 42.23L55.38 35.70L40.30 35.70L37.77 42.23Q37.72 42.46 37.44 42.73Q37.17 43.01 36.62 43.01L36.62 43.01ZM47.84 15.41L41.63 31.74L54.05 31.74L47.84 15.41ZM89.38 43.01L70.61 43.01Q70.10 43.01 69.83 42.71Q69.55 42.41 69.55 41.95L69.55 41.95L69.55 11.87Q69.55 11.41 69.83 11.11Q70.10 10.81 70.61 10.81L70.61 10.81L73.05 10.81Q73.51 10.81 73.81 11.11Q74.11 11.41 74.11 11.87L74.11 11.87L74.11 39.01L89.38 39.01Q89.88 39.01 90.18 39.31Q90.48 39.61 90.48 40.11L90.48 40.11L90.48 41.95Q90.48 42.41 90.18 42.71Q89.88 43.01 89.38 43.01L89.38 43.01ZM118.17 43.01L98.81 43.01Q98.30 43.01 98.03 42.71Q97.75 42.41 97.75 41.95L97.75 41.95L97.75 11.91Q97.75 11.41 98.03 11.11Q98.30 10.81 98.81 10.81L98.81 10.81L117.81 10.81Q118.31 10.81 118.59 11.11Q118.86 11.41 118.86 11.91L118.86 11.91L118.86 13.66Q118.86 14.17 118.59 14.44Q118.31 14.72 117.81 14.72L117.81 14.72L102.17 14.72L102.17 24.79L116.79 24.79Q117.30 24.79 117.58 25.09Q117.85 25.39 117.85 25.90L117.85 25.90L117.85 27.60Q117.85 28.06 117.58 28.36Q117.30 28.66 116.79 28.66L116.79 28.66L102.17 28.66L102.17 39.10L118.17 39.10Q118.68 39.10 118.96 39.38Q119.23 39.65 119.23 40.16L119.23 40.16L119.23 41.95Q119.23 42.41 118.96 42.71Q118.68 43.01 118.17 43.01L118.17 43.01ZM131.19 43.01L128.98 43.01Q128.48 43.01 128.20 42.71Q127.93 42.41 127.93 41.95L127.93 41.95L127.93 11.91Q127.93 11.41 128.20 11.11Q128.48 10.81 128.98 10.81L128.98 10.81L131.10 10.81Q131.65 10.81 131.93 11.06Q132.20 11.32 132.25 11.45L132.25 11.45L147.52 34.91L147.52 11.91Q147.52 11.41 147.80 11.11Q148.07 10.81 148.58 10.81L148.58 10.81L150.79 10.81Q151.29 10.81 151.59 11.11Q151.89 11.41 151.89 11.91L151.89 11.91L151.89 41.91Q151.89 42.37 151.59 42.69Q151.29 43.01 150.83 43.01L150.83 43.01L148.63 43.01Q148.12 43.01 147.87 42.73Q147.61 42.46 147.52 42.37L147.52 42.37L132.30 19.14L132.30 41.95Q132.30 42.41 132.00 42.71Q131.70 43.01 131.19 43.01L131.19 43.01ZM172.68 43.01L170.29 43.01Q169.83 43.01 169.53 42.71Q169.23 42.41 169.23 41.95L169.23 41.95L169.23 14.90L160.40 14.90Q159.94 14.90 159.64 14.60Q159.34 14.31 159.34 13.85L159.34 13.85L159.34 11.91Q159.34 11.41 159.64 11.11Q159.94 10.81 160.40 10.81L160.40 10.81L182.57 10.81Q183.08 10.81 183.38 11.11Q183.68 11.41 183.68 11.91L183.68 11.91L183.68 13.85Q183.68 14.31 183.38 14.60Q183.08 14.90 182.57 14.90L182.57 14.90L173.79 14.90L173.79 41.95Q173.79 42.41 173.49 42.71Q173.19 43.01 172.68 43.01L172.68 43.01ZM203.18 43.01L200.79 43.01Q200.33 43.01 200.03 42.71Q199.73 42.41 199.73 41.95L199.73 41.95L199.73 31.10L188.65 12.33Q188.60 12.19 188.55 12.05Q188.51 11.91 188.51 11.73L188.51 11.73Q188.51 11.36 188.78 11.09Q189.06 10.81 189.43 10.81L189.43 10.81L191.82 10.81Q192.23 10.81 192.56 11.02Q192.88 11.22 193.02 11.59L193.02 11.59L201.99 26.50L210.96 11.59Q211.19 11.22 211.49 11.02Q211.78 10.81 212.20 10.81L212.20 10.81L214.54 10.81Q214.96 10.81 215.23 11.09Q215.51 11.36 215.51 11.73L215.51 11.73Q215.51 11.91 215.46 12.05Q215.42 12.19 215.33 12.33L215.33 12.33L204.29 31.10L204.29 41.95Q204.29 42.41 203.99 42.71Q203.69 43.01 203.18 43.01L203.18 43.01ZM226.46 43.01L224.25 43.01Q223.74 43.01 223.47 42.71Q223.19 42.41 223.19 41.95L223.19 41.95L223.19 11.91Q223.19 11.41 223.47 11.11Q223.74 10.81 224.25 10.81L224.25 10.81L226.37 10.81Q226.92 10.81 227.19 11.06Q227.47 11.32 227.52 11.45L227.52 11.45L242.79 34.91L242.79 11.91Q242.79 11.41 243.06 11.11Q243.34 10.81 243.85 10.81L243.85 10.81L246.05 10.81Q246.56 10.81 246.86 11.11Q247.16 11.41 247.16 11.91L247.16 11.91L247.16 41.91Q247.16 42.37 246.86 42.69Q246.56 43.01 246.10 43.01L246.10 43.01L243.89 43.01Q243.39 43.01 243.13 42.73Q242.88 42.46 242.79 42.37L242.79 42.37L227.56 19.14L227.56 41.95Q227.56 42.41 227.26 42.71Q226.96 43.01 226.46 43.01L226.46 43.01ZM281.38 43.47L281.38 43.47Q277.38 43.47 274.67 42.23Q271.95 40.99 270.50 39.03Q269.05 37.08 268.96 34.91L268.96 34.91Q268.96 34.55 269.26 34.25Q269.56 33.95 269.97 33.95L269.97 33.95L272.32 33.95Q272.87 33.95 273.15 34.22Q273.42 34.50 273.52 34.87L273.52 34.87Q273.79 35.97 274.67 37.05Q275.54 38.13 277.17 38.85Q278.81 39.56 281.38 39.56L281.38 39.56Q285.34 39.56 287.20 38.16Q289.06 36.75 289.06 34.41L289.06 34.41Q289.06 32.80 288.08 31.81Q287.09 30.82 285.06 30.04Q283.04 29.26 279.82 28.34L279.82 28.34Q276.46 27.37 274.25 26.22Q272.04 25.07 270.96 23.37Q269.88 21.67 269.88 19.04L269.88 19.04Q269.88 16.56 271.22 14.60Q272.55 12.65 275.08 11.50Q277.61 10.35 281.15 10.35L281.15 10.35Q284.00 10.35 286.14 11.11Q288.28 11.87 289.71 13.13Q291.13 14.40 291.87 15.85Q292.61 17.30 292.65 18.68L292.65 18.68Q292.65 19.00 292.42 19.30Q292.19 19.60 291.69 19.60L291.69 19.60L289.25 19.60Q288.93 19.60 288.58 19.41Q288.24 19.23 288.05 18.72L288.05 18.72Q287.78 16.84 285.94 15.55Q284.10 14.26 281.15 14.26L281.15 14.26Q278.16 14.26 276.30 15.41Q274.44 16.56 274.44 19.00L274.44 19.00Q274.44 20.56 275.31 21.60Q276.18 22.63 278.07 23.41Q279.96 24.20 282.99 25.07L282.99 25.07Q286.67 26.08 289.02 27.21Q291.36 28.34 292.49 30.02Q293.62 31.69 293.62 34.32L293.62 34.32Q293.62 37.21 292.10 39.26Q290.58 41.31 287.85 42.39Q285.11 43.47 281.38 43.47Z" transform="translate(0, 0)"></path></g></svg></svg>