<?xml version="1.0" encoding="UTF-8" standalone="no"?>
<svg
   viewBox="71.4500048828125 93.3800048828125 432.1000061035156 388.23999977111816"
   version="1.1"
   id="svg20"
   sodipodi:docname="Original Logo2.svg"
   inkscape:version="1.2.2 (b0a8486541, 2022-12-01)"
   xmlns:inkscape="http://www.inkscape.org/namespaces/inkscape"
   xmlns:sodipodi="http://sodipodi.sourceforge.net/DTD/sodipodi-0.dtd"
   xmlns="http://www.w3.org/2000/svg"
   xmlns:svg="http://www.w3.org/2000/svg">
  <defs
     id="defs24" />
  <sodipodi:namedview
     id="namedview22"
     pagecolor="#ffffff"
     bordercolor="#000000"
     borderopacity="0.25"
     inkscape:showpageshadow="2"
     inkscape:pageopacity="0.0"
     inkscape:pagecheckerboard="0"
     inkscape:deskcolor="#d1d1d1"
     showgrid="false"
     inkscape:zoom="2.0219452"
     inkscape:cx="216.1285"
     inkscape:cy="194.61457"
     inkscape:window-width="1920"
     inkscape:window-height="1043"
     inkscape:window-x="0"
     inkscape:window-y="0"
     inkscape:window-maximized="1"
     inkscape:current-layer="svg6" />
  <rect
     height="100%"
     width="100%"
     x="71.4500048828125"
     y="93.3800048828125"
     fill="rgba(22, 138, 83, 1)"
     id="rect2" />
  <svg
     viewBox="0.000004291534423828125 -0.00018478101992513984 150.00018310546875 147.0981903076172"
     fill="none"
     height="156.9011355704538"
     width="159.99652099609375"
     y="163.3800048828125"
     x="207.50201525878907"
     preserveAspectRatio="xMinYMin"
     style="overflow: visible;"
     version="1.1"
     id="svg6">
    <path
       d="m -84.211798,128.05453 c 23.83134,32.58367 49.511292,67.19497 81.3967434,101.13984 l 2.57463226,2.75224 C 24.020281,257.90458 54.156012,290.15744 88.880216,290.15744 h 0.363001 c 28.386523,-0.18222 59.942793,-7.59405 106.085793,-93.78861 0.49571,-0.99865 43.93292,-86.43662 67.76606,-155.990979 13.50055,-39.3305351 3.29962,-72.337817 -27.00109,-88.433168 -14.7863,-7.866107 -36.30869,-9.89313 -55.08913,-9.893131 -11.61579,0.07281 -23.21608,0.709043 -34.757,1.906007 -73.970542,7.049214 -123.449047,17.728956 -188.870018,35.004047 -38.718085,10.195772 -62.912702,26.6842669 -71.824752,48.98154 -13.46715,33.733557 10.89253,73.306184 30.235122,100.111384 z M -100.71574,32.511648 c 7.228689,-18.152608 28.155617,-31.79729716 62.219383,-40.78261 64.629116,-17.063551 113.447438,-27.622176 186.360437,-34.550372 38.9835,-3.721277 66.24795,-1.603485 81.06783,6.262623 24.39341,12.948894 31.81885,39.5422861 20.23404,72.942879 -23.371,67.951062 -65.65154,151.543412 -66.97345,154.295652 -45.94626,85.86322 -74.29999,86.07383 -93.04815,86.19454 h -0.264134 c -28.056564,0 -55.815941,-29.67812 -78.096097,-53.54887 L 8.2094878,220.57091 C -23.048833,187.29336 -48.563545,152.92346 -71.999085,120.73285 -89.757117,96.287523 -112.03736,60.587646 -100.71574,32.511648 Z m 92.7844727,76.906322 c 13.2031152,21.54094 25.0528193,32.06945 37.9257133,34.2175 6.034834,0.94968 12.242916,0.0118 17.626097,-2.66253 8.086909,22.56965 15.249497,41.75073 19.408616,49.31404 1.55144,2.81375 7.492814,12.10221 18.583191,13.76585 5.116214,0.75725 13.005081,0 21.61997,-7.89697 7.82304,-7.19886 15.51363,-20.08793 27.16531,-39.57168 l 4.29105,-7.17022 c 0.26412,-0.48394 28.48516,-48.86061 42.41426,-75.938193 l 1.38648,-2.662299 c 5.08367,-9.741877 9.90401,-18.96928 9.90401,-29.921381 0.17556,-4.139458 -1.01983,-8.231112 -3.4313,-11.735882 -2.40887,-3.504765 -5.92021,-6.258645 -10.06923,-7.899093 -5.38062,-2.027133 -20.00426,-4.750011 -39.31297,13.281669 -16.50376,15.429492 -32.44649,31.191951 -46.573898,45.381174 -5.281188,5.29454 -41.523542,43.838445 -49.973449,48.195155 -3.01458,2.01909 -6.761642,2.89681 -10.463509,2.4505 C 24.647415,129.23446 15.24015,119.91618 4.6777622,102.85263 L 2.3011594,99.070979 C -9.1855343,80.646229 -20.012047,63.219652 -19.945951,47.154758 c 0,-9.560368 6.931518,-13.251378 11.0245403,-13.917072 C 6.955219,30.635972 13.952835,46.942957 21.44565,68.483901 c 1.089287,3.207063 2.145526,6.26267 3.30065,9.076194 4.126071,10.740299 8.813178,23.901035 14.358494,39.330535 4.179764,-3.04709 8.087159,-6.3959 11.684471,-10.01403 C 46.003263,93.504056 42.075489,82.673125 38.411568,73.022112 37.388383,70.359578 36.364932,67.425134 35.308689,64.369291 29.037351,46.216919 19.762278,19.532652 -5.1255605,19.532652 c -2.1039577,0.0095 -4.2030089,0.191923 -6.2715965,0.544529 -6.72342,1.222054 -12.74819,4.608022 -16.985538,9.546408 -4.237606,4.938148 -6.408178,11.102845 -6.119783,17.379712 0,19.635215 12.212972,39.330542 24.161562,58.572209 z M 88.715229,103.97222 C 105.97806,86.515354 127.4661,64.792891 149.91152,43.796477 c 10.76117,-10.074606 19.20902,-11.920231 23.50007,-10.316699 1.47166,0.666166 2.68773,1.725404 3.49067,3.037623 0.8004,1.312453 1.14895,2.816592 0.99918,4.314105 0,7.956837 -3.92701,15.490309 -8.45041,24.203477 l -1.41745,2.72288 c -13.63222,26.502763 -41.22765,73.850477 -42.08587,75.302797 l -4.258,7.13992 c -10.66126,17.81964 -18.35212,30.70799 -24.722599,36.54613 -2.343561,2.17952 -5.84248,4.65961 -9.077042,4.17684 -1.761861,-0.52771 -3.37991,-1.39621 -4.746234,-2.54398 -1.366325,-1.14774 -2.44889,-2.55105 -3.175687,-4.11296 -3.960827,-7.13968 -12.014682,-29.07417 -20.13463,-51.73446 6.304388,-5.74842 16.206591,-15.70187 28.881711,-28.55993 z"
       fill="#339FC4"
       style="fill:#fed74f;stroke-width:2.47183"
       id="path4" />
  </svg>
</svg>
